<?xml version="1.0" encoding="UTF-8" standalone="no"?>
<svg
   xmlns:dc="http://purl.org/dc/elements/1.1/"
   xmlns:cc="http://creativecommons.org/ns#"
   xmlns:rdf="http://www.w3.org/1999/02/22-rdf-syntax-ns#"
   xmlns:svg="http://www.w3.org/2000/svg"
   xmlns="http://www.w3.org/2000/svg"
   xmlns:sodipodi="http://sodipodi.sourceforge.net/DTD/sodipodi-0.dtd"
   xmlns:inkscape="http://www.inkscape.org/namespaces/inkscape"
   style="fill-opacity:1; color-rendering:auto; color-interpolation:auto; text-rendering:auto; stroke:black; stroke-linecap:square; stroke-miterlimit:10; shape-rendering:auto; stroke-opacity:1; fill:black; stroke-dasharray:none; font-weight:normal; stroke-width:1; font-family:'Dialog'; font-style:normal; stroke-linejoin:miter; font-size:12px; stroke-dashoffset:0; image-rendering:auto;"
   width="823"
   height="684"
   version="1.1"
   id="svg351"
   sodipodi:docname="S5.svg"
   inkscape:version="1.0.1 (3bc2e813f5, 2020-09-07)">
  <metadata
     id="metadata355">
    <rdf:RDF>
      <cc:Work
         rdf:about="">
        <dc:format>image/svg+xml</dc:format>
        <dc:type
           rdf:resource="http://purl.org/dc/dcmitype/StillImage" />
      </cc:Work>
    </rdf:RDF>
  </metadata>
  <sodipodi:namedview
     pagecolor="#ffffff"
     bordercolor="#666666"
     borderopacity="1"
     objecttolerance="10"
     gridtolerance="10"
     guidetolerance="10"
     inkscape:pageopacity="0"
     inkscape:pageshadow="2"
     inkscape:window-width="2560"
     inkscape:window-height="1377"
     id="namedview353"
     showgrid="false"
     inkscape:zoom="0.89526764"
     inkscape:cx="17.364154"
     inkscape:cy="464.91194"
     inkscape:window-x="1672"
     inkscape:window-y="-8"
     inkscape:window-maximized="1"
     inkscape:current-layer="svg351" />
  <!--Generated by the Batik Graphics2D SVG Generator-->
  <defs
     id="genericDefs">
    <defs
       id="defs1">
      <clipPath
         clipPathUnits="userSpaceOnUse"
         id="clipPath1">
        <path
           d="M 0,0 H 823 V 684 H 0 Z"
           id="path3" />
      </clipPath>
    </defs>
  </defs>
  <g
     style="fill:#ffffff;stroke:#ffffff"
     id="g9">
    <rect
       x="0"
       y="0"
       width="823"
       style="stroke:none"
       height="684"
       clip-path="url(#clipPath1)"
       id="rect7" />
  </g>
  <g
     style="color-interpolation:sRGB;fill:#ffffff;stroke:#ffffff;color-rendering:optimizeSpeed;image-rendering:optimizeSpeed;shape-rendering:crispEdges;text-rendering:optimizeSpeed"
     id="g15">
    <rect
       x="0"
       width="823"
       height="684"
       y="0"
       style="stroke:none"
       id="rect11" />
    <path
       style="stroke:none"
       d="M 107,604 H 745 V 51 H 107 Z"
       id="path13" />
  </g>
  <g
     style="color-interpolation:linearRGB;fill:#262626;stroke:#262626;stroke-width:0.6667;stroke-linejoin:round;color-rendering:optimizeQuality;image-rendering:optimizeQuality;text-rendering:geometricPrecision"
     id="g33">
    <line
       y2="604"
       style="fill:none"
       x1="107"
       x2="745"
       y1="604"
       id="line17" />
    <line
       y2="597.62"
       style="fill:none"
       x1="107"
       x2="107"
       y1="604"
       id="line19" />
    <line
       y2="597.62"
       style="fill:none"
       x1="213.3333"
       x2="213.3333"
       y1="604"
       id="line21" />
    <line
       y2="597.62"
       style="fill:none"
       x1="319.66669"
       x2="319.66669"
       y1="604"
       id="line23" />
    <line
       y2="597.62"
       style="fill:none"
       x1="426"
       x2="426"
       y1="604"
       id="line25" />
    <line
       y2="597.62"
       style="fill:none"
       x1="532.33331"
       x2="532.33331"
       y1="604"
       id="line27" />
    <line
       y2="597.62"
       style="fill:none"
       x1="638.66669"
       x2="638.66669"
       y1="604"
       id="line29" />
    <line
       y2="597.62"
       style="fill:none"
       x1="745"
       x2="745"
       y1="604"
       id="line31" />
  </g>
  <g
     transform="translate(107,612)"
     style="font-size:26.6667px;color-interpolation:linearRGB;fill:#262626;stroke:#262626;color-rendering:optimizeQuality;image-rendering:optimizeQuality;text-rendering:geometricPrecision"
     id="g37">
    <path
       style="stroke:none"
       d="M -8.9062,24.7188 V 27 h -12.7813 q -0.0156,-0.8594 0.2813,-1.6406 0.4843,-1.3125 1.5624,-2.5782 1.0782,-1.2656 3.1094,-2.9218 3.1406,-2.5938 4.25,-4.1016 1.1094,-1.5078 1.1094,-2.8516 0,-1.4062 -1.0078,-2.375 -1.0078,-0.9687 -2.6328,-0.9687 -1.7032,0 -2.7344,1.0234 -1.0312,1.0235 -1.0469,2.8516 l -2.4375,-0.25 q 0.25,-2.7344 1.8828,-4.1641 1.6328,-1.4296 4.3985,-1.4296 2.7812,0 4.3984,1.539 1.6172,1.5391 1.6172,3.8203 0,1.1719 -0.4766,2.2891 -0.4765,1.1172 -1.5703,2.3594 -1.0937,1.2422 -3.6562,3.3984 -2.1406,1.7969 -2.7422,2.4375 -0.6016,0.6406 -1.0078,1.2813 z m 14.8249,0 V 27 H -6.8626 q -0.0156,-0.8594 0.2813,-1.6406 0.4844,-1.3125 1.5625,-2.5782 1.0781,-1.2656 3.1094,-2.9218 3.1406,-2.5938 4.25,-4.1016 1.1093,-1.5078 1.1093,-2.8516 0,-1.4062 -1.0078,-2.375 -1.0078,-0.9687 -2.6328,-0.9687 -1.7031,0 -2.7344,1.0234 -1.0312,1.0235 -1.0468,2.8516 l -2.4375,-0.25 q 0.25,-2.7344 1.8828,-4.1641 1.6328,-1.4296 4.3984,-1.4296 2.7813,0 4.3984,1.539 1.6172,1.5391 1.6172,3.8203 0,1.1719 -0.4765,2.2891 Q 4.9343,16.3594 3.8406,17.6016 2.7468,18.8438 0.1843,21 q -2.1406,1.7969 -2.7422,2.4375 -0.6015,0.6406 -1.0078,1.2813 z m 2.3562,-7.25 q 0,-3.4219 0.7031,-5.5157 0.7031,-2.0937 2.0937,-3.2265 1.3907,-1.1328 3.5,-1.1328 1.5625,0 2.7344,0.625 1.1719,0.625 1.9375,1.8046 0.7656,1.1797 1.1953,2.875 0.4297,1.6954 0.4297,4.5704 0,3.4062 -0.6953,5.4921 -0.6953,2.086 -2.0859,3.2266 -1.3907,1.1406 -3.5157,1.1406 -2.7968,0 -4.3906,-2 -1.9062,-2.4219 -1.9062,-7.8593 z m 2.4375,0 q 0,4.7656 1.1093,6.3359 1.1094,1.5703 2.75,1.5703 1.6407,0 2.75,-1.5781 1.1094,-1.5781 1.1094,-6.3281 0,-4.7657 -1.1094,-6.336 -1.1093,-1.5703 -2.7812,-1.5703 -1.625,0 -2.6094,1.375 -1.2187,1.7656 -1.2187,6.5313 z"
       id="path35" />
  </g>
  <g
     transform="translate(213.3333,612)"
     style="font-size:26.6667px;color-interpolation:linearRGB;fill:#262626;stroke:#262626;color-rendering:optimizeQuality;image-rendering:optimizeQuality;text-rendering:geometricPrecision"
     id="g41">
    <path
       style="stroke:none"
       d="M -8.9062,24.7188 V 27 h -12.7813 q -0.0156,-0.8594 0.2813,-1.6406 0.4843,-1.3125 1.5624,-2.5782 1.0782,-1.2656 3.1094,-2.9218 3.1406,-2.5938 4.25,-4.1016 1.1094,-1.5078 1.1094,-2.8516 0,-1.4062 -1.0078,-2.375 -1.0078,-0.9687 -2.6328,-0.9687 -1.7032,0 -2.7344,1.0234 -1.0312,1.0235 -1.0469,2.8516 l -2.4375,-0.25 q 0.25,-2.7344 1.8828,-4.1641 1.6328,-1.4296 4.3985,-1.4296 2.7812,0 4.3984,1.539 1.6172,1.5391 1.6172,3.8203 0,1.1719 -0.4766,2.2891 -0.4765,1.1172 -1.5703,2.3594 -1.0937,1.2422 -3.6562,3.3984 -2.1406,1.7969 -2.7422,2.4375 -0.6016,0.6406 -1.0078,1.2813 z M 1.0593,27 V 22.375 H -7.3313 V 20.2031 L 1.4812,7.6719 h 1.9375 v 12.5312 h 2.625 V 22.375 H 3.4187 V 27 Z m 0,-6.7969 v -8.7187 l -6.0625,8.7187 z m 7.2156,-2.7343 q 0,-3.4219 0.7031,-5.5157 0.7031,-2.0937 2.0937,-3.2265 1.3907,-1.1328 3.5,-1.1328 1.5625,0 2.7344,0.625 1.1719,0.625 1.9375,1.8046 0.7656,1.1797 1.1953,2.875 0.4297,1.6954 0.4297,4.5704 0,3.4062 -0.6953,5.4921 -0.6953,2.086 -2.0859,3.2266 -1.3907,1.1406 -3.5157,1.1406 -2.7968,0 -4.3906,-2 -1.9062,-2.4219 -1.9062,-7.8593 z m 2.4375,0 q 0,4.7656 1.1093,6.3359 1.1094,1.5703 2.75,1.5703 1.6407,0 2.75,-1.5781 1.1094,-1.5781 1.1094,-6.3281 0,-4.7657 -1.1094,-6.336 -1.1093,-1.5703 -2.7812,-1.5703 -1.625,0 -2.6094,1.375 -1.2187,1.7656 -1.2187,6.5313 z"
       id="path39" />
  </g>
  <g
     transform="translate(319.6667,612)"
     style="font-size:26.6667px;color-interpolation:linearRGB;fill:#262626;stroke:#262626;color-rendering:optimizeQuality;image-rendering:optimizeQuality;text-rendering:geometricPrecision"
     id="g45">
    <path
       style="stroke:none"
       d="M -8.9062,24.7188 V 27 h -12.7813 q -0.0156,-0.8594 0.2813,-1.6406 0.4843,-1.3125 1.5624,-2.5782 1.0782,-1.2656 3.1094,-2.9218 3.1406,-2.5938 4.25,-4.1016 1.1094,-1.5078 1.1094,-2.8516 0,-1.4062 -1.0078,-2.375 -1.0078,-0.9687 -2.6328,-0.9687 -1.7032,0 -2.7344,1.0234 -1.0312,1.0235 -1.0469,2.8516 l -2.4375,-0.25 q 0.25,-2.7344 1.8828,-4.1641 1.6328,-1.4296 4.3985,-1.4296 2.7812,0 4.3984,1.539 1.6172,1.5391 1.6172,3.8203 0,1.1719 -0.4766,2.2891 -0.4765,1.1172 -1.5703,2.3594 -1.0937,1.2422 -3.6562,3.3984 -2.1406,1.7969 -2.7422,2.4375 -0.6016,0.6406 -1.0078,1.2813 z M 5.7624,12.4062 3.4031,12.5938 Q 3.0906,11.1875 2.4968,10.5625 1.5437,9.5469 0.1374,9.5469 q -1.1406,0 -2,0.625 -1.125,0.8281 -1.7656,2.3906 -0.6406,1.5625 -0.6719,4.4687 0.8594,-1.2968 2.0938,-1.9296 1.2344,-0.6328 2.5937,-0.6328 2.375,0 4.0469,1.7421 1.6719,1.7422 1.6719,4.5079 0,1.8281 -0.7891,3.3906 -0.789,1.5625 -2.1562,2.3906 -1.3672,0.8281 -3.1172,0.8281 -2.9531,0 -4.8281,-2.1797 -1.875,-2.1796 -1.875,-7.1953 0,-5.5937 2.0625,-8.1406 1.8125,-2.2187 4.875,-2.2187 2.2812,0 3.7343,1.2812 1.4532,1.2812 1.75,3.5312 z m -9.6875,8.3282 q 0,1.2344 0.5157,2.3515 0.5156,1.1172 1.4531,1.7032 0.9375,0.5859 1.9687,0.5859 1.5,0 2.5782,-1.2109 1.0781,-1.211 1.0781,-3.2891 0,-2.0156 -1.0625,-3.1641 -1.0625,-1.1484 -2.6875,-1.1484 -1.6094,0 -2.7266,1.1484 -1.1172,1.1485 -1.1172,3.0235 z m 12.2,-3.2656 q 0,-3.4219 0.7031,-5.5157 0.7031,-2.0937 2.0937,-3.2265 1.3907,-1.1328 3.5,-1.1328 1.5625,0 2.7344,0.625 1.1719,0.625 1.9375,1.8046 0.7656,1.1797 1.1953,2.875 0.4297,1.6954 0.4297,4.5704 0,3.4062 -0.6953,5.4921 -0.6953,2.086 -2.0859,3.2266 -1.3907,1.1406 -3.5157,1.1406 -2.7968,0 -4.3906,-2 -1.9062,-2.4219 -1.9062,-7.8593 z m 2.4375,0 q 0,4.7656 1.1093,6.3359 1.1094,1.5703 2.75,1.5703 1.6407,0 2.75,-1.5781 1.1094,-1.5781 1.1094,-6.3281 0,-4.7657 -1.1094,-6.336 -1.1093,-1.5703 -2.7812,-1.5703 -1.625,0 -2.6094,1.375 -1.2187,1.7656 -1.2187,6.5313 z"
       id="path43" />
  </g>
  <g
     transform="translate(426,612)"
     style="font-size:26.6667px;color-interpolation:linearRGB;fill:#262626;stroke:#262626;color-rendering:optimizeQuality;image-rendering:optimizeQuality;text-rendering:geometricPrecision"
     id="g49">
    <path
       style="stroke:none"
       d="M -8.9062,24.7188 V 27 h -12.7813 q -0.0156,-0.8594 0.2813,-1.6406 0.4843,-1.3125 1.5624,-2.5782 1.0782,-1.2656 3.1094,-2.9218 3.1406,-2.5938 4.25,-4.1016 1.1094,-1.5078 1.1094,-2.8516 0,-1.4062 -1.0078,-2.375 -1.0078,-0.9687 -2.6328,-0.9687 -1.7032,0 -2.7344,1.0234 -1.0312,1.0235 -1.0469,2.8516 l -2.4375,-0.25 q 0.25,-2.7344 1.8828,-4.1641 1.6328,-1.4296 4.3985,-1.4296 2.7812,0 4.3984,1.539 1.6172,1.5391 1.6172,3.8203 0,1.1719 -0.4766,2.2891 -0.4765,1.1172 -1.5703,2.3594 -1.0937,1.2422 -3.6562,3.3984 -2.1406,1.7969 -2.7422,2.4375 -0.6016,0.6406 -1.0078,1.2813 z m 5.9968,-8.2032 q -1.4688,-0.5312 -2.1797,-1.539 -0.711,-1.0078 -0.711,-2.3985 0,-2.1093 1.5157,-3.5469 1.5156,-1.4374 4.0312,-1.4374 2.5313,0 4.0703,1.4687 1.5391,1.4687 1.5391,3.5781 0,1.3438 -0.7031,2.3438 -0.7032,1 -2.1407,1.5312 1.7813,0.5782 2.711,1.875 0.9297,1.2969 0.9297,3.0782 0,2.4843 -1.75,4.1718 -1.75,1.6875 -4.6094,1.6875 -2.875,0 -4.625,-1.6953 -1.75,-1.6953 -1.75,-4.2266 0,-1.875 0.9531,-3.1484 0.9531,-1.2734 2.7188,-1.7422 z M -3.3782,12.5 q 0,1.375 0.8828,2.2422 0.8828,0.8672 2.2891,0.8672 1.375,0 2.25,-0.8672 0.875,-0.8672 0.875,-2.1172 0,-1.2969 -0.8985,-2.1875 -0.8984,-0.8906 -2.2421,-0.8906 -1.3594,0 -2.2579,0.8672 -0.8984,0.8671 -0.8984,2.0859 z m -0.7656,8.9219 q 0,1.0156 0.4844,1.9687 0.4843,0.9532 1.4296,1.4688 0.9454,0.5156 2.0391,0.5156 1.7031,0 2.8125,-1.0938 1.1094,-1.0937 1.1094,-2.7812 0,-1.7188 -1.1406,-2.8359 -1.1407,-1.1172 -2.8594,-1.1172 -1.6719,0 -2.7735,1.1093 -1.1015,1.1094 -1.1015,2.7657 z M 8.2749,17.4688 q 0,-3.4219 0.7031,-5.5157 0.7031,-2.0937 2.0937,-3.2265 1.3907,-1.1328 3.5,-1.1328 1.5625,0 2.7344,0.625 1.1719,0.625 1.9375,1.8046 0.7656,1.1797 1.1953,2.875 0.4297,1.6954 0.4297,4.5704 0,3.4062 -0.6953,5.4921 -0.6953,2.086 -2.0859,3.2266 -1.3907,1.1406 -3.5157,1.1406 -2.7968,0 -4.3906,-2 -1.9062,-2.4219 -1.9062,-7.8593 z m 2.4375,0 q 0,4.7656 1.1093,6.3359 1.1094,1.5703 2.75,1.5703 1.6407,0 2.75,-1.5781 1.1094,-1.5781 1.1094,-6.3281 0,-4.7657 -1.1094,-6.336 -1.1093,-1.5703 -2.7812,-1.5703 -1.625,0 -2.6094,1.375 -1.2187,1.7656 -1.2187,6.5313 z"
       id="path47" />
  </g>
  <g
     transform="translate(532.3333,612)"
     style="font-size:26.6667px;color-interpolation:linearRGB;fill:#262626;stroke:#262626;color-rendering:optimizeQuality;image-rendering:optimizeQuality;text-rendering:geometricPrecision"
     id="g53">
    <path
       style="stroke:none"
       d="M -21.3594,21.8906 -19,21.5781 q 0.4219,2.0157 1.3984,2.9063 0.9766,0.8906 2.3985,0.8906 1.6719,0 2.8203,-1.1562 1.1484,-1.1563 1.1484,-2.875 0,-1.6407 -1.0625,-2.6954 -1.0625,-1.0546 -2.7187,-1.0546 -0.6719,0 -1.6719,0.25 l 0.2656,-2.0782 q 0.2344,0.0313 0.375,0.0313 1.5157,0 2.7344,-0.7891 1.2187,-0.789 1.2187,-2.4453 0,-1.2969 -0.8828,-2.1563 -0.8828,-0.8593 -2.289,-0.8593 -1.375,0 -2.2969,0.8672 -0.9219,0.8671 -1.1875,2.6171 l -2.375,-0.4218 q 0.4375,-2.3906 1.9766,-3.7032 1.539,-1.3124 3.8359,-1.3124 1.5781,0 2.9141,0.6796 1.3359,0.6797 2.039,1.8516 0.7032,1.1719 0.7032,2.4844 0,1.2656 -0.6719,2.289 -0.6719,1.0235 -2,1.6328 1.7187,0.3907 2.6719,1.6407 0.9531,1.25 0.9531,3.125 0,2.5312 -1.8516,4.289 -1.8515,1.7579 -4.6641,1.7579 -2.5468,0 -4.2265,-1.5157 -1.6797,-1.5156 -1.9141,-3.9375 z m 14.8093,-4.4218 q 0,-3.4219 0.7032,-5.5157 0.7031,-2.0937 2.0937,-3.2265 1.3906,-1.1328 3.5,-1.1328 1.5625,0 2.7344,0.625 1.1719,0.625 1.9375,1.8046 0.7656,1.1797 1.1953,2.875 0.4297,1.6954 0.4297,4.5704 0,3.4062 -0.6953,5.4921 -0.6953,2.086 -2.086,3.2266 -1.3906,1.1406 -3.5156,1.1406 -2.7969,0 -4.3906,-2 -1.9063,-2.4219 -1.9063,-7.8593 z m 2.4375,0 q 0,4.7656 1.1094,6.3359 1.1094,1.5703 2.75,1.5703 1.6406,0 2.75,-1.5781 1.1094,-1.5781 1.1094,-6.3281 0,-4.7657 -1.1094,-6.336 -1.1094,-1.5703 -2.7812,-1.5703 -1.625,0 -2.6094,1.375 -1.2188,1.7656 -1.2188,6.5313 z m 12.3875,0 q 0,-3.4219 0.7031,-5.5157 0.7031,-2.0937 2.0937,-3.2265 1.3907,-1.1328 3.5,-1.1328 1.5625,0 2.7344,0.625 1.1719,0.625 1.9375,1.8046 0.7656,1.1797 1.1953,2.875 0.4297,1.6954 0.4297,4.5704 0,3.4062 -0.6953,5.4921 -0.6953,2.086 -2.0859,3.2266 -1.3907,1.1406 -3.5157,1.1406 -2.7968,0 -4.3906,-2 -1.9062,-2.4219 -1.9062,-7.8593 z m 2.4375,0 q 0,4.7656 1.1093,6.3359 1.1094,1.5703 2.75,1.5703 1.6407,0 2.75,-1.5781 1.1094,-1.5781 1.1094,-6.3281 0,-4.7657 -1.1094,-6.336 -1.1093,-1.5703 -2.7812,-1.5703 -1.625,0 -2.6094,1.375 -1.2187,1.7656 -1.2187,6.5313 z"
       id="path51" />
  </g>
  <g
     transform="translate(638.6667,612)"
     style="font-size:26.6667px;color-interpolation:linearRGB;fill:#262626;stroke:#262626;color-rendering:optimizeQuality;image-rendering:optimizeQuality;text-rendering:geometricPrecision"
     id="g57">
    <path
       style="stroke:none"
       d="M -21.3594,21.8906 -19,21.5781 q 0.4219,2.0157 1.3984,2.9063 0.9766,0.8906 2.3985,0.8906 1.6719,0 2.8203,-1.1562 1.1484,-1.1563 1.1484,-2.875 0,-1.6407 -1.0625,-2.6954 -1.0625,-1.0546 -2.7187,-1.0546 -0.6719,0 -1.6719,0.25 l 0.2656,-2.0782 q 0.2344,0.0313 0.375,0.0313 1.5157,0 2.7344,-0.7891 1.2187,-0.789 1.2187,-2.4453 0,-1.2969 -0.8828,-2.1563 -0.8828,-0.8593 -2.289,-0.8593 -1.375,0 -2.2969,0.8672 -0.9219,0.8671 -1.1875,2.6171 l -2.375,-0.4218 q 0.4375,-2.3906 1.9766,-3.7032 1.539,-1.3124 3.8359,-1.3124 1.5781,0 2.9141,0.6796 1.3359,0.6797 2.039,1.8516 0.7032,1.1719 0.7032,2.4844 0,1.2656 -0.6719,2.289 -0.6719,1.0235 -2,1.6328 1.7187,0.3907 2.6719,1.6407 0.9531,1.25 0.9531,3.125 0,2.5312 -1.8516,4.289 -1.8515,1.7579 -4.6641,1.7579 -2.5468,0 -4.2265,-1.5157 -1.6797,-1.5156 -1.9141,-3.9375 z M 5.9187,24.7188 V 27 H -6.8626 q -0.0156,-0.8594 0.2813,-1.6406 0.4844,-1.3125 1.5625,-2.5782 1.0781,-1.2656 3.1094,-2.9218 3.1406,-2.5938 4.25,-4.1016 1.1093,-1.5078 1.1093,-2.8516 0,-1.4062 -1.0078,-2.375 -1.0078,-0.9687 -2.6328,-0.9687 -1.7031,0 -2.7344,1.0234 -1.0312,1.0235 -1.0468,2.8516 l -2.4375,-0.25 q 0.25,-2.7344 1.8828,-4.1641 1.6328,-1.4296 4.3984,-1.4296 2.7813,0 4.3984,1.539 1.6172,1.5391 1.6172,3.8203 0,1.1719 -0.4765,2.2891 Q 4.9343,16.3594 3.8406,17.6016 2.7468,18.8438 0.1843,21 q -2.1406,1.7969 -2.7422,2.4375 -0.6015,0.6406 -1.0078,1.2813 z m 2.3562,-7.25 q 0,-3.4219 0.7031,-5.5157 0.7031,-2.0937 2.0937,-3.2265 1.3907,-1.1328 3.5,-1.1328 1.5625,0 2.7344,0.625 1.1719,0.625 1.9375,1.8046 0.7656,1.1797 1.1953,2.875 0.4297,1.6954 0.4297,4.5704 0,3.4062 -0.6953,5.4921 -0.6953,2.086 -2.0859,3.2266 -1.3907,1.1406 -3.5157,1.1406 -2.7968,0 -4.3906,-2 -1.9062,-2.4219 -1.9062,-7.8593 z m 2.4375,0 q 0,4.7656 1.1093,6.3359 1.1094,1.5703 2.75,1.5703 1.6407,0 2.75,-1.5781 1.1094,-1.5781 1.1094,-6.3281 0,-4.7657 -1.1094,-6.336 -1.1093,-1.5703 -2.7812,-1.5703 -1.625,0 -2.6094,1.375 -1.2187,1.7656 -1.2187,6.5313 z"
       id="path55" />
  </g>
  <g
     transform="translate(745,612)"
     style="font-size:26.6667px;color-interpolation:linearRGB;fill:#262626;stroke:#262626;color-rendering:optimizeQuality;image-rendering:optimizeQuality;text-rendering:geometricPrecision"
     id="g61">
    <path
       style="stroke:none"
       d="M -21.3594,21.8906 -19,21.5781 q 0.4219,2.0157 1.3984,2.9063 0.9766,0.8906 2.3985,0.8906 1.6719,0 2.8203,-1.1562 1.1484,-1.1563 1.1484,-2.875 0,-1.6407 -1.0625,-2.6954 -1.0625,-1.0546 -2.7187,-1.0546 -0.6719,0 -1.6719,0.25 l 0.2656,-2.0782 q 0.2344,0.0313 0.375,0.0313 1.5157,0 2.7344,-0.7891 1.2187,-0.789 1.2187,-2.4453 0,-1.2969 -0.8828,-2.1563 -0.8828,-0.8593 -2.289,-0.8593 -1.375,0 -2.2969,0.8672 -0.9219,0.8671 -1.1875,2.6171 l -2.375,-0.4218 q 0.4375,-2.3906 1.9766,-3.7032 1.539,-1.3124 3.8359,-1.3124 1.5781,0 2.9141,0.6796 1.3359,0.6797 2.039,1.8516 0.7032,1.1719 0.7032,2.4844 0,1.2656 -0.6719,2.289 -0.6719,1.0235 -2,1.6328 1.7187,0.3907 2.6719,1.6407 0.9531,1.25 0.9531,3.125 0,2.5312 -1.8516,4.289 -1.8515,1.7579 -4.6641,1.7579 -2.5468,0 -4.2265,-1.5157 -1.6797,-1.5156 -1.9141,-3.9375 z M 1.0593,27 V 22.375 H -7.3313 V 20.2031 L 1.4812,7.6719 h 1.9375 v 12.5312 h 2.625 V 22.375 H 3.4187 V 27 Z m 0,-6.7969 v -8.7187 l -6.0625,8.7187 z m 7.2156,-2.7343 q 0,-3.4219 0.7031,-5.5157 0.7031,-2.0937 2.0937,-3.2265 1.3907,-1.1328 3.5,-1.1328 1.5625,0 2.7344,0.625 1.1719,0.625 1.9375,1.8046 0.7656,1.1797 1.1953,2.875 0.4297,1.6954 0.4297,4.5704 0,3.4062 -0.6953,5.4921 -0.6953,2.086 -2.0859,3.2266 -1.3907,1.1406 -3.5157,1.1406 -2.7968,0 -4.3906,-2 -1.9062,-2.4219 -1.9062,-7.8593 z m 2.4375,0 q 0,4.7656 1.1093,6.3359 1.1094,1.5703 2.75,1.5703 1.6407,0 2.75,-1.5781 1.1094,-1.5781 1.1094,-6.3281 0,-4.7657 -1.1094,-6.336 -1.1093,-1.5703 -2.7812,-1.5703 -1.625,0 -2.6094,1.375 -1.2187,1.7656 -1.2187,6.5313 z"
       id="path59" />
  </g>
  <g
     transform="translate(295,677)"
     style="font-size:29.3333px;color-interpolation:linearRGB;fill:#262626;stroke:#262626;color-rendering:optimizeQuality;image-rendering:optimizeQuality;text-rendering:geometricPrecision"
     id="g65">
    <path
       style="stroke:none"
       d="m 17.0469,-7.2812 2.75,0.7031 q -0.8594,3.375 -3.1094,5.1562 -2.25,1.7813 -5.4844,1.7813 -3.3593,0 -5.4609,-1.3672 -2.1016,-1.3672 -3.2031,-3.961 -1.1016,-2.5937 -1.1016,-5.5624 0,-3.25 1.2422,-5.6641 1.2422,-2.4141 3.5312,-3.6641 2.2891,-1.25 5.0391,-1.25 3.1094,0 5.2344,1.586 2.125,1.5859 2.9531,4.4609 l -2.7031,0.6406 q -0.7188,-2.2656 -2.0938,-3.3047 -1.375,-1.039 -3.4531,-1.039 -2.3906,0 -4,1.1484 -1.6094,1.1484 -2.2578,3.0781 -0.6485,1.9297 -0.6485,3.9922 0,2.6407 0.7657,4.6172 0.7656,1.9766 2.3984,2.9531 Q 9.0781,-2 10.9688,-2 q 2.3124,0 3.914,-1.3281 1.6016,-1.3281 2.1641,-3.9531 z m 21.1685,0 2.75,0.7031 q -0.8594,3.375 -3.1094,5.1562 -2.25,1.7813 -5.4843,1.7813 -3.3594,0 -5.461,-1.3672 -2.1015,-1.3672 -3.2031,-3.961 -1.1016,-2.5937 -1.1016,-5.5624 0,-3.25 1.2422,-5.6641 1.2422,-2.4141 3.5313,-3.6641 2.289,-1.25 5.039,-1.25 3.1094,0 5.2344,1.586 2.125,1.5859 2.9531,4.4609 l -2.7031,0.6406 q -0.7187,-2.2656 -2.0937,-3.3047 -1.375,-1.039 -3.4532,-1.039 -2.3906,0 -4,1.1484 -1.6093,1.1484 -2.2578,3.0781 -0.6484,1.9297 -0.6484,3.9922 0,2.6407 0.7656,4.6172 0.7656,1.9766 2.3985,2.9531 Q 30.2467,-2 32.1373,-2 q 2.3125,0 3.9141,-1.3281 1.6015,-1.3281 2.164,-3.9531 z M 44.7121,0 v -20.7656 h 14.0156 v 2.4531 H 47.4621 v 6.4375 h 9.75 v 2.4375 h -9.75 V 0 Z m 21.624,0 -5.7188,-15.0312 h 2.6875 l 3.2188,9 q 0.5312,1.4531 0.9687,3.0312 0.3438,-1.1875 0.9532,-2.8594 l 3.3437,-9.1718 h 2.6094 L 68.7111,0 Z m 9.7812,-5.4844 2.5469,-0.3281 q 0.4375,2.1563 1.4922,3.1172 1.0547,0.9609 2.5703,0.9609 1.7969,0 3.0391,-1.25 1.2422,-1.25 1.2422,-3.0937 0,-1.75 -1.1485,-2.8907 -1.1484,-1.1406 -2.914,-1.1406 -0.7188,0 -1.7969,0.2813 l 0.2812,-2.2344 q 0.25,0.0313 0.4063,0.0313 1.625,0 2.9297,-0.8516 1.3047,-0.8516 1.3047,-2.6172 0,-1.4062 -0.9453,-2.3281 -0.9454,-0.9219 -2.4454,-0.9219 -1.5,0 -2.4843,0.9375 -0.9844,0.9375 -1.2813,2.7969 l -2.5469,-0.4532 q 0.4688,-2.5624 2.125,-3.9687 1.6563,-1.4063 4.125,-1.4063 1.7032,0 3.1329,0.7266 1.4296,0.7266 2.1875,1.9922 0.7578,1.2656 0.7578,2.6719 0,1.3437 -0.7266,2.4531 -0.7266,1.1094 -2.1328,1.75 1.8281,0.4375 2.8516,1.7734 1.0234,1.336 1.0234,3.3516 0,2.7188 -1.9844,4.6094 -1.9844,1.8906 -5.0156,1.8906 -2.7344,0 -4.5391,-1.6328 -1.8047,-1.6328 -2.0547,-4.2266 z"
       id="path63" />
  </g>
  <g
     transform="translate(395,677)"
     style="font-style:italic;font-size:29.3333px;color-interpolation:linearRGB;fill:#262626;stroke:#262626;color-rendering:optimizeQuality;image-rendering:optimizeQuality;text-rendering:geometricPrecision"
     id="g69">
    <path
       style="stroke:none"
       d="M -0.0469,0 6.5,-7.625 2.75,-15.0312 h 2.8281 l 1.2813,2.6718 q 0.7031,1.5 1.2656,2.875 l 4.3438,-5.5468 h 3.125 L 9.2812,-7.4375 13.0625,0 h -2.8281 l -1.5,-3.0625 Q 8.25,-4.0312 7.6406,-5.4844 L 3.1719,0 Z"
       id="path67" />
  </g>
  <g
     transform="translate(410,677)"
     style="font-size:29.3333px;color-interpolation:linearRGB;fill:#262626;stroke:#262626;color-rendering:optimizeQuality;image-rendering:optimizeQuality;text-rendering:geometricPrecision"
     id="g73">
    <path
       style="stroke:none"
       d="M 0.9219,-6.2344 V -8.7969 H 8.75 v 2.5625 z m 20.5581,0.7188 2.5157,0.3281 q -0.4063,2.5937 -2.1016,4.0625 -1.6953,1.4688 -4.1641,1.4688 -3.0781,0 -4.9531,-2.0235 -1.875,-2.0234 -1.875,-5.7891 0,-2.4218 0.8047,-4.25 0.8047,-1.8281 2.4531,-2.7421 1.6485,-0.9141 3.586,-0.9141 2.4531,0 4.0078,1.2344 1.5547,1.2344 1.9922,3.5156 l -2.4688,0.3906 q -0.3594,-1.5156 -1.2578,-2.2812 -0.8984,-0.7656 -2.1797,-0.7656 -1.9219,0 -3.125,1.3828 -1.2031,1.3828 -1.2031,4.3672 0,3.0312 1.1641,4.4062 1.164,1.375 3.0234,1.375 1.5,0 2.5078,-0.9219 1.0078,-0.9219 1.2734,-2.8437 z m 3.9063,-2 q 0,-4.1875 2.3125,-6.1875 1.9375,-1.6719 4.7344,-1.6719 3.0937,0 5.0625,2.0312 1.9687,2.0313 1.9687,5.6094 0,2.9063 -0.8672,4.5703 -0.8672,1.6641 -2.5312,2.586 -1.6641,0.9219 -3.6328,0.9219 -3.1563,0 -5.1016,-2.0235 -1.9453,-2.0234 -1.9453,-5.8359 z m 2.6094,0 q 0,2.8906 1.2656,4.3281 1.2656,1.4375 3.1719,1.4375 1.8906,0 3.1562,-1.4453 1.2656,-1.4453 1.2656,-4.4141 0,-2.7812 -1.2734,-4.2187 -1.2734,-1.4375 -3.1484,-1.4375 -1.9063,0 -3.1719,1.4297 -1.2656,1.4297 -1.2656,4.3203 z m 13.6928,0 q 0,-4.1875 2.3125,-6.1875 1.9375,-1.6719 4.7344,-1.6719 3.0937,0 5.0625,2.0312 1.9687,2.0313 1.9687,5.6094 0,2.9063 -0.8672,4.5703 -0.8671,1.6641 -2.5312,2.586 -1.6641,0.9219 -3.6328,0.9219 -3.1563,0 -5.1016,-2.0235 -1.9453,-2.0234 -1.9453,-5.8359 z m 2.6094,0 q 0,2.8906 1.2656,4.3281 1.2656,1.4375 3.1719,1.4375 1.8906,0 3.1562,-1.4453 1.2657,-1.4453 1.2657,-4.4141 0,-2.7812 -1.2735,-4.2187 -1.2734,-1.4375 -3.1484,-1.4375 -1.9063,0 -3.1719,1.4297 -1.2656,1.4297 -1.2656,4.3203 z M 58.9126,0 v -15.0312 h 2.2812 v 2.2656 q 0.8907,-1.5938 1.6329,-2.1016 0.7421,-0.5078 1.6328,-0.5078 1.2812,0 2.6093,0.8125 l -0.875,2.375 q -0.9375,-0.5625 -1.8593,-0.5625 -0.8438,0 -1.5078,0.5078 -0.6641,0.5078 -0.9454,1.3984 -0.4218,1.3594 -0.4218,2.9688 V 0 Z m 19.5425,0 v -1.8906 q -1.4375,2.2344 -4.2031,2.2344 -1.7969,0 -3.3125,-0.9922 -1.5156,-0.9922 -2.3437,-2.7735 -0.8282,-1.7812 -0.8282,-4.0781 0,-2.25 0.7579,-4.0859 0.7578,-1.836 2.2578,-2.8125 1.5,-0.9766 3.3437,-0.9766 1.3594,0 2.4219,0.5703 1.0625,0.5703 1.7344,1.4922 v -7.4531 h 2.5312 V 0 Z m -8.0625,-7.5 q 0,2.8906 1.2188,4.3203 1.2187,1.4297 2.875,1.4297 1.6719,0 2.8359,-1.3672 1.1641,-1.3672 1.1641,-4.1797 0,-3.0781 -1.1875,-4.5234 -1.1875,-1.4453 -2.9219,-1.4453 -1.7031,0 -2.8437,1.3828 Q 70.3926,-10.5 70.3926,-7.5 Z m 14.6148,-10.3281 v -2.9375 h 2.5468 v 2.9375 z m 0,17.8281 v -15.0312 h 2.5468 V 0 Z m 6.4966,0 v -15.0312 h 2.2969 v 2.125 q 1.6563,-2.4688 4.7813,-2.4688 1.3593,0 2.5,0.4844 1.1406,0.4844 1.7109,1.2812 0.5703,0.7969 0.7891,1.8906 0.1406,0.7032 0.1406,2.4688 V 0 h -2.5469 v -9.1406 q 0,-1.5625 -0.2969,-2.336 -0.2968,-0.7734 -1.0547,-1.2343 -0.7578,-0.461 -1.7734,-0.461 -1.625,0 -2.8125,1.0313 -1.1875,1.0312 -1.1875,3.9218 V 0 Z m 26.1147,-1.8594 q -1.4062,1.2032 -2.7187,1.7032 -1.3125,0.5 -2.8125,0.5 -2.4844,0 -3.8125,-1.211 -1.3281,-1.2109 -1.3281,-3.1016 0,-1.0937 0.5,-2.0078 0.5,-0.914 1.3203,-1.4687 0.8203,-0.5547 1.8359,-0.8359 0.75,-0.2032 2.2656,-0.3907 3.0782,-0.3593 4.5469,-0.875 0.0156,-0.5156 0.0156,-0.6562 0,-1.5625 -0.7343,-2.2031 -0.9688,-0.8594 -2.8907,-0.8594 -1.7968,0 -2.6562,0.625 -0.8594,0.625 -1.2656,2.2344 l -2.5,-0.3438 q 0.3437,-1.5938 1.125,-2.5781 0.7812,-0.9844 2.25,-1.5157 1.4687,-0.5312 3.4062,-0.5312 1.9375,0 3.1406,0.4531 1.2032,0.4531 1.7657,1.1407 0.5625,0.6874 0.7968,1.7343 0.125,0.6407 0.125,2.3438 v 3.4062 q 0,3.5469 0.1641,4.4922 0.1641,0.9453 0.6328,1.8047 h -2.6562 q -0.3907,-0.7969 -0.5157,-1.8594 z m -0.2031,-5.6875 q -1.3906,0.5625 -4.1719,0.9688 -1.5625,0.2187 -2.2187,0.5 -0.6563,0.2812 -1.0078,0.8281 -0.3516,0.5469 -0.3516,1.2188 0,1.0156 0.7735,1.6953 0.7734,0.6797 2.2578,0.6797 1.4687,0 2.6172,-0.6485 1.1484,-0.6484 1.6953,-1.7578 0.4062,-0.8594 0.4062,-2.5469 z m 12.271,5.2657 0.3594,2.25 q -1.0782,0.2343 -1.9219,0.2343 -1.3906,0 -2.1563,-0.4453 -0.7656,-0.4453 -1.0781,-1.1562 -0.3125,-0.711 -0.3125,-3.0078 v -8.6563 h -1.8594 v -1.9687 h 1.8594 v -3.7344 l 2.5313,-1.5313 v 5.2657 h 2.5781 v 1.9687 h -2.5781 v 8.7969 q 0,1.0937 0.1406,1.4062 0.1406,0.3125 0.4453,0.4922 0.3047,0.1797 0.8672,0.1797 0.4219,0 1.125,-0.0937 z m 12.8627,-2.5626 2.6406,0.3282 q -0.625,2.3125 -2.3125,3.5859 -1.6875,1.2735 -4.2969,1.2735 -3.3125,0 -5.2422,-2.0313 -1.9296,-2.0313 -1.9296,-5.7031 0,-3.7969 1.9531,-5.8906 1.9531,-2.0938 5.0625,-2.0938 3.0312,0 4.9375,2.0547 1.9062,2.0547 1.9062,5.7734 0,0.2188 -0.0156,0.6719 h -11.2031 q 0.1406,2.4844 1.3984,3.8047 1.2578,1.3203 3.1328,1.3203 1.4063,0 2.3985,-0.7422 0.9922,-0.7422 1.5703,-2.3516 z m -8.3594,-4.125 h 8.3906 q -0.1718,-1.8906 -0.9687,-2.8437 -1.2188,-1.4687 -3.1563,-1.4687 -1.75,0 -2.9453,1.1718 -1.1953,1.1719 -1.3203,3.1406 z"
       id="path71" />
  </g>
  <g
     style="color-interpolation:linearRGB;fill:#262626;stroke:#262626;stroke-width:0.6667;stroke-linejoin:round;color-rendering:optimizeQuality;image-rendering:optimizeQuality;text-rendering:geometricPrecision"
     id="g95">
    <line
       y2="51"
       style="fill:none"
       x1="107"
       x2="107"
       y1="604"
       id="line75" />
    <line
       y2="604"
       style="fill:none"
       x1="107"
       x2="113.38"
       y1="604"
       id="line77" />
    <line
       y2="534.875"
       style="fill:none"
       x1="107"
       x2="113.38"
       y1="534.875"
       id="line79" />
    <line
       y2="465.75"
       style="fill:none"
       x1="107"
       x2="113.38"
       y1="465.75"
       id="line81" />
    <line
       y2="396.625"
       style="fill:none"
       x1="107"
       x2="113.38"
       y1="396.625"
       id="line83" />
    <line
       y2="327.5"
       style="fill:none"
       x1="107"
       x2="113.38"
       y1="327.5"
       id="line85" />
    <line
       y2="258.375"
       style="fill:none"
       x1="107"
       x2="113.38"
       y1="258.375"
       id="line87" />
    <line
       y2="189.25"
       style="fill:none"
       x1="107"
       x2="113.38"
       y1="189.25"
       id="line89" />
    <line
       y2="120.125"
       style="fill:none"
       x1="107"
       x2="113.38"
       y1="120.125"
       id="line91" />
    <line
       y2="51"
       style="fill:none"
       x1="107"
       x2="113.38"
       y1="51"
       id="line93" />
  </g>
  <g
     transform="translate(99,604)"
     style="font-size:26.6667px;color-interpolation:linearRGB;fill:#262626;stroke:#262626;color-rendering:optimizeQuality;image-rendering:optimizeQuality;text-rendering:geometricPrecision"
     id="g99">
    <path
       style="stroke:none"
       d="M -45.1406,4.7031 V 2.3125 h 7.2812 V 4.7031 Z M -27.0608,10.5 h -2.375 V -4.625 q -0.8593,0.8281 -2.25,1.6406 -1.3906,0.8125 -2.5,1.2188 v -2.2969 q 2,-0.9219 3.4844,-2.2578 1.4844,-1.3359 2.1094,-2.5859 h 1.5312 z m 7.2156,0 V 7.7969 h 2.7031 V 10.5 Z m 6.0778,-5.0625 2.4844,-0.2187 q 0.2813,1.8281 1.2891,2.7421 1.0078,0.9141 2.4297,0.9141 1.7187,0 2.9062,-1.2891 1.1875,-1.289 1.1875,-3.4297 0,-2.0312 -1.1406,-3.2031 -1.1406,-1.1719 -2.9844,-1.1719 -1.1562,0 -2.0781,0.5235 -0.9219,0.5234 -1.4531,1.3515 l -2.2188,-0.2968 1.875,-9.9219 h 9.6094 v 2.2656 h -7.7188 l -1.0468,5.1875 q 1.75,-1.2031 3.6562,-1.2031 2.5313,0 4.2734,1.75 1.7422,1.75 1.7422,4.5156 0,2.625 -1.5312,4.5313 -1.8594,2.3437 -5.0781,2.3437 -2.6407,0 -4.3047,-1.4765 -1.6641,-1.4766 -1.8985,-3.9141 z"
       id="path97" />
  </g>
  <g
     transform="translate(99,534.875)"
     style="font-size:26.6667px;color-interpolation:linearRGB;fill:#262626;stroke:#262626;color-rendering:optimizeQuality;image-rendering:optimizeQuality;text-rendering:geometricPrecision"
     id="g103">
    <path
       style="stroke:none"
       d="M -23.1406,4.7031 V 2.3125 h 7.2812 V 4.7031 Z M -5.0608,10.5 h -2.375 V -4.625 q -0.8593,0.8281 -2.25,1.6406 -1.3906,0.8125 -2.5,1.2188 v -2.2969 q 2,-0.9219 3.4844,-2.2578 1.4844,-1.3359 2.1094,-2.5859 h 1.5312 z"
       id="path101" />
  </g>
  <g
     transform="translate(99,465.75)"
     style="font-size:26.6667px;color-interpolation:linearRGB;fill:#262626;stroke:#262626;color-rendering:optimizeQuality;image-rendering:optimizeQuality;text-rendering:geometricPrecision"
     id="g107">
    <path
       style="stroke:none"
       d="M -45.1406,4.7031 V 2.3125 h 7.2812 v 2.3906 z m 9.1423,-3.7343 q 0,-3.4219 0.7032,-5.5157 0.7031,-2.0937 2.0937,-3.2265 1.3906,-1.1328 3.5,-1.1328 1.5625,0 2.7344,0.625 1.1719,0.625 1.9375,1.8046 0.7656,1.1797 1.1953,2.875 0.4297,1.6954 0.4297,4.5704 0,3.4062 -0.6953,5.4921 -0.6953,2.086 -2.086,3.2266 -1.3906,1.1406 -3.5156,1.1406 -2.7969,0 -4.3906,-2 -1.9063,-2.4219 -1.9063,-7.8593 z m 2.4375,0 q 0,4.7656 1.1094,6.3359 1.1094,1.5703 2.75,1.5703 1.6406,0 2.75,-1.5781 1.1094,-1.5781 1.1094,-6.3281 0,-4.7657 -1.1094,-6.336 -1.1094,-1.5703 -2.7812,-1.5703 -1.625,0 -2.6094,1.375 -1.2188,1.7656 -1.2188,6.5313 z M -19.8452,10.5 V 7.7969 h 2.7031 V 10.5 Z m 6.0778,-5.0625 2.4844,-0.2187 q 0.2813,1.8281 1.2891,2.7421 1.0078,0.9141 2.4297,0.9141 1.7187,0 2.9062,-1.2891 1.1875,-1.289 1.1875,-3.4297 0,-2.0312 -1.1406,-3.2031 -1.1406,-1.1719 -2.9844,-1.1719 -1.1562,0 -2.0781,0.5235 -0.9219,0.5234 -1.4531,1.3515 l -2.2188,-0.2968 1.875,-9.9219 h 9.6094 v 2.2656 h -7.7188 l -1.0468,5.1875 q 1.75,-1.2031 3.6562,-1.2031 2.5313,0 4.2734,1.75 1.7422,1.75 1.7422,4.5156 0,2.625 -1.5312,4.5313 -1.8594,2.3437 -5.0781,2.3437 -2.6407,0 -4.3047,-1.4765 -1.6641,-1.4766 -1.8985,-3.9141 z"
       id="path105" />
  </g>
  <g
     transform="translate(99,396.625)"
     style="font-size:26.6667px;color-interpolation:linearRGB;fill:#262626;stroke:#262626;color-rendering:optimizeQuality;image-rendering:optimizeQuality;text-rendering:geometricPrecision"
     id="g111">
    <path
       style="stroke:none"
       d="m -13.875,0.9688 q 0,-3.4219 0.7031,-5.5157 0.7031,-2.0937 2.0938,-3.2265 1.3906,-1.1328 3.5,-1.1328 1.5625,0 2.7343,0.625 1.1719,0.625 1.9376,1.8046 0.7656,1.1797 1.1953,2.875 0.4297,1.6954 0.4297,4.5704 0,3.4062 -0.6954,5.4921 -0.6953,2.086 -2.0859,3.2266 -1.3906,1.1406 -3.5156,1.1406 -2.7969,0 -4.3907,-2 -1.9062,-2.4219 -1.9062,-7.8593 z m 2.4375,0 q 0,4.7656 1.1094,6.3359 1.1093,1.5703 2.75,1.5703 1.6406,0 2.75,-1.5781 1.1093,-1.5781 1.1093,-6.3281 0,-4.7657 -1.1093,-6.336 -1.1094,-1.5703 -2.7813,-1.5703 -1.625,0 -2.6094,1.375 -1.2187,1.7656 -1.2187,6.5313 z"
       id="path109" />
  </g>
  <g
     transform="translate(99,327.5)"
     style="font-size:26.6667px;color-interpolation:linearRGB;fill:#262626;stroke:#262626;color-rendering:optimizeQuality;image-rendering:optimizeQuality;text-rendering:geometricPrecision"
     id="g115">
    <path
       style="stroke:none"
       d="m -36.875,0.9688 q 0,-3.4219 0.7031,-5.5157 0.7031,-2.0937 2.0938,-3.2265 1.3906,-1.1328 3.5,-1.1328 1.5625,0 2.7343,0.625 1.1719,0.625 1.9376,1.8046 0.7656,1.1797 1.1953,2.875 0.4297,1.6954 0.4297,4.5704 0,3.4062 -0.6954,5.4921 -0.6953,2.086 -2.0859,3.2266 -1.3906,1.1406 -3.5156,1.1406 -2.7969,0 -4.3907,-2 -1.9062,-2.4219 -1.9062,-7.8593 z m 2.4375,0 q 0,4.7656 1.1094,6.3359 1.1093,1.5703 2.75,1.5703 1.6406,0 2.75,-1.5781 1.1093,-1.5781 1.1093,-6.3281 0,-4.7657 -1.1093,-6.336 -1.1094,-1.5703 -2.7813,-1.5703 -1.625,0 -2.6094,1.375 -1.2187,1.7656 -1.2187,6.5313 z M -20.7219,10.5 V 7.7969 h 2.7031 V 10.5 Z m 6.0778,-5.0625 2.4844,-0.2187 q 0.2812,1.8281 1.289,2.7421 1.0078,0.9141 2.4297,0.9141 1.7188,0 2.9063,-1.2891 1.1875,-1.289 1.1875,-3.4297 0,-2.0312 -1.1407,-3.2031 -1.1406,-1.1719 -2.9843,-1.1719 -1.1563,0 -2.0782,0.5235 -0.9218,0.5234 -1.4531,1.3515 l -2.2187,-0.2968 1.875,-9.9219 h 9.6093 v 2.2656 h -7.7187 l -1.0469,5.1875 q 1.75,-1.2031 3.6563,-1.2031 2.5312,0 4.2734,1.75 1.7422,1.75 1.7422,4.5156 0,2.625 -1.5313,4.5313 -1.8593,2.3437 -5.0781,2.3437 -2.6406,0 -4.3047,-1.4765 -1.664,-1.4766 -1.8984,-3.9141 z"
       id="path113" />
  </g>
  <g
     transform="translate(99,258.375)"
     style="font-size:26.6667px;color-interpolation:linearRGB;fill:#262626;stroke:#262626;color-rendering:optimizeQuality;image-rendering:optimizeQuality;text-rendering:geometricPrecision"
     id="g119">
    <path
       style="stroke:none"
       d="m -4.9375,10.5 h -2.375 V -4.625 q -0.8594,0.8281 -2.25,1.6406 -1.3906,0.8125 -2.5,1.2188 v -2.2969 q 2,-0.9219 3.4844,-2.2578 1.4843,-1.3359 2.1093,-2.5859 h 1.5313 z"
       id="path117" />
  </g>
  <g
     transform="translate(99,189.25)"
     style="font-size:26.6667px;color-interpolation:linearRGB;fill:#262626;stroke:#262626;color-rendering:optimizeQuality;image-rendering:optimizeQuality;text-rendering:geometricPrecision"
     id="g123">
    <path
       style="stroke:none"
       d="m -27.9375,10.5 h -2.375 V -4.625 q -0.8594,0.8281 -2.25,1.6406 -1.3906,0.8125 -2.5,1.2188 v -2.2969 q 2,-0.9219 3.4844,-2.2578 1.4843,-1.3359 2.1093,-2.5859 h 1.5313 z m 7.2156,0 V 7.7969 h 2.7031 V 10.5 Z m 6.0778,-5.0625 2.4844,-0.2187 q 0.2812,1.8281 1.289,2.7421 1.0078,0.9141 2.4297,0.9141 1.7188,0 2.9063,-1.2891 1.1875,-1.289 1.1875,-3.4297 0,-2.0312 -1.1407,-3.2031 -1.1406,-1.1719 -2.9843,-1.1719 -1.1563,0 -2.0782,0.5235 -0.9218,0.5234 -1.4531,1.3515 l -2.2187,-0.2968 1.875,-9.9219 h 9.6093 v 2.2656 h -7.7187 l -1.0469,5.1875 q 1.75,-1.2031 3.6563,-1.2031 2.5312,0 4.2734,1.75 1.7422,1.75 1.7422,4.5156 0,2.625 -1.5313,4.5313 -1.8593,2.3437 -5.0781,2.3437 -2.6406,0 -4.3047,-1.4765 -1.664,-1.4766 -1.8984,-3.9141 z"
       id="path121" />
  </g>
  <g
     transform="translate(99,120.125)"
     style="font-size:26.6667px;color-interpolation:linearRGB;fill:#262626;stroke:#262626;color-rendering:optimizeQuality;image-rendering:optimizeQuality;text-rendering:geometricPrecision"
     id="g127">
    <path
       style="stroke:none"
       d="M -1.4062,8.2188 V 10.5 h -12.7813 q -0.0156,-0.8594 0.2813,-1.6406 0.4843,-1.3125 1.5624,-2.5782 1.0782,-1.2656 3.1094,-2.9218 3.1406,-2.5938 4.25,-4.1016 1.1094,-1.5078 1.1094,-2.8516 0,-1.4062 -1.0078,-2.375 -1.0078,-0.9687 -2.6328,-0.9687 -1.7032,0 -2.7344,1.0234 -1.0312,1.0235 -1.0469,2.8516 l -2.4375,-0.25 q 0.25,-2.7344 1.8828,-4.1641 1.6328,-1.4296 4.3985,-1.4296 2.7812,0 4.3984,1.539 1.6172,1.5391 1.6172,3.8203 0,1.1719 -0.4766,2.2891 -0.4765,1.1172 -1.5703,2.3594 -1.0937,1.2422 -3.6562,3.3984 -2.1406,1.7969 -2.7422,2.4375 -0.6016,0.6406 -1.0078,1.2813 z"
       id="path125" />
  </g>
  <g
     transform="translate(99,51)"
     style="font-size:26.6667px;color-interpolation:linearRGB;fill:#262626;stroke:#262626;color-rendering:optimizeQuality;image-rendering:optimizeQuality;text-rendering:geometricPrecision"
     id="g131">
    <path
       style="stroke:none"
       d="M -24.4062,8.2188 V 10.5 h -12.7813 q -0.0156,-0.8594 0.2813,-1.6406 0.4843,-1.3125 1.5624,-2.5782 1.0782,-1.2656 3.1094,-2.9218 3.1406,-2.5938 4.25,-4.1016 1.1094,-1.5078 1.1094,-2.8516 0,-1.4062 -1.0078,-2.375 -1.0078,-0.9687 -2.6328,-0.9687 -1.7032,0 -2.7344,1.0234 -1.0312,1.0235 -1.0469,2.8516 l -2.4375,-0.25 q 0.25,-2.7344 1.8828,-4.1641 1.6328,-1.4296 4.3985,-1.4296 2.7812,0 4.3984,1.539 1.6172,1.5391 1.6172,3.8203 0,1.1719 -0.4766,2.2891 -0.4765,1.1172 -1.5703,2.3594 -1.0937,1.2422 -3.6562,3.3984 -2.1406,1.7969 -2.7422,2.4375 -0.6016,0.6406 -1.0078,1.2813 z M -20.7219,10.5 V 7.7969 h 2.7031 V 10.5 Z m 6.0778,-5.0625 2.4844,-0.2187 q 0.2812,1.8281 1.289,2.7421 1.0078,0.9141 2.4297,0.9141 1.7188,0 2.9063,-1.2891 1.1875,-1.289 1.1875,-3.4297 0,-2.0312 -1.1407,-3.2031 -1.1406,-1.1719 -2.9843,-1.1719 -1.1563,0 -2.0782,0.5235 -0.9218,0.5234 -1.4531,1.3515 l -2.2187,-0.2968 1.875,-9.9219 h 9.6093 v 2.2656 h -7.7187 l -1.0469,5.1875 q 1.75,-1.2031 3.6563,-1.2031 2.5312,0 4.2734,1.75 1.7422,1.75 1.7422,4.5156 0,2.625 -1.5313,4.5313 -1.8593,2.3437 -5.0781,2.3437 -2.6406,0 -4.3047,-1.4765 -1.664,-1.4766 -1.8984,-3.9141 z"
       id="path129" />
  </g>
  <g
     transform="rotate(-90,188.24985,139.24985)"
     style="font-size:29.3333px;color-interpolation:linearRGB;fill:#262626;stroke:#262626;color-rendering:optimizeQuality;image-rendering:optimizeQuality;text-rendering:geometricPrecision"
     id="g135">
    <path
       style="stroke:none"
       d="m -172.9844,-7 v -18.3125 h -6.8281 v -2.4531 h 16.4531 v 2.4531 h -6.875 V -7 Z m 12.2959,0 v -20.7656 h 2.5469 v 7.4531 q 1.7968,-2.0625 4.5156,-2.0625 1.6719,0 2.8984,0.6562 1.2266,0.6563 1.7578,1.8204 0.5313,1.164 0.5313,3.3672 V -7 h -2.5469 v -9.5312 q 0,-1.9063 -0.8281,-2.7813 -0.8281,-0.875 -2.3438,-0.875 -1.125,0 -2.125,0.5859 -1,0.586 -1.4296,1.5938 -0.4297,1.0078 -0.4297,2.7734 V -7 Z m 26.1147,-1.8594 q -1.4062,1.2032 -2.7187,1.7032 -1.3125,0.5 -2.8125,0.5 -2.4844,0 -3.8125,-1.211 -1.3282,-1.2109 -1.3282,-3.1016 0,-1.0937 0.5,-2.0078 0.5,-0.914 1.3203,-1.4687 0.8204,-0.5547 1.836,-0.8359 0.75,-0.2032 2.2656,-0.3907 3.0781,-0.3593 4.5469,-0.875 0.0156,-0.5156 0.0156,-0.6562 0,-1.5625 -0.7344,-2.2031 -0.9687,-0.8594 -2.8906,-0.8594 -1.7969,0 -2.6562,0.625 -0.8594,0.625 -1.2657,2.2344 l -2.5,-0.3438 q 0.3438,-1.5938 1.125,-2.5781 0.7813,-0.9844 2.25,-1.5157 1.4688,-0.5312 3.4063,-0.5312 1.9375,0 3.1406,0.4531 1.2031,0.4531 1.7656,1.1407 0.5625,0.6874 0.7969,1.7343 0.125,0.6407 0.125,2.3438 v 3.4062 q 0,3.5469 0.1641,4.4922 0.164,0.9453 0.6328,1.8047 h -2.6563 q -0.3906,-0.7969 -0.5156,-1.8594 z m -0.2031,-5.6875 q -1.3906,0.5625 -4.1719,0.9688 -1.5625,0.2187 -2.2187,0.5 -0.6563,0.2812 -1.0079,0.8281 -0.3515,0.5469 -0.3515,1.2188 0,1.0156 0.7734,1.6953 0.7735,0.6797 2.2578,0.6797 1.4688,0 2.6172,-0.6485 1.1485,-0.6484 1.6953,-1.7578 0.4063,-0.8594 0.4063,-2.5469 z M -128.131,-7 v -20.7656 h 2.5469 V -7 Z m 16.3717,-1.8594 q -1.4062,1.2032 -2.7187,1.7032 -1.3125,0.5 -2.8125,0.5 -2.4844,0 -3.8125,-1.211 -1.3282,-1.2109 -1.3282,-3.1016 0,-1.0937 0.5,-2.0078 0.5,-0.914 1.3204,-1.4687 0.8203,-0.5547 1.8359,-0.8359 0.75,-0.2032 2.2656,-0.3907 3.0781,-0.3593 4.5469,-0.875 0.0156,-0.5156 0.0156,-0.6562 0,-1.5625 -0.7344,-2.2031 -0.9687,-0.8594 -2.8906,-0.8594 -1.7969,0 -2.6562,0.625 -0.8594,0.625 -1.2657,2.2344 l -2.5,-0.3438 q 0.3438,-1.5938 1.125,-2.5781 0.7813,-0.9844 2.25,-1.5157 1.4688,-0.5312 3.4063,-0.5312 1.9375,0 3.1406,0.4531 1.2031,0.4531 1.7656,1.1407 0.5625,0.6874 0.7969,1.7343 0.125,0.6407 0.125,2.3438 v 3.4062 q 0,3.5469 0.1641,4.4922 0.164,0.9453 0.6328,1.8047 h -2.6563 q -0.3906,-0.7969 -0.5156,-1.8594 z m -0.2031,-5.6875 q -1.3906,0.5625 -4.1719,0.9688 -1.5625,0.2187 -2.2187,0.5 -0.6563,0.2812 -1.0078,0.8281 -0.3516,0.5469 -0.3516,1.2188 0,1.0156 0.7734,1.6953 0.7735,0.6797 2.2578,0.6797 1.4688,0 2.6172,-0.6485 1.1485,-0.6484 1.6953,-1.7578 0.4063,-0.8594 0.4063,-2.5469 z M -105.2696,-7 v -15.0312 h 2.2813 v 2.1093 q 0.7187,-1.1093 1.8906,-1.7812 1.1719,-0.6719 2.6719,-0.6719 1.6719,0 2.7422,0.6953 1.0703,0.6953 1.5078,1.9297 1.7812,-2.625 4.6406,-2.625 2.2344,0 3.4375,1.2344 1.2031,1.2344 1.2031,3.8125 V -7 h -2.5312 v -9.4688 q 0,-1.5312 -0.2422,-2.2031 -0.2422,-0.6719 -0.8984,-1.0859 -0.6563,-0.4141 -1.5313,-0.4141 -1.5937,0 -2.6406,1.0547 -1.0469,1.0547 -1.0469,3.3828 V -7 h -2.5469 v -9.7656 q 0,-1.7032 -0.625,-2.5547 -0.625,-0.8516 -2.0312,-0.8516 -1.0781,0 -1.9922,0.5703 -0.9141,0.5704 -1.3281,1.6563 -0.4141,1.0859 -0.4141,3.1484 V -7 Z m 24.4332,-17.8281 v -2.9375 h 2.5469 v 2.9375 z m 0,17.8281 v -15.0312 h 2.5469 V -7 Z m 16.3092,-5.5156 2.5156,0.3281 q -0.4062,2.5937 -2.1016,4.0625 -1.6953,1.4688 -4.164,1.4688 -3.0781,0 -4.9531,-2.0235 -1.875,-2.0234 -1.875,-5.7891 0,-2.4218 0.8046,-4.25 0.8047,-1.8281 2.4532,-2.7421 1.6484,-0.9141 3.5859,-0.9141 2.4531,0 4.0078,1.2344 1.5547,1.2344 1.9922,3.5156 l -2.4687,0.3906 q -0.3594,-1.5156 -1.2579,-2.2812 -0.8984,-0.7656 -2.1796,-0.7656 -1.9219,0 -3.125,1.3828 -1.2032,1.3828 -1.2032,4.3672 0,3.0312 1.1641,4.4062 1.1641,1.375 3.0234,1.375 1.5,0 2.5078,-0.9219 1.0079,-0.9219 1.2735,-2.8437 z M -51.5395,-7 v -15.0312 h 2.2812 v 2.1093 q 0.7188,-1.1093 1.8907,-1.7812 1.1718,-0.6719 2.6718,-0.6719 1.6719,0 2.7422,0.6953 1.0703,0.6953 1.5078,1.9297 1.7813,-2.625 4.6407,-2.625 2.2343,0 3.4375,1.2344 1.2031,1.2344 1.2031,3.8125 V -7 h -2.5313 v -9.4688 q 0,-1.5312 -0.2422,-2.2031 -0.2421,-0.6719 -0.8984,-1.0859 -0.6562,-0.4141 -1.5312,-0.4141 -1.5938,0 -2.6407,1.0547 -1.0468,1.0547 -1.0468,3.3828 V -7 h -2.5469 v -9.7656 q 0,-1.7032 -0.625,-2.5547 -0.625,-0.8516 -2.0313,-0.8516 -1.0781,0 -1.9922,0.5703 -0.914,0.5704 -1.3281,1.6563 -0.414,1.0859 -0.414,3.1484 V -7 Z m 23.48,-7.5156 q 0,-4.1875 2.3125,-6.1875 1.9375,-1.6719 4.7344,-1.6719 3.0937,0 5.0625,2.0312 1.9687,2.0313 1.9687,5.6094 0,2.9063 -0.8671,4.5703 -0.8672,1.6641 -2.5313,2.586 -1.6641,0.9219 -3.6328,0.9219 -3.1563,0 -5.1016,-2.0235 -1.9453,-2.0234 -1.9453,-5.8359 z m 2.6094,0 q 0,2.8906 1.2656,4.3281 1.2656,1.4375 3.1719,1.4375 1.8906,0 3.1562,-1.4453 1.2657,-1.4453 1.2657,-4.4141 0,-2.7812 -1.2735,-4.2187 -1.2734,-1.4375 -3.1484,-1.4375 -1.9063,0 -3.1719,1.4297 -1.2656,1.4297 -1.2656,4.3203 z M -0.9604,-7 v -2.2031 q -1.75,2.5469 -4.7656,2.5469 -1.3281,0 -2.4844,-0.5157 -1.1562,-0.5156 -1.7187,-1.2812 -0.5625,-0.7657 -0.7813,-1.8907 -0.1562,-0.75 -0.1562,-2.375 v -9.3124 h 2.5468 v 8.3281 q 0,2 0.1563,2.7031 0.2344,1 1.0156,1.5703 0.7813,0.5703 1.9219,0.5703 1.1562,0 2.1562,-0.5859 1,-0.5859 1.4219,-1.6016 0.4219,-1.0156 0.4219,-2.9375 v -8.0468 H 1.3209 V -7 Z m 5.4272,-4.4844 2.5157,-0.4062 q 0.2187,1.5156 1.1875,2.3281 0.9687,0.8125 2.7187,0.8125 1.75,0 2.6016,-0.7188 0.8515,-0.7187 0.8515,-1.6874 0,-0.8594 -0.75,-1.3594 -0.5312,-0.3282 -2.6093,-0.8594 -2.7969,-0.7031 -3.8829,-1.2188 -1.0859,-0.5156 -1.6484,-1.4296 -0.5625,-0.9141 -0.5625,-2.0235 0,-1 0.4609,-1.8593 0.461,-0.8594 1.2579,-1.4219 0.5937,-0.4375 1.6171,-0.7422 1.0235,-0.3047 2.211,-0.3047 1.7656,0 3.1015,0.5078 1.336,0.5078 1.9766,1.3828 0.6406,0.875 0.875,2.3282 l -2.4844,0.3437 q -0.1718,-1.1719 -0.9843,-1.8203 -0.8125,-0.6484 -2.3125,-0.6484 -1.75,0 -2.5,0.5781 -0.75,0.5781 -0.75,1.3593 0,0.5 0.3125,0.8907 0.3125,0.4062 0.9687,0.6875 0.3906,0.1406 2.2656,0.6406 2.7032,0.7344 3.7657,1.1875 1.0625,0.4531 1.6718,1.3359 0.6094,0.8828 0.6094,2.1797 0,1.2813 -0.7422,2.4063 -0.7422,1.125 -2.1406,1.7422 -1.3984,0.6172 -3.1641,0.6172 -2.9375,0 -4.4765,-1.2188 -1.5391,-1.2188 -1.961,-3.6094 z m 25.9688,-0.3594 2.6406,0.3282 q -0.625,2.3125 -2.3125,3.5859 -1.6875,1.2735 -4.2969,1.2735 -3.3125,0 -5.2422,-2.0313 -1.9296,-2.0313 -1.9296,-5.7031 0,-3.7969 1.9531,-5.8906 1.9531,-2.0938 5.0625,-2.0938 3.0312,0 4.9375,2.0547 1.9062,2.0547 1.9062,5.7734 0,0.2188 -0.0156,0.6719 H 21.9356 q 0.1406,2.4844 1.3984,3.8047 1.2578,1.3203 3.1328,1.3203 1.4063,0 2.3985,-0.7422 0.9922,-0.7422 1.5703,-2.3516 z m -8.3594,-4.125 h 8.3906 q -0.1718,-1.8906 -0.9687,-2.8437 -1.2188,-1.4687 -3.1563,-1.4687 -1.75,0 -2.9453,1.1718 -1.1953,1.1719 -1.3203,3.1406 z M 44.913,-7 v -20.7656 h 7.8281 q 2.0781,0 3.1563,0.2031 1.5312,0.25 2.5703,0.9687 1.039,0.7188 1.664,2.0079 0.625,1.289 0.625,2.8359 0,2.6406 -1.6796,4.4766 -1.6797,1.8359 -6.086,1.8359 H 47.663 V -7 Z m 2.75,-10.8906 h 5.3594 q 2.6718,0 3.789,-0.9922 1.1172,-0.9922 1.1172,-2.7891 0,-1.2969 -0.6562,-2.2265 -0.6563,-0.9297 -1.7344,-1.2266 -0.7031,-0.1875 -2.5625,-0.1875 H 47.663 Z m 31.6137,3.6094 2.75,0.7031 q -0.8594,3.375 -3.1094,5.1562 -2.25,1.7813 -5.4843,1.7813 -3.3594,0 -5.461,-1.3672 -2.1015,-1.3672 -3.2031,-3.961 -1.1016,-2.5937 -1.1016,-5.5624 0,-3.25 1.2422,-5.6641 1.2422,-2.4141 3.5313,-3.6641 2.289,-1.25 5.039,-1.25 3.1094,0 5.2344,1.586 2.125,1.5859 2.9531,4.4609 l -2.7031,0.6406 q -0.7187,-2.2656 -2.0937,-3.3047 -1.375,-1.039 -3.4532,-1.039 -2.3906,0 -4,1.1484 -1.6093,1.1484 -2.2578,3.0781 -0.6484,1.9297 -0.6484,3.9922 0,2.6407 0.7656,4.6172 0.7656,1.9766 2.3984,2.9531 Q 71.308,-9 73.1986,-9 q 2.3125,0 3.914,-1.3281 1.6016,-1.3281 2.1641,-3.9531 z M 94.1953,-7 h -2.5469 v -16.2344 q -0.9219,0.875 -2.4141,1.75 -1.4922,0.875 -2.6797,1.3125 v -2.4687 q 2.1407,-1 3.7422,-2.4297 1.6016,-1.4297 2.2578,-2.7735 h 1.6407 z m 14.5399,-4.4844 2.5156,-0.4062 q 0.2187,1.5156 1.1875,2.3281 0.9687,0.8125 2.7187,0.8125 1.75,0 2.6016,-0.7188 0.8516,-0.7187 0.8516,-1.6874 0,-0.8594 -0.75,-1.3594 -0.5313,-0.3282 -2.6094,-0.8594 -2.7969,-0.7031 -3.8828,-1.2188 -1.086,-0.5156 -1.6485,-1.4296 -0.5625,-0.9141 -0.5625,-2.0235 0,-1 0.461,-1.8593 0.4609,-0.8594 1.2578,-1.4219 0.5937,-0.4375 1.6172,-0.7422 1.0234,-0.3047 2.2109,-0.3047 1.7656,0 3.1016,0.5078 1.3359,0.5078 1.9765,1.3828 0.6407,0.875 0.875,2.3282 l -2.4843,0.3437 q -0.1719,-1.1719 -0.9844,-1.8203 -0.8125,-0.6484 -2.3125,-0.6484 -1.75,0 -2.5,0.5781 -0.75,0.5781 -0.75,1.3593 0,0.5 0.3125,0.8907 0.3125,0.4062 0.9687,0.6875 0.3907,0.1406 2.2657,0.6406 2.7031,0.7344 3.7656,1.1875 1.0625,0.4531 1.6719,1.3359 0.6093,0.8828 0.6093,2.1797 0,1.2813 -0.7421,2.4063 -0.7422,1.125 -2.1407,1.7422 -1.3984,0.6172 -3.164,0.6172 -2.9375,0 -4.4766,-1.2188 -1.5391,-1.2188 -1.9609,-3.6094 z m 25.4843,-1.0312 2.5157,0.3281 q -0.4063,2.5937 -2.1016,4.0625 -1.6953,1.4688 -4.1641,1.4688 -3.0781,0 -4.9531,-2.0235 -1.875,-2.0234 -1.875,-5.7891 0,-2.4218 0.8047,-4.25 0.8047,-1.8281 2.4531,-2.7421 1.6485,-0.9141 3.586,-0.9141 2.4531,0 4.0078,1.2344 1.5547,1.2344 1.9922,3.5156 l -2.4688,0.3906 q -0.3594,-1.5156 -1.2578,-2.2812 -0.8984,-0.7656 -2.1797,-0.7656 -1.9219,0 -3.125,1.3828 -1.2031,1.3828 -1.2031,4.3672 0,3.0312 1.1641,4.4062 1.164,1.375 3.0234,1.375 1.5,0 2.5078,-0.9219 1.0078,-0.9219 1.2734,-2.8437 z m 3.9063,-2 q 0,-4.1875 2.3125,-6.1875 1.9375,-1.6719 4.7344,-1.6719 3.0937,0 5.0625,2.0312 1.9687,2.0313 1.9687,5.6094 0,2.9063 -0.8672,4.5703 -0.8672,1.6641 -2.5312,2.586 -1.6641,0.9219 -3.6328,0.9219 -3.1563,0 -5.1016,-2.0235 -1.9453,-2.0234 -1.9453,-5.8359 z m 2.6094,0 q 0,2.8906 1.2656,4.3281 1.2656,1.4375 3.1719,1.4375 1.8906,0 3.1562,-1.4453 1.2656,-1.4453 1.2656,-4.4141 0,-2.7812 -1.2734,-4.2187 -1.2734,-1.4375 -3.1484,-1.4375 -1.9063,0 -3.1719,1.4297 -1.2656,1.4297 -1.2656,4.3203 z M 155.3499,-7 v -15.0312 h 2.2812 v 2.2656 q 0.8907,-1.5938 1.6328,-2.1016 0.7422,-0.5078 1.6329,-0.5078 1.2812,0 2.6093,0.8125 l -0.875,2.375 q -0.9375,-0.5625 -1.8593,-0.5625 -0.8438,0 -1.5079,0.5078 -0.664,0.5078 -0.9453,1.3984 -0.4218,1.3594 -0.4218,2.9688 V -7 Z m 20.0738,-4.8438 2.6406,0.3282 q -0.625,2.3125 -2.3125,3.5859 -1.6875,1.2735 -4.2969,1.2735 -3.3125,0 -5.2422,-2.0313 -1.9296,-2.0313 -1.9296,-5.7031 0,-3.7969 1.9531,-5.8906 1.9531,-2.0938 5.0625,-2.0938 3.0312,0 4.9375,2.0547 1.9062,2.0547 1.9062,5.7734 0,0.2188 -0.0156,0.6719 h -11.2031 q 0.1406,2.4844 1.3984,3.8047 1.2578,1.3203 3.1328,1.3203 1.4063,0 2.3985,-0.7422 0.9922,-0.7422 1.5703,-2.3516 z m -8.3594,-4.125 h 8.3906 q -0.1718,-1.8906 -0.9687,-2.8437 -1.2188,-1.4687 -3.1563,-1.4687 -1.75,0 -2.9453,1.1718 -1.1953,1.1719 -1.3203,3.1406 z"
       id="path133" />
  </g>
  <g
     transform="translate(223.9667,573.1024)"
     style="color-interpolation:linearRGB;fill:#372365;stroke:#372365;color-rendering:optimizeQuality;image-rendering:optimizeQuality;text-rendering:geometricPrecision"
     id="g207">
    <circle
       r="5.9628"
       style="stroke:none"
       cx="0"
       cy="0"
       id="circle137" />
    <circle
       transform="translate(-58.4833,-38.9554)"
       style="fill:#455bce;stroke:none"
       r="5.9628"
       cx="0"
       cy="0"
       id="circle139" />
    <circle
       transform="translate(101.0167,-146.156)"
       style="fill:#17dac4;stroke:none"
       r="5.9628"
       cx="0"
       cy="0"
       id="circle141" />
    <circle
       transform="translate(-47.85,11.1641)"
       style="fill:#311542;stroke:none"
       r="5.9628"
       cx="0"
       cy="0"
       id="circle143" />
    <circle
       transform="translate(233.9333,-359.692)"
       style="fill:#fd9229;stroke:none"
       r="5.9628"
       cx="0"
       cy="0"
       id="circle145" />
    <circle
       transform="translate(420.0167,-417.0781)"
       style="fill:#e24209;stroke:none"
       r="5.9628"
       cx="0"
       cy="0"
       id="circle147" />
    <circle
       transform="translate(499.7667,-171.9944)"
       style="fill:#27eda3;stroke:none"
       r="5.9628"
       cx="0"
       cy="0"
       id="circle149" />
    <circle
       r="5.9628"
       style="stroke:none"
       cx="0"
       transform="translate(-21.2667,-0.0547)"
       cy="0"
       id="circle151" />
    <circle
       transform="translate(26.5833,-78.5648)"
       style="fill:#448cfd;stroke:none"
       r="5.9628"
       cx="0"
       cy="0"
       id="circle153" />
    <circle
       transform="translate(-47.85,-71.0845)"
       style="fill:#4584f9;stroke:none"
       r="5.9628"
       cx="0"
       cy="0"
       id="circle155" />
    <circle
       transform="translate(260.5167,-282.4951)"
       style="fill:#d4e735;stroke:none"
       r="5.9628"
       cx="0"
       cy="0"
       id="circle157" />
    <circle
       transform="translate(154.1833,-166.1614)"
       style="fill:#20e9ac;stroke:none"
       r="5.9628"
       cx="0"
       cy="0"
       id="circle159" />
    <circle
       transform="translate(340.2667,-210.768)"
       style="fill:#69fd65;stroke:none"
       r="5.9628"
       cx="0"
       cy="0"
       id="circle161" />
    <circle
       transform="translate(26.5833,-181.1214)"
       style="fill:#32f197;stroke:none"
       r="5.9628"
       cx="0"
       cy="0"
       id="circle163" />
    <circle
       transform="translate(15.95,-117.7751)"
       style="fill:#26bde9;stroke:none"
       r="5.9628"
       cx="0"
       cy="0"
       id="circle165" />
    <circle
       transform="translate(-5.3167,-47.8177)"
       style="fill:#4666dd;stroke:none"
       r="5.9628"
       cx="0"
       cy="0"
       id="circle167" />
    <circle
       transform="translate(207.35,-158.5591)"
       style="fill:#1ae4b6;stroke:none"
       r="5.9628"
       cx="0"
       cy="0"
       id="circle169" />
    <circle
       transform="translate(-21.2667,-47.4421)"
       style="fill:#4666dd;stroke:none"
       r="5.9628"
       cx="0"
       cy="0"
       id="circle171" />
    <circle
       transform="translate(116.9667,-308.9223)"
       style="fill:#edcf39;stroke:none"
       r="5.9628"
       cx="0"
       cy="0"
       id="circle173" />
    <circle
       transform="translate(-37.2167,-79.7537)"
       style="fill:#438efd;stroke:none"
       r="5.9628"
       cx="0"
       cy="0"
       id="circle175" />
    <circle
       transform="translate(-42.5333,13.9775)"
       style="fill:#30123b;stroke:none"
       r="5.9628"
       cx="0"
       cy="0"
       id="circle177" />
    <circle
       transform="translate(180.7667,-346.928)"
       style="fill:#fda330;stroke:none"
       r="5.9628"
       cx="0"
       cy="0"
       id="circle179" />
    <circle
       transform="translate(127.6,-166.1935)"
       style="fill:#20e9ac;stroke:none"
       r="5.9628"
       cx="0"
       cy="0"
       id="circle181" />
    <circle
       transform="translate(356.2167,-435.901)"
       style="fill:#d23005;stroke:none"
       r="5.9628"
       cx="0"
       cy="0"
       id="circle183" />
    <circle
       transform="translate(308.3667,-501.3473)"
       style="fill:#7a0402;stroke:none"
       r="5.9628"
       cx="0"
       cy="0"
       id="circle185" />
    <circle
       transform="translate(69.1167,-311.1399)"
       style="fill:#efcd39;stroke:none"
       r="5.9628"
       cx="0"
       cy="0"
       id="circle187" />
    <circle
       transform="translate(85.0667,-194.6484)"
       style="fill:#4af880;stroke:none"
       r="5.9628"
       cx="0"
       cy="0"
       id="circle189" />
    <circle
       transform="translate(223.3,-406.2632)"
       style="fill:#ea500d;stroke:none"
       r="5.9628"
       cx="0"
       cy="0"
       id="circle191" />
    <circle
       transform="translate(303.05,-131.8845)"
       style="fill:#1ccdd7;stroke:none"
       r="5.9628"
       cx="0"
       cy="0"
       id="circle193" />
    <circle
       transform="translate(414.7,-77.0975)"
       style="fill:#448cfd;stroke:none"
       r="5.9628"
       cx="0"
       cy="0"
       id="circle195" />
    <circle
       transform="translate(435.9667,-207.1202)"
       style="fill:#61fc6c;stroke:none"
       r="5.9628"
       cx="0"
       cy="0"
       id="circle197" />
    <circle
       transform="translate(425.3333,-190.0248)"
       style="fill:#42f687;stroke:none"
       r="5.9628"
       cx="0"
       cy="0"
       id="circle199" />
    <circle
       transform="translate(356.2167,-197.6356)"
       style="fill:#51f979;stroke:none"
       r="5.9628"
       cx="0"
       cy="0"
       id="circle201" />
    <circle
       transform="translate(63.8,-93.5134)"
       style="fill:#3ba0fc;stroke:none"
       r="5.9628"
       cx="0"
       cy="0"
       id="circle203" />
    <circle
       transform="translate(106.3333,-57.7559)"
       style="fill:#4673eb;stroke:none"
       r="5.9628"
       cx="0"
       cy="0"
       id="circle205" />
  </g>
  <g
     transform="translate(235.02428,560.26458)"
     style="font-size:16px;color-interpolation:linearRGB;color-rendering:optimizeQuality;image-rendering:optimizeQuality;text-rendering:geometricPrecision"
     id="g211">
    <path
       style="stroke:none"
       d="M -9.2656,6.5 V -4.9531 h 4.3281 q 1.1406,0 1.7344,0.1093 0.8437,0.1407 1.414,0.5313 0.5703,0.3906 0.9219,1.1016 0.3516,0.7109 0.3516,1.5703 0,1.4531 -0.9297,2.4687 -0.9297,1.0157 -3.3672,1.0157 H -7.75 V 6.5 Z M -7.75,0.4844 h 2.9688 q 1.4687,0 2.0859,-0.5469 0.6172,-0.5469 0.6172,-1.5313 0,-0.7187 -0.3672,-1.2343 Q -2.8125,-3.3438 -3.4062,-3.5 -3.7812,-3.6094 -4.8125,-3.6094 H -7.75 Z M 4.3281,6.5 V -3.6094 H 0.5469 V -4.9531 H 9.625 v 1.3437 H 5.8438 V 6.5 Z"
       id="path209" />
  </g>
  <g
     transform="translate(165.4833,520.322)"
     style="font-size:16px;color-interpolation:linearRGB;color-rendering:optimizeQuality;image-rendering:optimizeQuality;text-rendering:geometricPrecision"
     id="g215">
    <path
       style="stroke:none"
       d="M -13.5,6.5 V -4.9531 h 1.5156 V 6.5 Z m 4.1328,0 V -4.9531 h 2.2813 l 2.7187,8.1093 q 0.375,1.125 0.5469,1.6876 0.1875,-0.625 0.6094,-1.8282 l 2.7343,-7.9687 H 1.5703 V 6.5 H 0.1016 V -3.0938 L -3.2266,6.5 H -4.5859 L -7.8984,-3.25 V 6.5 Z m 13.375,0 V -4.9531 h 3.9531 q 1.3282,0 2.0313,0.1562 0.9844,0.2344 1.6875,0.8281 0.9062,0.7657 1.3515,1.9532 0.4454,1.1875 0.4454,2.7187 0,1.3125 -0.3047,2.3203 -0.3047,1.0078 -0.7813,1.6641 -0.4765,0.6563 -1.039,1.0391 Q 10.7891,6.1094 9.9844,6.3047 9.1797,6.5 8.1484,6.5 Z M 5.5234,5.1406 h 2.4532 q 1.125,0 1.7734,-0.2109 0.6484,-0.2109 1.0234,-0.5859 0.5469,-0.5469 0.8438,-1.4532 0.2969,-0.9062 0.2969,-2.2031 0,-1.7969 -0.586,-2.7656 Q 10.7422,-3.0469 9.8984,-3.375 9.2891,-3.6094 7.9297,-3.6094 H 5.5234 Z"
       id="path213" />
  </g>
  <g
     transform="translate(324.9833,413.1213)"
     style="font-size:16px;color-interpolation:linearRGB;color-rendering:optimizeQuality;image-rendering:optimizeQuality;text-rendering:geometricPrecision"
     id="g219">
    <path
       style="stroke:none"
       d="M -11.5312,6.5 -7.125,-4.9531 h 1.6406 L -0.7969,6.5 H -2.5312 L -3.8594,3.0312 H -8.6562 L -9.9062,6.5 Z m 3.3124,-4.7031 h 3.8907 L -5.5312,-1.375 q -0.5469,-1.4531 -0.8126,-2.375 -0.2187,1.0938 -0.6093,2.1875 z M 0.4062,6.5 V -4.9531 h 3.9532 q 1.3281,0 2.0312,0.1562 0.9844,0.2344 1.6875,0.8281 0.9063,0.7657 1.3516,1.9532 0.4453,1.1875 0.4453,2.7187 0,1.3125 -0.3047,2.3203 Q 9.2656,4.0312 8.7891,4.6875 8.3125,5.3438 7.75,5.7266 7.1875,6.1094 6.3828,6.3047 5.5781,6.5 4.5469,6.5 Z M 1.9219,5.1406 H 4.375 Q 5.5,5.1406 6.1484,4.9297 6.7969,4.7188 7.1719,4.3438 7.7188,3.7969 8.0156,2.8906 8.3125,1.9844 8.3125,0.6875 8.3125,-1.1094 7.7266,-2.0781 7.1406,-3.0469 6.2969,-3.375 5.6875,-3.6094 4.3281,-3.6094 H 1.9219 Z"
       id="path217" />
  </g>
  <g
     transform="translate(162.09727,571.23133)"
     style="font-size:16px;color-interpolation:linearRGB;color-rendering:optimizeQuality;image-rendering:optimizeQuality;text-rendering:geometricPrecision"
     id="g223">
    <path
       style="stroke:none"
       d="M -14.7656,6.5 V -4.9531 h 4.3281 q 1.1406,0 1.7344,0.1093 0.8437,0.1407 1.414,0.5313 0.5703,0.3906 0.9219,1.1016 0.3516,0.7109 0.3516,1.5703 0,1.4531 -0.9297,2.4687 -0.9297,1.0157 -3.3672,1.0157 H -13.25 V 6.5 Z M -13.25,0.4844 h 2.9688 q 1.4687,0 2.0859,-0.5469 0.6172,-0.5469 0.6172,-1.5313 0,-0.7187 -0.3672,-1.2343 -0.3672,-0.5157 -0.9609,-0.6719 -0.375,-0.1094 -1.4063,-0.1094 H -13.25 Z M -0.8125,6.5 -5.25,-4.9531 h 1.6406 l 2.9688,8.3125 q 0.3594,1 0.6094,1.875 0.2656,-0.9375 0.6093,-1.875 L 3.6719,-4.9531 H 5.2188 L 0.7344,6.5 Z M 9.5,6.5 V -3.6094 H 5.7188 v -1.3437 h 9.0781 v 1.3437 H 11.0156 V 6.5 Z"
       id="path221" />
  </g>
  <g
     transform="translate(457.9,199.5854)"
     style="font-size:16px;color-interpolation:linearRGB;color-rendering:optimizeQuality;image-rendering:optimizeQuality;text-rendering:geometricPrecision"
     id="g227">
    <path
       style="stroke:none"
       d="M -9.3281,6.5 V -4.9531 h 1.5156 V 5.1406 h 5.6406 V 6.5 Z m 8.9609,0 V -4.9531 h 3.9531 q 1.3282,0 2.0313,0.1562 0.9844,0.2344 1.6875,0.8281 0.9062,0.7657 1.3515,1.9532 0.4454,1.1875 0.4454,2.7187 0,1.3125 -0.3047,2.3203 Q 8.4922,4.0312 8.0156,4.6875 7.5391,5.3438 6.9766,5.7266 6.4141,6.1094 5.6094,6.3047 4.8047,6.5 3.7734,6.5 Z M 1.1484,5.1406 h 2.4532 q 1.125,0 1.7734,-0.2109 Q 6.0234,4.7188 6.3984,4.3438 6.9453,3.7969 7.2422,2.8906 7.5391,1.9844 7.5391,0.6875 q 0,-1.7969 -0.586,-2.7656 Q 6.3672,-3.0469 5.5234,-3.375 4.9141,-3.6094 3.5547,-3.6094 H 1.1484 Z"
       id="path225" />
  </g>
  <g
     transform="translate(643.9833,142.1993)"
     style="font-size:16px;color-interpolation:linearRGB;color-rendering:optimizeQuality;image-rendering:optimizeQuality;text-rendering:geometricPrecision"
     id="g231">
    <path
       style="stroke:none"
       d="M -14.3281,6.5 V -4.9531 h 1.5156 V 5.1406 h 5.6406 V 6.5 Z M -0.0078,2 V 0.6562 h 4.8594 v 4.25 Q 3.7266,5.7969 2.5391,6.25 1.3516,6.7031 0.1016,6.7031 -1.5859,6.7031 -2.9609,5.9766 -4.3359,5.25 -5.0391,3.8828 -5.7422,2.5156 -5.7422,0.8281 q 0,-1.6719 0.6953,-3.125 0.6953,-1.4531 2.0078,-2.1562 1.3125,-0.7031 3.0313,-0.7031 1.2344,0 2.2422,0.4062 1.0078,0.4062 1.5781,1.125 0.5703,0.7188 0.8672,1.875 l -1.375,0.375 Q 3.0547,-2.25 2.6719,-2.75 2.2891,-3.25 1.5781,-3.5547 0.8672,-3.8594 -0.0078,-3.8594 q -1.0313,0 -1.7891,0.3203 -0.7578,0.3203 -1.2265,0.836 -0.4688,0.5156 -0.7188,1.125 -0.4375,1.0625 -0.4375,2.3125 0,1.5312 0.5235,2.5625 0.5234,1.0312 1.5312,1.5312 1.0078,0.5 2.1484,0.5 0.9844,0 1.9219,-0.3828 Q 2.8828,4.5625 3.3672,4.1406 V 2 Z m 12.289,4.5 V 5.4531 Q 11.5,6.6875 9.9688,6.6875 q -1,0 -1.8282,-0.5469 -0.8281,-0.5468 -1.289,-1.5312 -0.461,-0.9844 -0.461,-2.25 0,-1.25 0.4141,-2.2578 0.4141,-1.0078 1.2422,-1.5469 0.8281,-0.5391 1.8593,-0.5391 0.75,0 1.336,0.3125 0.5859,0.3125 0.9453,0.8281 v -4.1093 h 1.4063 V 6.5 Z M 7.8438,2.3594 q 0,1.5937 0.6718,2.3828 0.6719,0.789 1.5782,0.789 0.9218,0 1.5703,-0.7578 0.6484,-0.7578 0.6484,-2.3046 0,-1.7032 -0.6563,-2.5 -0.6562,-0.7969 -1.625,-0.7969 -0.9374,0 -1.5624,0.7656 -0.625,0.7656 -0.625,2.4219 z"
       id="path229" />
  </g>
  <g
     transform="translate(723.7333,387.283)"
     style="font-size:16px;color-interpolation:linearRGB;color-rendering:optimizeQuality;image-rendering:optimizeQuality;text-rendering:geometricPrecision"
     id="g235">
    <path
       style="stroke:none"
       d="M -13.8281,6.5 V -4.9531 h 1.5156 V 5.1406 h 5.6406 V 6.5 Z M 0.4922,2 V 0.6562 h 4.8594 v 4.25 Q 4.2266,5.7969 3.0391,6.25 1.8516,6.7031 0.6016,6.7031 -1.0859,6.7031 -2.4609,5.9766 -3.8359,5.25 -4.5391,3.8828 -5.2422,2.5156 -5.2422,0.8281 q 0,-1.6719 0.6953,-3.125 0.6953,-1.4531 2.0078,-2.1562 1.3125,-0.7031 3.0313,-0.7031 1.2344,0 2.2422,0.4062 1.0078,0.4062 1.5781,1.125 0.5703,0.7188 0.8672,1.875 l -1.375,0.375 Q 3.5547,-2.25 3.1719,-2.75 2.7891,-3.25 2.0781,-3.5547 1.3672,-3.8594 0.4922,-3.8594 q -1.0313,0 -1.7891,0.3203 -0.7578,0.3203 -1.2265,0.836 -0.4688,0.5156 -0.7188,1.125 -0.4375,1.0625 -0.4375,2.3125 0,1.5312 0.5235,2.5625 0.5234,1.0312 1.5312,1.5312 1.0078,0.5 2.1484,0.5 0.9844,0 1.9219,-0.3828 Q 3.3828,4.5625 3.8672,4.1406 V 2 Z M 9.7031,6.5 6.5469,-1.7969 h 1.4843 l 1.7813,4.9688 q 0.2969,0.7969 0.5313,1.6719 0.1874,-0.6563 0.5312,-1.5782 l 1.8438,-5.0625 h 1.4374 L 11.0156,6.5 Z"
       id="path233" />
  </g>
  <g
     transform="translate(202.7,559.2226)"
     style="font-size:16px;color-interpolation:linearRGB;color-rendering:optimizeQuality;image-rendering:optimizeQuality;text-rendering:geometricPrecision"
     id="g239">
    <path
       style="stroke:none"
       d="M -10.2344,6.5 V -4.9531 h 5.0782 q 1.5312,0 2.3281,0.3047 0.7969,0.3046 1.2734,1.0859 0.4766,0.7813 0.4766,1.7344 0,1.2187 -0.7891,2.0547 -0.789,0.8359 -2.4453,1.0546 0.6094,0.2969 0.9219,0.5782 0.6562,0.6094 1.25,1.5156 l 2,3.125 H -2.0469 L -3.5625,4.1094 Q -4.2344,3.0781 -4.6641,2.5312 -5.0938,1.9844 -5.4297,1.7656 -5.7656,1.5469 -6.125,1.4688 -6.375,1.4062 -6.9688,1.4062 h -1.75 V 6.5 Z m 1.5156,-6.4062 h 3.25 q 1.0469,0 1.6329,-0.211 0.5859,-0.2109 0.8906,-0.6875 0.3047,-0.4765 0.3047,-1.0234 0,-0.8125 -0.5938,-1.336 -0.5937,-0.5234 -1.8594,-0.5234 h -3.625 z M 1.3203,6.5 V -4.9531 h 8.2813 v 1.3437 H 2.8359 v 3.5156 H 9.1797 V 1.25 H 2.8359 V 5.1406 H 9.8672 V 6.5 Z"
       id="path237" />
  </g>
  <g
     transform="translate(250.55,480.7126)"
     style="font-size:16px;color-interpolation:linearRGB;color-rendering:optimizeQuality;image-rendering:optimizeQuality;text-rendering:geometricPrecision"
     id="g243">
    <path
       style="stroke:none"
       d="M -9.3281,6.5 V -4.9531 h 1.5156 V 5.1406 h 5.6406 V 6.5 Z m 9.0078,0 V -4.9531 H 1.1953 V -0.25 H 7.1484 V -4.9531 H 8.6641 V 6.5 H 7.1484 V 1.0938 H 1.1953 V 6.5 Z"
       id="path241" />
  </g>
  <g
     transform="translate(161.10998,489.77246)"
     style="font-size:16px;color-interpolation:linearRGB;color-rendering:optimizeQuality;image-rendering:optimizeQuality;text-rendering:geometricPrecision"
     id="g247">
    <path
       style="stroke:none"
       d="M -10.7344,6.5 V -4.9531 h 5.0782 q 1.5312,0 2.3281,0.3047 0.7969,0.3046 1.2734,1.0859 0.4766,0.7813 0.4766,1.7344 0,1.2187 -0.7891,2.0547 -0.789,0.8359 -2.4453,1.0546 0.6094,0.2969 0.9219,0.5782 0.6562,0.6094 1.25,1.5156 l 2,3.125 H -2.5469 L -4.0625,4.1094 Q -4.7344,3.0781 -5.1641,2.5312 -5.5938,1.9844 -5.9297,1.7656 -6.2656,1.5469 -6.625,1.4688 -6.875,1.4062 -7.4688,1.4062 h -1.75 V 6.5 Z m 1.5156,-6.4062 h 3.25 q 1.0469,0 1.6329,-0.211 0.5859,-0.2109 0.8906,-0.6875 0.3047,-0.4765 0.3047,-1.0234 0,-0.8125 -0.5938,-1.336 -0.5937,-0.5234 -1.8594,-0.5234 h -3.625 z M 0.8359,6.5 V -4.9531 H 2.3516 V -0.25 H 8.3047 V -4.9531 H 9.8203 V 6.5 H 8.3047 V 1.0938 H 2.3516 V 6.5 Z"
       id="path245" />
  </g>
  <g
     transform="translate(484.4833,276.7822)"
     style="font-size:16px;color-interpolation:linearRGB;color-rendering:optimizeQuality;image-rendering:optimizeQuality;text-rendering:geometricPrecision"
     id="g251">
    <path
       style="stroke:none"
       d="M -8.8281,6.5 V -4.9531 h 1.5156 V 5.1406 h 5.6406 V 6.5 Z m 8.9609,0 V -4.9531 h 4.3281 q 1.1407,0 1.7344,0.1093 0.8438,0.1407 1.4141,0.5313 0.5703,0.3906 0.9218,1.1016 0.3516,0.7109 0.3516,1.5703 0,1.4531 -0.9297,2.4687 Q 7.0234,1.8438 4.5859,1.8438 H 1.6484 V 6.5 Z M 1.6484,0.4844 h 2.9688 q 1.4687,0 2.0859,-0.5469 0.6172,-0.5469 0.6172,-1.5313 0,-0.7187 -0.3672,-1.2343 Q 6.5859,-3.3438 5.9922,-3.5 5.6172,-3.6094 4.5859,-3.6094 H 1.6484 Z"
       id="path249" />
  </g>
  <g
     transform="translate(386.15,393.1159)"
     style="font-size:16px;color-interpolation:linearRGB;color-rendering:optimizeQuality;image-rendering:optimizeQuality;text-rendering:geometricPrecision"
     id="g255">
    <path
       style="stroke:none"
       d="M -11.0312,6.5 -6.625,-4.9531 h 1.6406 L -0.2969,6.5 H -2.0312 L -3.3594,3.0312 H -8.1562 L -9.4062,6.5 Z m 3.3124,-4.7031 h 3.8907 L -5.0312,-1.375 q -0.5469,-1.4531 -0.8126,-2.375 -0.2187,1.0938 -0.6093,2.1875 z M 4.1875,6.5 -0.25,-4.9531 h 1.6406 l 2.9688,8.3125 q 0.3594,1 0.6094,1.875 0.2656,-0.9375 0.6093,-1.875 l 3.0938,-8.3125 h 1.5469 L 5.7344,6.5 Z"
       id="path253" />
  </g>
  <g
     transform="translate(564.2333,348.5093)"
     style="font-size:16px;color-interpolation:linearRGB;color-rendering:optimizeQuality;image-rendering:optimizeQuality;text-rendering:geometricPrecision"
     id="g259">
    <path
       style="stroke:none"
       d="M -9.7344,6.5 V -4.9531 h 5.0782 q 1.5312,0 2.3281,0.3047 0.7969,0.3046 1.2734,1.0859 0.4766,0.7813 0.4766,1.7344 0,1.2187 -0.7891,2.0547 -0.789,0.8359 -2.4453,1.0546 0.6094,0.2969 0.9219,0.5782 0.6562,0.6094 1.25,1.5156 l 2,3.125 H -1.5469 L -3.0625,4.1094 Q -3.7344,3.0781 -4.1641,2.5312 -4.5938,1.9844 -4.9297,1.7656 -5.2656,1.5469 -5.625,1.4688 -5.875,1.4062 -6.4688,1.4062 h -1.75 V 6.5 Z m 1.5156,-6.4062 h 3.25 q 1.0469,0 1.6329,-0.211 0.5859,-0.2109 0.8906,-0.6875 0.3047,-0.4765 0.3047,-1.0234 0,-0.8125 -0.5938,-1.336 -0.5937,-0.5234 -1.8594,-0.5234 h -3.625 z M 4.7109,6.5 V -3.6094 H 0.9297 v -1.3437 h 9.0781 v 1.3437 H 6.2266 V 6.5 Z"
       id="path257" />
  </g>
  <g
     transform="translate(250.55,378.1559)"
     style="font-size:16px;color-interpolation:linearRGB;color-rendering:optimizeQuality;image-rendering:optimizeQuality;text-rendering:geometricPrecision"
     id="g263">
    <path
       style="stroke:none"
       d="M -11.3125,6.5 V -4.9531 h 2.2813 l 2.7187,8.1093 q 0.375,1.125 0.5469,1.6876 0.1875,-0.625 0.6094,-1.8282 l 2.7343,-7.9687 H -0.375 V 6.5 H -1.8438 V -3.0938 L -5.1719,6.5 H -6.5312 L -9.8438,-3.25 V 6.5 Z m 13.375,0 V -4.9531 h 3.9531 q 1.3282,0 2.0313,0.1562 0.9843,0.2344 1.6875,0.8281 0.9062,0.7657 1.3515,1.9532 0.4453,1.1875 0.4453,2.7187 0,1.3125 -0.3046,2.3203 Q 10.9219,4.0312 10.4453,4.6875 9.9688,5.3438 9.4062,5.7266 8.8438,6.1094 8.0391,6.3047 7.2344,6.5 6.2031,6.5 Z M 3.5781,5.1406 h 2.4531 q 1.125,0 1.7735,-0.2109 Q 8.4531,4.7188 8.8281,4.3438 9.375,3.7969 9.6719,2.8906 9.9688,1.9844 9.9688,0.6875 q 0,-1.7969 -0.586,-2.7656 Q 8.7969,-3.0469 7.9531,-3.375 7.3438,-3.6094 5.9844,-3.6094 H 3.5781 Z"
       id="path261" />
  </g>
  <g
     transform="translate(239.9167,441.5022)"
     style="font-size:16px;color-interpolation:linearRGB;color-rendering:optimizeQuality;image-rendering:optimizeQuality;text-rendering:geometricPrecision"
     id="g267">
    <path
       style="stroke:none"
       d="m -16.2812,2.8125 1.4374,-0.125 q 0.0938,0.8594 0.4688,1.4141 0.375,0.5546 1.1562,0.8906 0.7813,0.3359 1.75,0.3359 0.875,0 1.5391,-0.2578 0.6641,-0.2578 0.9844,-0.7031 0.3203,-0.4453 0.3203,-0.9766 0,-0.5468 -0.3125,-0.9453 Q -9.25,2.0469 -9.9688,1.7656 -10.4219,1.5938 -12,1.2109 -13.5781,0.8281 -14.2188,0.5 -15.0312,0.0625 -15.4375,-0.5703 -15.8438,-1.2031 -15.8438,-2 q 0,-0.8594 0.4922,-1.6172 0.4922,-0.7578 1.4375,-1.1484 0.9453,-0.3906 2.1016,-0.3906 1.2813,0 2.25,0.414 0.9687,0.4141 1.4922,1.211 0.5234,0.7968 0.5703,1.7968 l -1.4531,0.1094 q -0.125,-1.0781 -0.7969,-1.6328 -0.6719,-0.5547 -2,-0.5547 -1.375,0 -2,0.5 -0.625,0.5 -0.625,1.2187 0,0.6094 0.4375,1.0157 0.4375,0.3906 2.2891,0.8125 1.8515,0.4218 2.539,0.7344 1,0.4531 1.4766,1.164 0.4766,0.711 0.4766,1.6328 0,0.9063 -0.5235,1.7188 -0.5234,0.8125 -1.5078,1.2656 -0.9844,0.4531 -2.2031,0.4531 -1.5625,0 -2.6094,-0.4609 Q -15.0469,5.7812 -15.6484,4.875 -16.25,3.9688 -16.2812,2.8125 Z M -5.1406,6.5 V -4.9531 h 2.2812 l 2.7188,8.1093 q 0.375,1.125 0.5468,1.6876 0.1876,-0.625 0.6094,-1.8282 L 3.75,-4.9531 H 5.7969 V 6.5 H 4.3281 V -3.0938 L 1,6.5 H -0.3594 L -3.6719,-3.25 V 6.5 Z m 16.2968,0 V -3.6094 H 7.375 v -1.3437 h 9.0781 v 1.3437 H 12.6719 V 6.5 Z"
       id="path265" />
  </g>
  <g
     transform="translate(247.47869,531.20528)"
     style="font-size:16px;color-interpolation:linearRGB;color-rendering:optimizeQuality;image-rendering:optimizeQuality;text-rendering:geometricPrecision"
     id="g271">
    <path
       style="stroke:none"
       d="m -21.7812,2.8125 1.4374,-0.125 q 0.0938,0.8594 0.4688,1.4141 0.375,0.5546 1.1562,0.8906 0.7813,0.3359 1.75,0.3359 0.875,0 1.5391,-0.2578 0.6641,-0.2578 0.9844,-0.7031 0.3203,-0.4453 0.3203,-0.9766 0,-0.5468 -0.3125,-0.9453 Q -14.75,2.0469 -15.4688,1.7656 -15.9219,1.5938 -17.5,1.2109 -19.0781,0.8281 -19.7188,0.5 -20.5312,0.0625 -20.9375,-0.5703 -21.3438,-1.2031 -21.3438,-2 q 0,-0.8594 0.4922,-1.6172 0.4922,-0.7578 1.4375,-1.1484 0.9453,-0.3906 2.1016,-0.3906 1.2813,0 2.25,0.414 0.9687,0.4141 1.4922,1.211 0.5234,0.7968 0.5703,1.7968 l -1.4531,0.1094 q -0.125,-1.0781 -0.7969,-1.6328 -0.6719,-0.5547 -2,-0.5547 -1.375,0 -2,0.5 -0.625,0.5 -0.625,1.2187 0,0.6094 0.4375,1.0157 0.4375,0.3906 2.2891,0.8125 1.8515,0.4218 2.539,0.7344 1,0.4531 1.4766,1.164 0.4766,0.711 0.4766,1.6328 0,0.9063 -0.5235,1.7188 -0.5234,0.8125 -1.5078,1.2656 -0.9844,0.4531 -2.2031,0.4531 -1.5625,0 -2.6094,-0.4609 Q -20.5469,5.7812 -21.1484,4.875 -21.75,3.9688 -21.7812,2.8125 Z M -10.5938,6.5 V -4.9531 h 4.3282 q 1.1406,0 1.7344,0.1093 0.8437,0.1407 1.414,0.5313 0.5703,0.3906 0.9219,1.1016 0.3515,0.7109 0.3515,1.5703 0,1.4531 -0.9296,2.4687 -0.9297,1.0157 -3.3672,1.0157 H -9.0781 V 6.5 Z m 1.5157,-6.0156 h 2.9687 q 1.4688,0 2.086,-0.5469 0.6172,-0.5469 0.6172,-1.5313 0,-0.7187 -0.3672,-1.2343 -0.3672,-0.5157 -0.961,-0.6719 -0.375,-0.1094 -1.4062,-0.1094 H -9.0781 Z M 0.1562,6.5 V -4.9531 h 7.7344 v 1.3437 H 1.6719 v 3.5469 h 5.375 V 1.2969 H 1.6719 V 6.5 Z m 9.5235,0 v -8.2969 h 1.25 v 1.1563 q 0.3906,-0.6094 1.0391,-0.9766 0.6484,-0.3672 1.4765,-0.3672 0.9219,0 1.5156,0.3828 0.5938,0.3828 0.8282,1.0704 0.9843,-1.4532 2.5625,-1.4532 1.2343,0 1.8984,0.6797 0.6641,0.6797 0.6641,2.1016 V 6.5 H 19.5234 V 1.2656 q 0,-0.8437 -0.1406,-1.2109 -0.1406,-0.3672 -0.5,-0.5938 -0.3594,-0.2265 -0.8437,-0.2265 -0.875,0 -1.4532,0.5781 -0.5781,0.5781 -0.5781,1.8594 V 6.5 H 14.6016 V 1.1094 q 0,-0.9375 -0.3438,-1.4063 -0.3437,-0.4687 -1.125,-0.4687 -0.5937,0 -1.0937,0.3125 -0.5,0.3125 -0.7266,0.914 -0.2266,0.6016 -0.2266,1.7266 V 6.5 Z"
       id="path269" />
  </g>
  <g
     transform="translate(431.3167,400.7183)"
     style="font-size:16px;color-interpolation:linearRGB;color-rendering:optimizeQuality;image-rendering:optimizeQuality;text-rendering:geometricPrecision"
     id="g275">
    <path
       style="stroke:none"
       d="m -19.7812,2.8125 1.4374,-0.125 q 0.0938,0.8594 0.4688,1.4141 0.375,0.5546 1.1562,0.8906 0.7813,0.3359 1.75,0.3359 0.875,0 1.5391,-0.2578 0.6641,-0.2578 0.9844,-0.7031 0.3203,-0.4453 0.3203,-0.9766 0,-0.5468 -0.3125,-0.9453 Q -12.75,2.0469 -13.4688,1.7656 -13.9219,1.5938 -15.5,1.2109 -17.0781,0.8281 -17.7188,0.5 -18.5312,0.0625 -18.9375,-0.5703 -19.3438,-1.2031 -19.3438,-2 q 0,-0.8594 0.4922,-1.6172 0.4922,-0.7578 1.4375,-1.1484 0.9453,-0.3906 2.1016,-0.3906 1.2813,0 2.25,0.414 0.9687,0.4141 1.4922,1.211 0.5234,0.7968 0.5703,1.7968 l -1.4531,0.1094 q -0.125,-1.0781 -0.7969,-1.6328 -0.6719,-0.5547 -2,-0.5547 -1.375,0 -2,0.5 -0.625,0.5 -0.625,1.2187 0,0.6094 0.4375,1.0157 0.4375,0.3906 2.2891,0.8125 1.8515,0.4218 2.539,0.7344 1,0.4531 1.4766,1.164 0.4766,0.711 0.4766,1.6328 0,0.9063 -0.5235,1.7188 -0.5234,0.8125 -1.5078,1.2656 -0.9844,0.4531 -2.2031,0.4531 -1.5625,0 -2.6094,-0.4609 Q -18.5469,5.7812 -19.1484,4.875 -19.75,3.9688 -19.7812,2.8125 Z M -8.5938,6.5 V -4.9531 h 4.3282 q 1.1406,0 1.7344,0.1093 0.8437,0.1407 1.414,0.5313 0.5703,0.3906 0.9219,1.1016 0.3515,0.7109 0.3515,1.5703 0,1.4531 -0.9296,2.4687 -0.9297,1.0157 -3.3672,1.0157 H -7.0781 V 6.5 Z m 1.5157,-6.0156 h 2.9687 q 1.4688,0 2.086,-0.5469 0.6172,-0.5469 0.6172,-1.5313 0,-0.7187 -0.3672,-1.2343 -0.3672,-0.5157 -0.961,-0.6719 -0.375,-0.1094 -1.4062,-0.1094 H -7.0781 Z M 2.1562,6.5 V -4.9531 h 7.7344 v 1.3437 H 3.6719 v 3.5469 h 5.375 V 1.2969 H 3.6719 V 6.5 Z m 9.5235,3.1875 V -1.7969 h 1.2812 v 1.0781 q 0.4532,-0.6406 1.0235,-0.9531 0.5703,-0.3125 1.3828,-0.3125 1.0625,0 1.875,0.5469 0.8125,0.5469 1.2266,1.5391 0.414,0.9922 0.414,2.1796 0,1.2813 -0.4609,2.2969 -0.461,1.0157 -1.3281,1.5625 -0.8672,0.5469 -1.836,0.5469 -0.7031,0 -1.2578,-0.2969 -0.5547,-0.2968 -0.9141,-0.75 v 4.0469 z m 1.2656,-7.2969 q 0,1.6094 0.6485,2.375 0.6484,0.7656 1.5703,0.7656 0.9375,0 1.6093,-0.7968 0.6719,-0.7969 0.6719,-2.4532 0,-1.5937 -0.6562,-2.3828 -0.6563,-0.789 -1.5625,-0.789 -0.8907,0 -1.586,0.8437 -0.6953,0.8438 -0.6953,2.4375 z"
       id="path273" />
  </g>
  <g
     transform="translate(202.7,511.8353)"
     style="font-size:16px;color-interpolation:linearRGB;color-rendering:optimizeQuality;image-rendering:optimizeQuality;text-rendering:geometricPrecision"
     id="g279">
    <path
       style="stroke:none"
       d="M -11.3125,6.5 V -4.9531 h 2.2813 l 2.7187,8.1093 q 0.375,1.125 0.5469,1.6876 0.1875,-0.625 0.6094,-1.8282 l 2.7343,-7.9687 H -0.375 V 6.5 H -1.8438 V -3.0938 L -5.1719,6.5 H -6.5312 L -9.8438,-3.25 V 6.5 Z m 13.4219,0 V -4.9531 H 3.625 V -0.25 h 5.9531 v -4.7031 h 1.5157 V 6.5 H 9.5781 V 1.0938 H 3.625 V 6.5 Z"
       id="path277" />
  </g>
  <g
     transform="translate(340.9333,250.3551)"
     style="font-size:16px;color-interpolation:linearRGB;color-rendering:optimizeQuality;image-rendering:optimizeQuality;text-rendering:geometricPrecision"
     id="g283">
    <path
       style="stroke:none"
       d="m -1.0938,2.4844 1.5157,0.375 q -0.4688,1.875 -1.711,2.8594 -1.2421,0.9843 -3.0234,0.9843 -1.8594,0 -3.0156,-0.7578 -1.1563,-0.7578 -1.7657,-2.1875 -0.6093,-1.4297 -0.6093,-3.0703 0,-1.7969 0.6875,-3.125 0.6875,-1.3281 1.9453,-2.0234 1.2578,-0.6953 2.7734,-0.6953 1.7188,0 2.8907,0.875 1.1718,0.875 1.6406,2.4687 l -1.5,0.3437 q -0.3906,-1.25 -1.1485,-1.8203 -0.7578,-0.5703 -1.914,-0.5703 -1.3125,0 -2.2031,0.6328 -0.8907,0.6328 -1.25,1.7032 -0.3594,1.0703 -0.3594,2.1953 0,1.4687 0.4297,2.5547 0.4297,1.0859 1.3281,1.625 0.8984,0.539 1.9453,0.539 1.2656,0 2.1484,-0.7344 0.8829,-0.7343 1.1953,-2.1718 z M 2.2266,6.5 V -4.9531 H 3.7422 V 5.1406 H 9.3828 V 6.5 Z"
       id="path281" />
  </g>
  <g
     transform="translate(189.0308,479.96547)"
     style="font-size:16px;color-interpolation:linearRGB;color-rendering:optimizeQuality;image-rendering:optimizeQuality;text-rendering:geometricPrecision"
     id="g287">
    <path
       style="stroke:none"
       d="m -3.0938,2.4844 1.5157,0.375 q -0.4688,1.875 -1.711,2.8594 -1.2421,0.9843 -3.0234,0.9843 -1.8594,0 -3.0156,-0.7578 -1.1563,-0.7578 -1.7657,-2.1875 -0.6093,-1.4297 -0.6093,-3.0703 0,-1.7969 0.6875,-3.125 0.6875,-1.3281 1.9453,-2.0234 1.2578,-0.6953 2.7734,-0.6953 1.7188,0 2.8907,0.875 1.1718,0.875 1.6406,2.4687 l -1.5,0.3437 q -0.3906,-1.25 -1.1485,-1.8203 -0.7578,-0.5703 -1.914,-0.5703 -1.3125,0 -2.2031,0.6328 -0.8907,0.6328 -1.25,1.7032 -0.3594,1.0703 -0.3594,2.1953 0,1.4687 0.4297,2.5547 0.4297,1.0859 1.3281,1.625 0.8984,0.539 1.9453,0.539 1.2656,0 2.1484,-0.7344 0.8829,-0.7343 1.1953,-2.1718 z M 0.2422,6.5 V -4.9531 h 2.2812 l 2.7188,8.1093 q 0.375,1.125 0.5469,1.6876 0.1875,-0.625 0.6093,-1.8282 l 2.7344,-7.9687 h 2.0469 V 6.5 H 9.7109 V -3.0938 L 6.3828,6.5 H 5.0234 L 1.7109,-3.25 V 6.5 Z"
       id="path285" />
  </g>
  <g
     transform="translate(203.07502,592.56358)"
     style="font-size:16px;color-interpolation:linearRGB;color-rendering:optimizeQuality;image-rendering:optimizeQuality;text-rendering:geometricPrecision"
     id="g291">
    <path
       style="stroke:none"
       d="m -15.7812,2.8125 1.4374,-0.125 q 0.0938,0.8594 0.4688,1.4141 0.375,0.5546 1.1562,0.8906 0.7813,0.3359 1.75,0.3359 0.875,0 1.5391,-0.2578 0.6641,-0.2578 0.9844,-0.7031 0.3203,-0.4453 0.3203,-0.9766 0,-0.5468 -0.3125,-0.9453 Q -8.75,2.0469 -9.4688,1.7656 -9.9219,1.5938 -11.5,1.2109 -13.0781,0.8281 -13.7188,0.5 -14.5312,0.0625 -14.9375,-0.5703 -15.3438,-1.2031 -15.3438,-2 q 0,-0.8594 0.4922,-1.6172 0.4922,-0.7578 1.4375,-1.1484 0.9453,-0.3906 2.1016,-0.3906 1.2813,0 2.25,0.414 0.9687,0.4141 1.4922,1.211 0.5234,0.7968 0.5703,1.7968 l -1.4531,0.1094 q -0.125,-1.0781 -0.7969,-1.6328 -0.6719,-0.5547 -2,-0.5547 -1.375,0 -2,0.5 -0.625,0.5 -0.625,1.2187 0,0.6094 0.4375,1.0157 0.4375,0.3906 2.2891,0.8125 1.8515,0.4218 2.539,0.7344 1,0.4531 1.4766,1.164 0.4766,0.711 0.4766,1.6328 0,0.9063 -0.5235,1.7188 -0.5234,0.8125 -1.5078,1.2656 -0.9844,0.4531 -2.2031,0.4531 -1.5625,0 -2.6094,-0.4609 Q -14.5469,5.7812 -15.1484,4.875 -15.75,3.9688 -15.7812,2.8125 Z M -4.5938,6.5 V -4.9531 h 4.3282 q 1.1406,0 1.7344,0.1093 0.8437,0.1407 1.414,0.5313 0.5703,0.3906 0.9219,1.1016 0.3515,0.7109 0.3515,1.5703 0,1.4531 -0.9296,2.4687 -0.9297,1.0157 -3.3672,1.0157 H -3.0781 V 6.5 Z m 1.5157,-6.0156 h 2.9687 q 1.4688,0 2.086,-0.5469 0.6172,-0.5469 0.6172,-1.5313 0,-0.7187 -0.3672,-1.2343 Q 1.8594,-3.3438 1.2656,-3.5 0.8906,-3.6094 -0.1406,-3.6094 H -3.0781 Z M 4.8125,6.5 9.2188,-4.9531 h 1.6406 L 15.5469,6.5 H 13.8125 L 12.4844,3.0312 H 7.6875 L 6.4375,6.5 Z M 8.125,1.7969 h 3.8906 L 10.8125,-1.375 Q 10.2656,-2.8281 10,-3.75 9.7812,-2.6562 9.3906,-1.5625 Z"
       id="path289" />
  </g>
  <g
     transform="translate(404.7333,212.3494)"
     style="font-size:16px;color-interpolation:linearRGB;color-rendering:optimizeQuality;image-rendering:optimizeQuality;text-rendering:geometricPrecision"
     id="g295">
    <path
       style="stroke:none"
       d="m -10.9844,6.5 -4.4375,-11.4531 h 1.6407 l 2.9687,8.3125 q 0.3594,1 0.6094,1.875 0.2656,-0.9375 0.6093,-1.875 L -6.5,-4.9531 h 1.5469 L -9.4375,6.5 Z m 6.125,0 4.4063,-11.4531 H 1.1875 L 5.875,6.5 H 4.1406 L 2.8125,3.0312 H -1.9844 L -3.2344,6.5 Z M -1.5469,1.7969 H 2.3438 L 1.1406,-1.375 Q 0.5938,-2.8281 0.3281,-3.75 0.1094,-2.6562 -0.2812,-1.5625 Z M 7.0156,6.5 V -4.9531 H 8.5312 V 5.1406 h 5.6407 V 6.5 Z"
       id="path293" />
  </g>
  <g
     transform="translate(351.5667,393.0839)"
     style="font-size:16px;color-interpolation:linearRGB;color-rendering:optimizeQuality;image-rendering:optimizeQuality;text-rendering:geometricPrecision"
     id="g299">
    <path
       style="stroke:none"
       d="m -7.4844,6.5 -4.4375,-11.4531 h 1.6407 l 2.9687,8.3125 q 0.3594,1 0.6094,1.875 0.2656,-0.9375 0.6093,-1.875 L -3,-4.9531 h 1.5469 L -5.9375,6.5 Z m 7.3438,0 V -4.9531 h 2.2812 l 2.7188,8.1093 q 0.375,1.125 0.5468,1.6876 0.1876,-0.625 0.6094,-1.8282 L 8.75,-4.9531 h 2.0469 V 6.5 H 9.3281 V -3.0938 L 6,6.5 H 4.6406 L 1.3281,-3.25 V 6.5 Z"
       id="path297" />
  </g>
  <g
     transform="translate(580.1833,123.3764)"
     style="font-size:16px;color-interpolation:linearRGB;color-rendering:optimizeQuality;image-rendering:optimizeQuality;text-rendering:geometricPrecision"
     id="g303">
    <path
       style="stroke:none"
       d="m -10.9844,6.5 -4.4375,-11.4531 h 1.6407 l 2.9687,8.3125 q 0.3594,1 0.6094,1.875 0.2656,-0.9375 0.6093,-1.875 L -6.5,-4.9531 h 1.5469 L -9.4375,6.5 Z m 7.3906,0 V -4.9531 h 4.3282 q 1.1406,0 1.7344,0.1093 0.8437,0.1407 1.414,0.5313 0.5703,0.3906 0.9219,1.1016 0.3515,0.7109 0.3515,1.5703 0,1.4531 -0.9296,2.4687 Q 3.2969,1.8438 0.8594,1.8438 H -2.0781 V 6.5 Z m 1.5157,-6.0156 h 2.9687 q 1.4688,0 2.086,-0.5469 0.6172,-0.5469 0.6172,-1.5313 0,-0.7187 -0.3672,-1.2343 Q 2.8594,-3.3438 2.2656,-3.5 1.8906,-3.6094 0.8594,-3.6094 H -2.0781 Z M 7.0156,6.5 V -4.9531 H 8.5312 V 5.1406 h 5.6407 V 6.5 Z"
       id="path301" />
  </g>
  <g
     transform="translate(532.3333,57.9301)"
     style="font-size:16px;color-interpolation:linearRGB;color-rendering:optimizeQuality;image-rendering:optimizeQuality;text-rendering:geometricPrecision"
     id="g307">
    <path
       style="stroke:none"
       d="m -12.9844,6.5 -4.4375,-11.4531 h 1.6407 l 2.9687,8.3125 q 0.3594,1 0.6094,1.875 0.2656,-0.9375 0.6093,-1.875 L -8.5,-4.9531 h 1.5469 L -11.4375,6.5 Z m 7.3906,0 V -4.9531 h 4.3282 q 1.1406,0 1.7344,0.1093 0.8437,0.1407 1.414,0.5313 0.5703,0.3906 0.9219,1.1016 0.3515,0.7109 0.3515,1.5703 0,1.4531 -0.9296,2.4687 -0.9297,1.0157 -3.3672,1.0157 H -4.0781 V 6.5 Z m 1.5157,-6.0156 h 2.9687 q 1.4688,0 2.086,-0.5469 0.6172,-0.5469 0.6172,-1.5313 0,-0.7187 -0.3672,-1.2343 Q 0.8594,-3.3438 0.2656,-3.5 -0.1094,-3.6094 -1.1406,-3.6094 H -4.0781 Z M 5.0312,6.5 V -4.9531 h 2.2813 l 2.7187,8.1093 q 0.375,1.125 0.5469,1.6876 0.1875,-0.625 0.6094,-1.8282 l 2.7344,-7.9687 h 2.0469 V 6.5 H 14.5 V -3.0938 L 11.1719,6.5 H 9.8125 L 6.5,-3.25 V 6.5 Z"
       id="path305" />
  </g>
  <g
     transform="translate(293.0833,248.1375)"
     style="font-size:16px;color-interpolation:linearRGB;color-rendering:optimizeQuality;image-rendering:optimizeQuality;text-rendering:geometricPrecision"
     id="g311">
    <path
       style="stroke:none"
       d="m -21.4844,6.5 -4.4375,-11.4531 h 1.6407 l 2.9687,8.3125 q 0.3594,1 0.6094,1.875 0.2656,-0.9375 0.6093,-1.875 L -17,-4.9531 h 1.5469 L -19.9375,6.5 Z m 7.3906,0 V -4.9531 h 4.3282 q 1.1406,0 1.7344,0.1093 0.8437,0.1407 1.414,0.5313 0.5703,0.3906 0.9219,1.1016 0.3515,0.7109 0.3515,1.5703 0,1.4531 -0.9296,2.4687 -0.9297,1.0157 -3.3672,1.0157 h -2.9375 V 6.5 Z m 1.5157,-6.0156 h 2.9687 q 1.4688,0 2.086,-0.5469 0.6172,-0.5469 0.6172,-1.5313 0,-0.7187 -0.3672,-1.2343 -0.3672,-0.5157 -0.961,-0.6719 -0.375,-0.1094 -1.4062,-0.1094 h -2.9375 z M -3.4688,6.5 V -4.9531 h 2.2813 l 2.7187,8.1093 q 0.375,1.125 0.5469,1.6876 0.1875,-0.625 0.6094,-1.8282 L 5.4219,-4.9531 H 7.4688 V 6.5 H 6 V -3.0938 L 2.6719,6.5 H 1.3125 L -2,-3.25 V 6.5 Z M 9.7344,9.6875 V -1.7969 h 1.2812 v 1.0781 q 0.4532,-0.6406 1.0235,-0.9531 0.5703,-0.3125 1.3828,-0.3125 1.0625,0 1.875,0.5469 0.8125,0.5469 1.2265,1.5391 0.4141,0.9922 0.4141,2.1796 0,1.2813 -0.4609,2.2969 -0.461,1.0157 -1.3282,1.5625 -0.8672,0.5469 -1.8359,0.5469 -0.7031,0 -1.2578,-0.2969 Q 11.5,6.0938 11.1406,5.6406 V 9.6875 Z M 11,2.3906 q 0,1.6094 0.6484,2.375 0.6485,0.7656 1.5704,0.7656 0.9374,0 1.6093,-0.7968 Q 15.5,3.9375 15.5,2.2812 q 0,-1.5937 -0.6562,-2.3828 -0.6563,-0.789 -1.5626,-0.789 -0.8906,0 -1.5859,0.8437 Q 11,0.7969 11,2.3906 Z m 13.0391,1.0625 1.3906,0.1875 q -0.2344,1.4219 -1.1641,2.2344 -0.9297,0.8125 -2.289,0.8125 -1.7032,0 -2.7422,-1.1172 -1.0391,-1.1172 -1.0391,-3.1953 0,-1.3438 0.4453,-2.3516 0.4453,-1.0078 1.3594,-1.5078 0.9141,-0.5 1.9766,-0.5 1.3593,0 2.2187,0.6797 0.8594,0.6797 1.0938,1.9453 l -1.3594,0.2032 q -0.2031,-0.8282 -0.6953,-1.25 -0.4922,-0.4219 -1.1953,-0.4219 -1.0625,0 -1.7266,0.7578 -0.6641,0.7578 -0.6641,2.4141 0,1.6718 0.6407,2.4296 0.6406,0.7578 1.6718,0.7578 0.8282,0 1.3829,-0.5078 0.5546,-0.5078 0.6953,-1.5703 z"
       id="path309" />
  </g>
  <g
     transform="translate(309.0333,364.6289)"
     style="font-size:16px;color-interpolation:linearRGB;color-rendering:optimizeQuality;image-rendering:optimizeQuality;text-rendering:geometricPrecision"
     id="g315">
    <path
       style="stroke:none"
       d="M -9.2656,6.5 V -4.9531 h 4.3281 q 1.1406,0 1.7344,0.1093 0.8437,0.1407 1.414,0.5313 0.5703,0.3906 0.9219,1.1016 0.3516,0.7109 0.3516,1.5703 0,1.4531 -0.9297,2.4687 -0.9297,1.0157 -3.3672,1.0157 H -7.75 V 6.5 Z M -7.75,0.4844 h 2.9688 q 1.4687,0 2.0859,-0.5469 0.6172,-0.5469 0.6172,-1.5313 0,-0.7187 -0.3672,-1.2343 Q -2.8125,-3.3438 -3.4062,-3.5 -3.7812,-3.6094 -4.8125,-3.6094 H -7.75 Z M 1.4844,6.5 V -4.9531 h 7.7344 v 1.3437 H 3 v 3.5469 H 8.375 V 1.2969 H 3 V 6.5 Z"
       id="path313" />
  </g>
  <g
     transform="translate(447.2667,153.0141)"
     style="font-size:16px;color-interpolation:linearRGB;color-rendering:optimizeQuality;image-rendering:optimizeQuality;text-rendering:geometricPrecision"
     id="g319">
    <path
       style="stroke:none"
       d="M -10.7656,6.5 V -4.9531 h 4.3281 q 1.1406,0 1.7344,0.1093 0.8437,0.1407 1.414,0.5313 0.5703,0.3906 0.9219,1.1016 0.3516,0.7109 0.3516,1.5703 0,1.4531 -0.9297,2.4687 -0.9297,1.0157 -3.3672,1.0157 H -9.25 V 6.5 Z M -9.25,0.4844 h 2.9688 q 1.4687,0 2.0859,-0.5469 0.6172,-0.5469 0.6172,-1.5313 0,-0.7187 -0.3672,-1.2343 Q -4.3125,-3.3438 -4.9062,-3.5 -5.2812,-3.6094 -6.3125,-3.6094 H -9.25 Z m 8.7031,0.4375 q 0,-2.8594 1.5313,-4.4688 1.5312,-1.6093 3.9531,-1.6093 1.5781,0 2.8516,0.7578 1.2734,0.7578 1.9453,2.1093 0.6718,1.3516 0.6718,3.0703 0,1.75 -0.7031,3.125 Q 9,5.2812 7.7109,5.9922 6.4219,6.7031 4.9219,6.7031 3.3125,6.7031 2.0391,5.9141 0.7656,5.125 0.1094,3.7734 -0.5469,2.4219 -0.5469,0.9219 Z m 1.5625,0.0156 q 0,2.0781 1.1094,3.2656 1.1094,1.1875 2.7969,1.1875 1.7031,0 2.8125,-1.2031 1.1094,-1.2031 1.1094,-3.4063 0,-1.4062 -0.4766,-2.4453 -0.4766,-1.039 -1.3828,-1.6171 -0.9063,-0.5782 -2.0469,-0.5782 -1.6094,0 -2.7656,1.1094 -1.1563,1.1094 -1.1563,3.6875 z"
       id="path317" />
  </g>
  <g
     transform="translate(527.0167,427.3929)"
     style="font-size:16px;color-interpolation:linearRGB;color-rendering:optimizeQuality;image-rendering:optimizeQuality;text-rendering:geometricPrecision"
     id="g323">
    <path
       style="stroke:none"
       d="M -15.2656,6.5 V -4.9531 h 4.3281 q 1.1406,0 1.7344,0.1093 0.8437,0.1407 1.414,0.5313 0.5703,0.3906 0.9219,1.1016 0.3516,0.7109 0.3516,1.5703 0,1.4531 -0.9297,2.4687 -0.9297,1.0157 -3.3672,1.0157 H -13.75 V 6.5 Z M -13.75,0.4844 h 2.9688 q 1.4687,0 2.0859,-0.5469 0.6172,-0.5469 0.6172,-1.5313 0,-0.7187 -0.3672,-1.2343 -0.3672,-0.5157 -0.9609,-0.6719 -0.375,-0.1094 -1.4063,-0.1094 H -13.75 Z m 8.7031,0.4375 q 0,-2.8594 1.5313,-4.4688 1.5312,-1.6093 3.9531,-1.6093 1.5781,0 2.8516,0.7578 1.2734,0.7578 1.9453,2.1093 0.6718,1.3516 0.6718,3.0703 0,1.75 -0.7031,3.125 -0.7031,1.375 -1.9922,2.086 -1.289,0.7109 -2.789,0.7109 -1.6094,0 -2.8828,-0.789 Q -3.7344,5.125 -4.3906,3.7734 -5.0469,2.4219 -5.0469,0.9219 Z m 1.5625,0.0156 q 0,2.0781 1.1094,3.2656 1.1094,1.1875 2.7969,1.1875 1.7031,0 2.8125,-1.2031 1.1094,-1.2031 1.1094,-3.4063 0,-1.4062 -0.4766,-2.4453 -0.4766,-1.039 -1.3828,-1.6171 -0.9063,-0.5782 -2.0469,-0.5782 -1.6094,0 -2.7656,1.1094 -1.1563,1.1094 -1.1563,3.6875 z M 7.7891,6.5 V -4.9531 H 9.3047 V 5.1406 h 5.6406 V 6.5 Z"
       id="path321" />
  </g>
  <g
     transform="translate(638.6667,482.1798)"
     style="font-size:16px;color-interpolation:linearRGB;color-rendering:optimizeQuality;image-rendering:optimizeQuality;text-rendering:geometricPrecision"
     id="g327">
    <path
       style="stroke:none"
       d="M -9.7656,6.5 V -4.9531 h 4.3281 q 1.1406,0 1.7344,0.1093 0.8437,0.1407 1.414,0.5313 0.5703,0.3906 0.9219,1.1016 0.3516,0.7109 0.3516,1.5703 0,1.4531 -0.9297,2.4687 -0.9297,1.0157 -3.3672,1.0157 H -8.25 V 6.5 Z M -8.25,0.4844 h 2.9688 q 1.4687,0 2.0859,-0.5469 0.6172,-0.5469 0.6172,-1.5313 0,-0.7187 -0.3672,-1.2343 Q -3.3125,-3.3438 -3.9062,-3.5 -4.2812,-3.6094 -5.3125,-3.6094 H -8.25 Z M 0.9062,6.5 V -4.9531 h 4.3282 q 1.1406,0 1.7344,0.1093 0.8437,0.1407 1.414,0.5313 0.5703,0.3906 0.9219,1.1016 0.3515,0.7109 0.3515,1.5703 0,1.4531 -0.9296,2.4687 Q 7.7969,1.8438 5.3594,1.8438 H 2.4219 V 6.5 Z M 2.4219,0.4844 h 2.9687 q 1.4688,0 2.086,-0.5469 0.6172,-0.5469 0.6172,-1.5313 0,-0.7187 -0.3672,-1.2343 Q 7.3594,-3.3438 6.7656,-3.5 6.3906,-3.6094 5.3594,-3.6094 H 2.4219 Z"
       id="path325" />
  </g>
  <g
     transform="translate(662.72576,352.43635)"
     style="font-size:16px;color-interpolation:linearRGB;color-rendering:optimizeQuality;image-rendering:optimizeQuality;text-rendering:geometricPrecision"
     id="g331">
    <path
       style="stroke:none"
       d="M -16.3125,6.5 V -4.9531 h 2.2813 l 2.7187,8.1093 q 0.375,1.125 0.5469,1.6876 0.1875,-0.625 0.6094,-1.8282 l 2.7343,-7.9687 H -5.375 V 6.5 H -6.8438 V -3.0938 L -10.1719,6.5 h -1.3593 l -3.3126,-9.75 V 6.5 Z M 2.4219,2 V 0.6562 h 4.8593 v 4.25 Q 6.1562,5.7969 4.9688,6.25 3.7812,6.7031 2.5312,6.7031 0.8438,6.7031 -0.5312,5.9766 -1.9062,5.25 -2.6094,3.8828 -3.3125,2.5156 -3.3125,0.8281 q 0,-1.6719 0.6953,-3.125 0.6953,-1.4531 2.0078,-2.1562 1.3125,-0.7031 3.0313,-0.7031 1.2343,0 2.2422,0.4062 1.0078,0.4062 1.5781,1.125 0.5703,0.7188 0.8672,1.875 l -1.375,0.375 Q 5.4844,-2.25 5.1016,-2.75 4.7188,-3.25 4.0078,-3.5547 3.2969,-3.8594 2.4219,-3.8594 q -1.0313,0 -1.7891,0.3203 -0.7578,0.3203 -1.2266,0.836 -0.4687,0.5156 -0.7187,1.125 -0.4375,1.0625 -0.4375,2.3125 0,1.5312 0.5234,2.5625 0.5235,1.0312 1.5313,1.5312 1.0078,0.5 2.1484,0.5 0.9844,0 1.9219,-0.3828 Q 5.3125,4.5625 5.7969,4.1406 V 2 Z m 12.289,4.5 V 5.4531 q -0.7812,1.2344 -2.3125,1.2344 -1,0 -1.8281,-0.5469 Q 9.7422,5.5938 9.2812,4.6094 8.8203,3.625 8.8203,2.3594 q 0,-1.25 0.4141,-2.2578 0.414,-1.0078 1.2422,-1.5469 0.8281,-0.5391 1.8593,-0.5391 0.75,0 1.336,0.3125 0.5859,0.3125 0.9453,0.8281 v -4.1093 h 1.4062 V 6.5 Z M 10.2734,2.3594 q 0,1.5937 0.6719,2.3828 0.6719,0.789 1.5781,0.789 0.9219,0 1.5704,-0.7578 0.6484,-0.7578 0.6484,-2.3046 0,-1.7032 -0.6563,-2.5 -0.6562,-0.7969 -1.625,-0.7969 -0.9375,0 -1.5625,0.7656 -0.625,0.7656 -0.625,2.4219 z"
       id="path329" />
  </g>
  <g
     transform="translate(630.03202,370.64883)"
     style="font-size:16px;color-interpolation:linearRGB;color-rendering:optimizeQuality;image-rendering:optimizeQuality;text-rendering:geometricPrecision"
     id="g335">
    <path
       style="stroke:none"
       d="M -15.8125,6.5 V -4.9531 h 2.2813 l 2.7187,8.1093 q 0.375,1.125 0.5469,1.6876 0.1875,-0.625 0.6094,-1.8282 l 2.7343,-7.9687 H -4.875 V 6.5 H -6.3438 V -3.0938 L -9.6719,6.5 h -1.3593 l -3.3126,-9.75 V 6.5 Z M 2.9219,2 V 0.6562 h 4.8593 v 4.25 Q 6.6562,5.7969 5.4688,6.25 4.2812,6.7031 3.0312,6.7031 1.3438,6.7031 -0.0312,5.9766 -1.4062,5.25 -2.1094,3.8828 -2.8125,2.5156 -2.8125,0.8281 q 0,-1.6719 0.6953,-3.125 0.6953,-1.4531 2.0078,-2.1562 1.3125,-0.7031 3.0313,-0.7031 1.2343,0 2.2422,0.4062 1.0078,0.4062 1.5781,1.125 0.5703,0.7188 0.8672,1.875 l -1.375,0.375 Q 5.9844,-2.25 5.6016,-2.75 5.2188,-3.25 4.5078,-3.5547 3.7969,-3.8594 2.9219,-3.8594 q -1.0313,0 -1.7891,0.3203 -0.7578,0.3203 -1.2266,0.836 -0.4687,0.5156 -0.7187,1.125 -0.4375,1.0625 -0.4375,2.3125 0,1.5312 0.5234,2.5625 0.5235,1.0312 1.5313,1.5312 1.0078,0.5 2.1484,0.5 0.9844,0 1.9219,-0.3828 Q 5.8125,4.5625 6.2969,4.1406 V 2 Z m 9.2109,4.5 -3.1562,-8.2969 h 1.4843 l 1.7813,4.9688 q 0.2969,0.7969 0.5312,1.6719 0.1875,-0.6563 0.5313,-1.5782 l 1.8437,-5.0625 h 1.4375 L 13.4453,6.5 Z"
       id="path333" />
  </g>
  <g
     transform="translate(567.89647,386.77395)"
     style="font-size:16px;color-interpolation:linearRGB;color-rendering:optimizeQuality;image-rendering:optimizeQuality;text-rendering:geometricPrecision"
     id="g339">
    <path
       style="stroke:none"
       d="M -18.8125,6.5 V -4.9531 h 2.2813 l 2.7187,8.1093 q 0.375,1.125 0.5469,1.6876 0.1875,-0.625 0.6094,-1.8282 l 2.7343,-7.9687 H -7.875 V 6.5 H -9.3438 V -3.0938 L -12.6719,6.5 h -1.3593 l -3.3126,-9.75 V 6.5 Z M -0.0781,2 V 0.6562 h 4.8593 v 4.25 Q 3.6562,5.7969 2.4688,6.25 1.2812,6.7031 0.0312,6.7031 -1.6562,6.7031 -3.0312,5.9766 -4.4062,5.25 -5.1094,3.8828 -5.8125,2.5156 -5.8125,0.8281 q 0,-1.6719 0.6953,-3.125 0.6953,-1.4531 2.0078,-2.1562 1.3125,-0.7031 3.0313,-0.7031 1.2343,0 2.2422,0.4062 1.0078,0.4062 1.5781,1.125 0.5703,0.7188 0.8672,1.875 l -1.375,0.375 Q 2.9844,-2.25 2.6016,-2.75 2.2188,-3.25 1.5078,-3.5547 0.7969,-3.8594 -0.0781,-3.8594 q -1.0313,0 -1.7891,0.3203 -0.7578,0.3203 -1.2266,0.836 -0.4687,0.5156 -0.7187,1.125 -0.4375,1.0625 -0.4375,2.3125 0,1.5312 0.5234,2.5625 0.5235,1.0312 1.5313,1.5312 1.0078,0.5 2.1484,0.5 0.9844,0 1.9219,-0.3828 Q 2.8125,4.5625 3.2969,4.1406 V 2 Z m 6.914,4.5 v -8.2969 h 1.25 v 1.1563 Q 8.4766,-1.25 9.125,-1.6172 q 0.6484,-0.3672 1.4766,-0.3672 0.9218,0 1.5156,0.3828 0.5937,0.3828 0.8281,1.0704 0.9844,-1.4532 2.5625,-1.4532 1.2344,0 1.8984,0.6797 0.6641,0.6797 0.6641,2.1016 V 6.5 H 16.6797 V 1.2656 q 0,-0.8437 -0.1406,-1.2109 -0.1407,-0.3672 -0.5,-0.5938 -0.3594,-0.2265 -0.8438,-0.2265 -0.875,0 -1.4531,0.5781 -0.5781,0.5781 -0.5781,1.8594 V 6.5 H 11.7578 V 1.1094 q 0,-0.9375 -0.3437,-1.4063 -0.3438,-0.4687 -1.125,-0.4687 -0.5938,0 -1.0938,0.3125 -0.5,0.3125 -0.7265,0.914 Q 8.2422,1.0625 8.2422,2.1875 V 6.5 Z"
       id="path337" />
  </g>
  <g
     transform="translate(287.7667,465.7639)"
     style="font-size:16px;color-interpolation:linearRGB;color-rendering:optimizeQuality;image-rendering:optimizeQuality;text-rendering:geometricPrecision"
     id="g343">
    <path
       style="stroke:none"
       d="m -16.5312,6.5 4.4062,-11.4531 h 1.6406 L -5.7969,6.5 H -7.5312 L -8.8594,3.0312 h -4.7968 l -1.25,3.4688 z m 3.3124,-4.7031 h 3.8907 l -1.2031,-3.1719 q -0.5469,-1.4531 -0.8126,-2.375 -0.2187,1.0938 -0.6093,2.1875 z M -4.6406,6.5 V -4.9531 h 2.2812 l 2.7188,8.1093 q 0.375,1.125 0.5468,1.6876 0.1876,-0.625 0.6094,-1.8282 L 4.25,-4.9531 H 6.2969 V 6.5 H 4.8281 V -3.0938 L 1.5,6.5 H 0.1406 L -3.1719,-3.25 V 6.5 Z m 18.5781,0 V 5.4531 q -0.7813,1.2344 -2.3125,1.2344 -1,0 -1.8281,-0.5469 Q 8.9688,5.5938 8.5078,4.6094 8.0469,3.625 8.0469,2.3594 q 0,-1.25 0.414,-2.2578 0.4141,-1.0078 1.2422,-1.5469 0.8281,-0.5391 1.8594,-0.5391 0.75,0 1.3359,0.3125 0.586,0.3125 0.9454,0.8281 V -4.9531 H 15.25 V 6.5 Z M 9.5,2.3594 q 0,1.5937 0.6719,2.3828 0.6719,0.789 1.5781,0.789 0.9219,0 1.5703,-0.7578 0.6485,-0.7578 0.6485,-2.3046 0,-1.7032 -0.6563,-2.5 -0.6563,-0.7969 -1.625,-0.7969 -0.9375,0 -1.5625,0.7656 Q 9.5,0.7031 9.5,2.3594 Z"
       id="path341" />
  </g>
  <g
     transform="translate(330.3,501.5215)"
     style="font-size:16px;color-interpolation:linearRGB;color-rendering:optimizeQuality;image-rendering:optimizeQuality;text-rendering:geometricPrecision"
     id="g347">
    <path
       style="stroke:none"
       d="m -16.0312,6.5 4.4062,-11.4531 h 1.6406 L -5.2969,6.5 H -7.0312 L -8.3594,3.0312 h -4.7968 l -1.25,3.4688 z m 3.3124,-4.7031 h 3.8907 l -1.2031,-3.1719 q -0.5469,-1.4531 -0.8126,-2.375 -0.2187,1.0938 -0.6093,2.1875 z M -4.1406,6.5 V -4.9531 h 2.2812 l 2.7188,8.1093 q 0.375,1.125 0.5468,1.6876 0.1876,-0.625 0.6094,-1.8282 L 4.75,-4.9531 H 6.7969 V 6.5 H 5.3281 V -3.0938 L 2,6.5 H 0.6406 L -2.6719,-3.25 V 6.5 Z m 15.5,0 -3.1563,-8.2969 h 1.4844 l 1.7813,4.9688 Q 11.7656,3.9688 12,4.8438 12.1875,4.1875 12.5312,3.2656 l 1.8438,-5.0625 h 1.4375 L 12.6719,6.5 Z"
       id="path345" />
  </g>
</svg>
