<?xml version="1.0" encoding="UTF-8" standalone="no"?>
<svg
   style="font-style:normal;font-weight:normal;font-size:12px;font-family:Dialog;color-interpolation:auto;fill:#000000;fill-opacity:1;stroke:#000000;stroke-width:1;stroke-linecap:square;stroke-linejoin:miter;stroke-miterlimit:10;stroke-dasharray:none;stroke-dashoffset:0;stroke-opacity:1;color-rendering:auto;image-rendering:auto;shape-rendering:auto;text-rendering:auto"
   width="506.01181"
   height="391.26559"
   version="1.1"
   id="svg82"
   sodipodi:docname="FigS8.svg"
   inkscape:version="1.3 (0e150ed6c4, 2023-07-21)"
   xmlns:inkscape="http://www.inkscape.org/namespaces/inkscape"
   xmlns:sodipodi="http://sodipodi.sourceforge.net/DTD/sodipodi-0.dtd"
   xmlns="http://www.w3.org/2000/svg"
   xmlns:svg="http://www.w3.org/2000/svg">
  <sodipodi:namedview
     id="namedview82"
     pagecolor="#ffffff"
     bordercolor="#666666"
     borderopacity="1.0"
     inkscape:showpageshadow="2"
     inkscape:pageopacity="0.0"
     inkscape:pagecheckerboard="0"
     inkscape:deskcolor="#d1d1d1"
     inkscape:zoom="2.5821429"
     inkscape:cx="271.09267"
     inkscape:cy="188.02213"
     inkscape:window-width="2560"
     inkscape:window-height="1377"
     inkscape:window-x="1672"
     inkscape:window-y="-8"
     inkscape:window-maximized="1"
     inkscape:current-layer="svg82" />
  <!--Generated by the Batik Graphics2D SVG Generator-->
  <defs
     id="genericDefs" />
  <g
     id="g82"
     transform="translate(-8.8906,-22.0938)">
    <defs
       id="defs1">
      <clipPath
         clipPathUnits="userSpaceOnUse"
         id="clipPath1">
        <path
           d="M 0,0 H 560 V 420 H 0 Z"
           id="path1" />
      </clipPath>
    </defs>
    <g
       style="color-interpolation:sRGB;fill:#0072bd;fill-opacity:0.6;stroke:#0072bd;stroke-opacity:0.6;color-rendering:optimizeSpeed;image-rendering:optimizeSpeed;shape-rendering:crispEdges;text-rendering:optimizeSpeed"
       id="g3">
      <path
         style="stroke:none"
         d="M 154.9273,340 V 194.77 h -6.8364 V 340 Z m 6.8363,0 V 166.96 h -6.8363 V 340 Z m 6.8364,0 V 134.515 h -6.8364 V 340 Z m 6.8364,0 V 85.075 H 168.6 V 340 Z m 6.8363,0 V 88.165 h -6.8363 V 340 Z m 6.8364,0 V 225.67 h -6.8364 V 340 Z m 6.8363,0 v -92.7 h -6.8363 V 340 Z m 6.8364,0 v -74.16 h -6.8364 V 340 Z m 6.8364,0 v -52.53 h -6.8364 V 340 Z m 6.8363,0 v -30.9 h -6.8363 V 340 Z m 6.8364,0 v -7.725 h -6.8364 V 340 Z m 6.8364,0 v -12.36 h -6.8364 V 340 Z m 6.8363,0 v -4.635 h -6.8363 V 340 Z m 27.3455,0 v -1.545 h -6.8364 V 340 Z m 225.6,0 v -1.545 h -6.8364 V 340 Z"
         id="path3" />
    </g>
    <g
       style="color-interpolation:linearRGB;stroke-width:0.6667;color-rendering:optimizeQuality;image-rendering:optimizeQuality;text-rendering:geometricPrecision"
       id="g59">
      <path
         d="M 148.0909,340 V 194.77 h 6.8364"
         style="fill:none;fill-rule:evenodd"
         id="path4" />
      <path
         d="m 154.9273,340 v 0 -173.04 h 6.8363"
         style="fill:none;fill-rule:evenodd"
         id="path5" />
      <path
         d="m 161.7636,340 v 0 -205.485 H 168.6"
         style="fill:none;fill-rule:evenodd"
         id="path6" />
      <path
         d="m 168.6,340 v 0 -254.925 h 6.8364 V 340 v 0"
         style="fill:none;fill-rule:evenodd"
         id="path7" />
      <path
         d="m 175.4364,88.165 h 6.8363 V 340 v 0"
         style="fill:none;fill-rule:evenodd"
         id="path8" />
      <path
         d="m 182.2727,225.67 h 6.8364 V 340 v 0"
         style="fill:none;fill-rule:evenodd"
         id="path9" />
      <path
         d="m 189.1091,247.3 h 6.8363 v 92.7 0"
         style="fill:none;fill-rule:evenodd"
         id="path10" />
      <path
         d="m 195.9454,265.84 h 6.8364 v 74.16 0"
         style="fill:none;fill-rule:evenodd"
         id="path11" />
      <path
         d="m 202.7818,287.47 h 6.8364 v 52.53 0"
         style="fill:none;fill-rule:evenodd"
         id="path12" />
      <path
         d="m 209.6182,309.1 h 6.8363 v 30.9 0"
         style="fill:none;fill-rule:evenodd"
         id="path13" />
      <line
         y2="332.27499"
         style="fill:none"
         x1="216.4545"
         x2="223.29089"
         y1="332.27499"
         id="line13" />
      <path
         d="m 223.2909,340 v 0 -12.36 h 6.8364 v 12.36 0"
         style="fill:none;fill-rule:evenodd"
         id="path14" />
      <path
         d="m 230.1273,335.365 h 6.8363 v 4.635 0"
         style="fill:none;fill-rule:evenodd"
         id="path15" />
      <path
         d="M 236.9636,340 H 243.8 v 0 0"
         style="fill:none;fill-rule:evenodd"
         id="path16" />
      <path
         d="m 243.8,340 h 6.8364 v 0 0"
         style="fill:none;fill-rule:evenodd"
         id="path17" />
      <line
         y2="340"
         style="fill:none"
         x1="250.6364"
         x2="257.47269"
         y1="340"
         id="line17" />
      <path
         d="m 257.4727,340 v 0 -1.545 h 6.8364 v 1.545 0"
         style="fill:none;fill-rule:evenodd"
         id="path18" />
      <path
         d="m 264.3091,340 h 6.8363 v 0 0"
         style="fill:none;fill-rule:evenodd"
         id="path19" />
      <path
         d="m 271.1454,340 h 6.8364 v 0 0"
         style="fill:none;fill-rule:evenodd"
         id="path20" />
      <path
         d="m 277.9818,340 h 6.8364 v 0 0"
         style="fill:none;fill-rule:evenodd"
         id="path21" />
      <path
         d="m 284.8182,340 h 6.8363 v 0 0"
         style="fill:none;fill-rule:evenodd"
         id="path22" />
      <path
         d="m 291.6545,340 h 6.8364 v 0 0"
         style="fill:none;fill-rule:evenodd"
         id="path23" />
      <path
         d="m 298.4909,340 h 6.8364 v 0 0"
         style="fill:none;fill-rule:evenodd"
         id="path24" />
      <path
         d="m 305.3273,340 h 6.8363 v 0 0"
         style="fill:none;fill-rule:evenodd"
         id="path25" />
      <path
         d="M 312.1636,340 H 319 v 0 0"
         style="fill:none;fill-rule:evenodd"
         id="path26" />
      <path
         d="m 319,340 h 6.8364 v 0 0"
         style="fill:none;fill-rule:evenodd"
         id="path27" />
      <path
         d="m 325.8364,340 h 6.8363 v 0 0"
         style="fill:none;fill-rule:evenodd"
         id="path28" />
      <path
         d="m 332.6727,340 h 6.8364 v 0 0"
         style="fill:none;fill-rule:evenodd"
         id="path29" />
      <path
         d="m 339.5091,340 h 6.8364 v 0 0"
         style="fill:none;fill-rule:evenodd"
         id="path30" />
      <path
         d="m 346.3455,340 h 6.8363 v 0 0"
         style="fill:none;fill-rule:evenodd"
         id="path31" />
      <path
         d="m 353.1818,340 h 6.8364 v 0 0"
         style="fill:none;fill-rule:evenodd"
         id="path32" />
      <path
         d="m 360.0182,340 h 6.8364 v 0 0"
         style="fill:none;fill-rule:evenodd"
         id="path33" />
      <path
         d="m 366.8546,340 h 6.8363 v 0 0"
         style="fill:none;fill-rule:evenodd"
         id="path34" />
      <path
         d="m 373.6909,340 h 6.8364 v 0 0"
         style="fill:none;fill-rule:evenodd"
         id="path35" />
      <path
         d="m 380.5273,340 h 6.8363 v 0 0"
         style="fill:none;fill-rule:evenodd"
         id="path36" />
      <path
         d="M 387.3636,340 H 394.2 v 0 0"
         style="fill:none;fill-rule:evenodd"
         id="path37" />
      <path
         d="m 394.2,340 h 6.8364 v 0 0"
         style="fill:none;fill-rule:evenodd"
         id="path38" />
      <path
         d="m 401.0364,340 h 6.8363 v 0 0"
         style="fill:none;fill-rule:evenodd"
         id="path39" />
      <path
         d="m 407.8727,340 h 6.8364 v 0 0"
         style="fill:none;fill-rule:evenodd"
         id="path40" />
      <path
         d="m 414.7091,340 h 6.8363 v 0 0"
         style="fill:none;fill-rule:evenodd"
         id="path41" />
      <path
         d="m 421.5454,340 h 6.8364 v 0 0"
         style="fill:none;fill-rule:evenodd"
         id="path42" />
      <path
         d="m 428.3818,340 h 6.8364 v 0 0"
         style="fill:none;fill-rule:evenodd"
         id="path43" />
      <path
         d="m 435.2182,340 h 6.8363 v 0 0"
         style="fill:none;fill-rule:evenodd"
         id="path44" />
      <path
         d="m 442.0545,340 h 6.8364 v 0 0"
         style="fill:none;fill-rule:evenodd"
         id="path45" />
      <path
         d="m 448.8909,340 h 6.8364 v 0 0"
         style="fill:none;fill-rule:evenodd"
         id="path46" />
      <path
         d="m 455.7273,340 h 6.8363 v 0 0"
         style="fill:none;fill-rule:evenodd"
         id="path47" />
      <path
         d="M 462.5636,340 H 469.4 v 0 0"
         style="fill:none;fill-rule:evenodd"
         id="path48" />
      <path
         d="m 469.4,340 h 6.8364 v 0 0"
         style="fill:none;fill-rule:evenodd"
         id="path49" />
      <line
         y2="340"
         style="fill:none"
         x1="476.23639"
         x2="483.07269"
         y1="340"
         id="line49" />
      <path
         d="m 483.0727,340 v 0 -1.545 h 6.8364 V 340"
         style="fill:none;fill-rule:evenodd"
         id="path50" />
      <line
         x1="131"
         x2="507"
         y1="340"
         style="fill:none;stroke:#262626;stroke-linejoin:round"
         y2="340"
         id="line50" />
      <line
         x1="131"
         x2="507"
         y1="31"
         style="fill:none;stroke:#262626;stroke-linejoin:round"
         y2="31"
         id="line51" />
      <line
         x1="148.0909"
         x2="148.0909"
         y1="340"
         style="fill:none;stroke:#262626;stroke-linejoin:round"
         y2="336.23999"
         id="line52" />
      <line
         x1="262.0303"
         x2="262.0303"
         y1="340"
         style="fill:none;stroke:#262626;stroke-linejoin:round"
         y2="336.23999"
         id="line53" />
      <line
         x1="375.9697"
         x2="375.9697"
         y1="340"
         style="fill:none;stroke:#262626;stroke-linejoin:round"
         y2="336.23999"
         id="line54" />
      <line
         x1="489.90909"
         x2="489.90909"
         y1="340"
         style="fill:none;stroke:#262626;stroke-linejoin:round"
         y2="336.23999"
         id="line55" />
      <line
         x1="148.0909"
         x2="148.0909"
         y1="31"
         style="fill:none;stroke:#262626;stroke-linejoin:round"
         y2="34.759998"
         id="line56" />
      <line
         x1="262.0303"
         x2="262.0303"
         y1="31"
         style="fill:none;stroke:#262626;stroke-linejoin:round"
         y2="34.759998"
         id="line57" />
      <line
         x1="375.9697"
         x2="375.9697"
         y1="31"
         style="fill:none;stroke:#262626;stroke-linejoin:round"
         y2="34.759998"
         id="line58" />
      <line
         x1="489.90909"
         x2="489.90909"
         y1="31"
         style="fill:none;stroke:#262626;stroke-linejoin:round"
         y2="34.759998"
         id="line59" />
    </g>
    <g
       transform="translate(148.0909,348)"
       style="font-size:26.6667px;color-interpolation:linearRGB;fill:#262626;stroke:#262626;color-rendering:optimizeQuality;image-rendering:optimizeQuality;text-rendering:geometricPrecision"
       id="g60">
      <path
         style="stroke:none"
         d="m -6.375,17.4688 q 0,-3.4219 0.7031,-5.5157 0.7031,-2.0937 2.0938,-3.2265 1.3906,-1.1328 3.5,-1.1328 1.5625,0 2.7343,0.625 1.1719,0.625 1.9376,1.8046 0.7656,1.1797 1.1953,2.875 0.4297,1.6954 0.4297,4.5704 0,3.4062 -0.6954,5.4921 -0.6953,2.086 -2.0859,3.2266 -1.3906,1.1406 -3.5156,1.1406 -2.7969,0 -4.3907,-2 -1.9062,-2.4219 -1.9062,-7.8593 z m 2.4375,0 q 0,4.7656 1.1094,6.3359 1.1093,1.5703 2.75,1.5703 1.6406,0 2.75,-1.5781 1.1093,-1.5781 1.1093,-6.3281 0,-4.7657 -1.1093,-6.336 -1.1094,-1.5703 -2.7813,-1.5703 -1.625,0 -2.6094,1.375 -1.2187,1.7656 -1.2187,6.5313 z"
         id="path59" />
    </g>
    <g
       transform="translate(262.0303,348)"
       style="font-size:26.6667px;color-interpolation:linearRGB;fill:#262626;stroke:#262626;color-rendering:optimizeQuality;image-rendering:optimizeQuality;text-rendering:geometricPrecision"
       id="g61">
      <path
         style="stroke:none"
         d="m -24.875,17.4688 q 0,-3.4219 0.7031,-5.5157 0.7031,-2.0937 2.0938,-3.2265 1.3906,-1.1328 3.5,-1.1328 1.5625,0 2.7343,0.625 1.1719,0.625 1.9376,1.8046 0.7656,1.1797 1.1953,2.875 0.4297,1.6954 0.4297,4.5704 0,3.4062 -0.6954,5.4921 -0.6953,2.086 -2.0859,3.2266 -1.3906,1.1406 -3.5156,1.1406 -2.7969,0 -4.3907,-2 -1.9062,-2.4219 -1.9062,-7.8593 z m 2.4375,0 q 0,4.7656 1.1094,6.3359 1.1093,1.5703 2.75,1.5703 1.6406,0 2.75,-1.5781 1.1093,-1.5781 1.1093,-6.3281 0,-4.7657 -1.1093,-6.336 -1.1094,-1.5703 -2.7813,-1.5703 -1.625,0 -2.6094,1.375 -1.2187,1.7656 -1.2187,6.5313 z M -8.7219,27 v -2.7031 h 2.7031 V 27 Z m 6.0778,-9.5312 q 0,-3.4219 0.7031,-5.5157 0.7031,-2.0937 2.0938,-3.2265 1.3906,-1.1328 3.5,-1.1328 1.5625,0 2.7343,0.625 1.1719,0.625 1.9375,1.8046 0.7657,1.1797 1.1954,2.875 0.4296,1.6954 0.4296,4.5704 0,3.4062 -0.6953,5.4921 -0.6953,2.086 -2.0859,3.2266 -1.3906,1.1406 -3.5156,1.1406 -2.7969,0 -4.3907,-2 -1.9062,-2.4219 -1.9062,-7.8593 z m 2.4375,0 q 0,4.7656 1.1094,6.3359 1.1093,1.5703 2.75,1.5703 1.6406,0 2.75,-1.5781 1.1093,-1.5781 1.1093,-6.3281 0,-4.7657 -1.1093,-6.336 -1.1094,-1.5703 -2.7813,-1.5703 -1.625,0 -2.6094,1.375 -1.2187,1.7656 -1.2187,6.5313 z m 12.3874,4.4687 2.4844,-0.2187 q 0.2813,1.8281 1.2891,2.7421 1.0078,0.9141 2.4297,0.9141 1.7187,0 2.9062,-1.2891 1.1875,-1.289 1.1875,-3.4297 0,-2.0312 -1.1406,-3.2031 -1.1406,-1.1719 -2.9844,-1.1719 -1.1562,0 -2.0781,0.5235 -0.9219,0.5234 -1.4531,1.3515 l -2.2188,-0.2968 1.875,-9.9219 h 9.6094 v 2.2656 h -7.7188 l -1.0468,5.1875 q 1.75,-1.2031 3.6562,-1.2031 2.5313,0 4.2734,1.75 1.7422,1.75 1.7422,4.5156 0,2.625 -1.5312,4.5313 -1.8594,2.3437 -5.0781,2.3437 -2.6407,0 -4.3047,-1.4765 -1.6641,-1.4766 -1.8985,-3.9141 z"
         id="path60" />
    </g>
    <g
       transform="translate(375.9697,348)"
       style="font-size:26.6667px;color-interpolation:linearRGB;fill:#262626;stroke:#262626;color-rendering:optimizeQuality;image-rendering:optimizeQuality;text-rendering:geometricPrecision"
       id="g62">
      <path
         style="stroke:none"
         d="m -17.875,17.4688 q 0,-3.4219 0.7031,-5.5157 0.7031,-2.0937 2.0938,-3.2265 1.3906,-1.1328 3.5,-1.1328 1.5625,0 2.7343,0.625 1.1719,0.625 1.9376,1.8046 0.7656,1.1797 1.1953,2.875 0.4297,1.6954 0.4297,4.5704 0,3.4062 -0.6954,5.4921 -0.6953,2.086 -2.0859,3.2266 -1.3906,1.1406 -3.5156,1.1406 -2.7969,0 -4.3907,-2 -1.9062,-2.4219 -1.9062,-7.8593 z m 2.4375,0 q 0,4.7656 1.1094,6.3359 1.1093,1.5703 2.75,1.5703 1.6406,0 2.75,-1.5781 1.1093,-1.5781 1.1093,-6.3281 0,-4.7657 -1.1093,-6.336 -1.1094,-1.5703 -2.7813,-1.5703 -1.625,0 -2.6094,1.375 -1.2187,1.7656 -1.2187,6.5313 z M -1.7219,27 V 24.2969 H 0.9812 V 27 Z m 15.0153,0 h -2.375 V 11.875 q -0.8594,0.8281 -2.25,1.6406 -1.3906,0.8125 -2.5,1.2188 v -2.2969 q 2,-0.9219 3.4844,-2.2578 1.4843,-1.3359 2.1093,-2.5859 h 1.5313 z"
         id="path61" />
    </g>
    <g
       transform="translate(489.9091,348)"
       style="font-size:26.6667px;color-interpolation:linearRGB;fill:#262626;stroke:#262626;color-rendering:optimizeQuality;image-rendering:optimizeQuality;text-rendering:geometricPrecision"
       id="g63">
      <path
         style="stroke:none"
         d="m -24.875,17.4688 q 0,-3.4219 0.7031,-5.5157 0.7031,-2.0937 2.0938,-3.2265 1.3906,-1.1328 3.5,-1.1328 1.5625,0 2.7343,0.625 1.1719,0.625 1.9376,1.8046 0.7656,1.1797 1.1953,2.875 0.4297,1.6954 0.4297,4.5704 0,3.4062 -0.6954,5.4921 -0.6953,2.086 -2.0859,3.2266 -1.3906,1.1406 -3.5156,1.1406 -2.7969,0 -4.3907,-2 -1.9062,-2.4219 -1.9062,-7.8593 z m 2.4375,0 q 0,4.7656 1.1094,6.3359 1.1093,1.5703 2.75,1.5703 1.6406,0 2.75,-1.5781 1.1093,-1.5781 1.1093,-6.3281 0,-4.7657 -1.1093,-6.336 -1.1094,-1.5703 -2.7813,-1.5703 -1.625,0 -2.6094,1.375 -1.2187,1.7656 -1.2187,6.5313 z M -8.7219,27 v -2.7031 h 2.7031 V 27 Z M 6.2934,27 H 3.9184 V 11.875 q -0.8594,0.8281 -2.25,1.6406 -1.3906,0.8125 -2.5,1.2188 v -2.2969 q 2,-0.9219 3.4844,-2.2578 1.4843,-1.3359 2.1093,-2.5859 h 1.5313 z m 5.8874,-5.0625 2.4844,-0.2187 q 0.2813,1.8281 1.2891,2.7421 1.0078,0.9141 2.4297,0.9141 1.7187,0 2.9062,-1.2891 1.1875,-1.289 1.1875,-3.4297 0,-2.0312 -1.1406,-3.2031 -1.1406,-1.1719 -2.9844,-1.1719 -1.1562,0 -2.0781,0.5235 -0.9219,0.5234 -1.4531,1.3515 l -2.2188,-0.2968 1.875,-9.9219 h 9.6094 v 2.2656 h -7.7188 l -1.0468,5.1875 q 1.75,-1.2031 3.6562,-1.2031 2.5313,0 4.2734,1.75 1.7422,1.75 1.7422,4.5156 0,2.625 -1.5312,4.5313 -1.8594,2.3437 -5.0781,2.3437 -2.6407,0 -4.3047,-1.4765 -1.6641,-1.4766 -1.8985,-3.9141 z"
         id="path62" />
    </g>
    <g
       transform="translate(319.0002,383)"
       style="font-size:29.3333px;color-interpolation:linearRGB;fill:#262626;stroke:#262626;color-rendering:optimizeQuality;image-rendering:optimizeQuality;text-rendering:geometricPrecision"
       id="g64">
      <path
         style="stroke:none"
         d="M -136.2188,30 V 9.2344 h 9.2032 q 2.7812,0 4.2187,0.5625 1.4375,0.5625 2.3047,1.9765 0.8672,1.4141 0.8672,3.1328 0,2.2032 -1.4297,3.7188 -1.4297,1.5156 -4.4141,1.9375 1.0938,0.5156 1.6563,1.0313 1.2031,1.0937 2.2813,2.75 L -117.9219,30 h -3.4531 l -2.75,-4.3125 q -1.2031,-1.875 -1.9844,-2.8672 -0.7812,-0.9922 -1.3984,-1.3906 -0.6172,-0.3985 -1.2422,-0.5547 -0.4688,-0.0938 -1.5312,-0.0938 h -3.1876 V 30 Z m 2.75,-11.5938 h 5.9063 q 1.875,0 2.9375,-0.3906 1.0625,-0.3906 1.6172,-1.25 0.5547,-0.8594 0.5547,-1.8594 0,-1.4687 -1.0703,-2.4218 -1.0704,-0.9532 -3.3828,-0.9532 h -6.5626 z M -115.1752,30 V 9.2344 h 4.125 l 4.9219,14.7031 q 0.6718,2.0625 0.9843,3.0781 0.3594,-1.1406 1.1094,-3.3281 l 4.9688,-14.4531 h 3.7031 V 30 H -98.019 V 12.625 L -104.0502,30 h -2.4844 l -6,-17.6719 V 30 Z m 23.5582,-6.6719 2.5937,-0.2187 q 0.1875,1.5468 0.8594,2.5468 0.6719,1 2.0859,1.6172 1.4141,0.6172 3.1953,0.6172 1.5625,0 2.7657,-0.4687 1.2031,-0.4688 1.7968,-1.2813 0.5938,-0.8125 0.5938,-1.7812 0,-0.9688 -0.5703,-1.7032 -0.5703,-0.7343 -1.8672,-1.2187 -0.8438,-0.3281 -3.7031,-1.0156 -2.8594,-0.6875 -4,-1.2969 -1.5,-0.7812 -2.2266,-1.9375 -0.7266,-1.1563 -0.7266,-2.5781 0,-1.5782 0.8907,-2.9453 0.8906,-1.3672 2.6093,-2.0703 1.7188,-0.7032 3.8125,-0.7032 2.2969,0 4.0625,0.7422 1.7657,0.7422 2.7188,2.1875 0.9531,1.4453 1.0156,3.2735 l -2.625,0.1874 q -0.2187,-1.9687 -1.4453,-2.9687 -1.2266,-1 -3.6172,-1 -2.4844,0 -3.625,0.9141 -1.1406,0.914 -1.1406,2.1953 0,1.125 0.7969,1.8437 0.7968,0.7188 4.1484,1.4766 3.3516,0.7578 4.5859,1.3203 1.8125,0.8437 2.6797,2.125 0.8672,1.2813 0.8672,2.9531 0,1.6563 -0.9453,3.1172 -0.9453,1.461 -2.7266,2.2813 -1.7812,0.8203 -4,0.8203 -2.8281,0 -4.7265,-0.8203 -1.8985,-0.8203 -2.9844,-2.4766 -1.0859,-1.6563 -1.1484,-3.7344 z M -71.0658,30 V 9.2344 h 15 v 2.4531 h -12.25 v 6.3594 h 11.4843 v 2.4375 h -11.4843 v 7.0625 h 12.7343 V 30 Z m 26.367,-7.5156 q 0,-4.1875 2.3125,-6.1875 1.9375,-1.6719 4.7344,-1.6719 3.0937,0 5.0625,2.0312 1.9687,2.0313 1.9687,5.6094 0,2.9063 -0.8672,4.5703 -0.8671,1.6641 -2.5312,2.586 -1.6641,0.9219 -3.6328,0.9219 -3.1563,0 -5.1016,-2.0235 -1.9453,-2.0234 -1.9453,-5.8359 z m 2.6094,0 q 0,2.8906 1.2656,4.3281 1.2656,1.4375 3.1719,1.4375 1.8906,0 3.1562,-1.4453 1.2657,-1.4453 1.2657,-4.4141 0,-2.7812 -1.2735,-4.2187 -1.2734,-1.4375 -3.1484,-1.4375 -1.9063,0 -3.1719,1.4297 -1.2656,1.4297 -1.2656,4.3203 z M -26.8497,30 V 16.9375 h -2.25 v -1.9687 h 2.25 v -1.6094 q 0,-1.5156 0.2812,-2.25 0.3594,-0.9844 1.2891,-1.6016 0.9297,-0.6172 2.6016,-0.6172 1.0781,0 2.375,0.25 l -0.375,2.2188 q -0.7969,-0.1406 -1.5157,-0.1406 -1.1562,0 -1.6328,0.5 -0.4765,0.5 -0.4765,1.8593 v 1.3907 h 2.9218 v 1.9687 h -2.9218 V 30 Z m 16.0067,0 V 9.2344 h 7.8281 q 2.0781,0 3.1562,0.2031 1.5313,0.25 2.5703,0.9687 1.0391,0.7188 1.6641,2.0079 0.625,1.289 0.625,2.8359 0,2.6406 -1.6797,4.4766 -1.6797,1.8359 -6.0859,1.8359 H -8.093 V 30 Z m 2.75,-10.8906 h 5.3593 q 2.6719,0 3.7891,-0.9922 1.1172,-0.9922 1.1172,-2.7891 0,-1.2969 -0.6563,-2.2265 Q 0.8601,12.1719 -0.218,11.875 -0.9212,11.6875 -2.7805,11.6875 H -8.093 Z m 31.6137,3.6094 2.75,0.7031 q -0.8594,3.375 -3.1094,5.1562 -2.25,1.7813 -5.4844,1.7813 -3.3594,0 -5.4609,-1.3672 -2.1016,-1.3672 -3.2032,-3.961 -1.1015,-2.5937 -1.1015,-5.5624 0,-3.25 1.2422,-5.6641 1.2422,-2.4141 3.5312,-3.6641 2.2891,-1.25 5.0391,-1.25 3.1094,0 5.2344,1.586 2.125,1.5859 2.9531,4.4609 l -2.7031,0.6406 q -0.7188,-2.2656 -2.0938,-3.3047 -1.375,-1.039 -3.4531,-1.039 -2.3906,0 -4,1.1484 -1.6094,1.1484 -2.2578,3.0781 -0.6485,1.9297 -0.6485,3.9922 0,2.6407 0.7657,4.6172 0.7656,1.9766 2.3984,2.9531 Q 15.5519,28 17.4425,28 q 2.3125,0 3.9141,-1.3281 1.6016,-1.3281 2.1641,-3.9531 z M 38.4392,30 H 35.8923 V 13.7656 q -0.9218,0.875 -2.414,1.75 -1.4922,0.875 -2.6797,1.3125 v -2.4687 q 2.1406,-1 3.7422,-2.4297 1.6015,-1.4297 2.2578,-2.7735 h 1.6406 z m 14.5399,-4.4844 2.5157,-0.4062 q 0.2187,1.5156 1.1875,2.3281 0.9687,0.8125 2.7187,0.8125 1.75,0 2.6016,-0.7188 0.8515,-0.7187 0.8515,-1.6874 0,-0.8594 -0.75,-1.3594 -0.5312,-0.3282 -2.6093,-0.8594 -2.7969,-0.7031 -3.8829,-1.2188 -1.0859,-0.5156 -1.6484,-1.4296 -0.5625,-0.9141 -0.5625,-2.0235 0,-1 0.4609,-1.8593 0.461,-0.8594 1.2579,-1.4219 0.5937,-0.4375 1.6171,-0.7422 1.0235,-0.3047 2.211,-0.3047 1.7656,0 3.1015,0.5078 1.336,0.5078 1.9766,1.3828 0.6406,0.875 0.875,2.3282 l -2.4844,0.3437 q -0.1718,-1.1719 -0.9843,-1.8203 -0.8125,-0.6484 -2.3125,-0.6484 -1.75,0 -2.5,0.5781 -0.75,0.5781 -0.75,1.3593 0,0.5 0.3125,0.8907 0.3125,0.4062 0.9687,0.6875 0.3906,0.1406 2.2656,0.6406 2.7032,0.7344 3.7657,1.1875 1.0625,0.4531 1.6718,1.3359 0.6094,0.8828 0.6094,2.1797 0,1.2813 -0.7422,2.4063 -0.7422,1.125 -2.1406,1.7422 -1.3984,0.6172 -3.1641,0.6172 -2.9375,0 -4.4765,-1.2188 -1.5391,-1.2188 -1.961,-3.6094 z m 25.4844,-1.0312 2.5156,0.3281 q -0.4062,2.5937 -2.1015,4.0625 -1.6953,1.4688 -4.1641,1.4688 -3.0781,0 -4.9531,-2.0235 -1.875,-2.0234 -1.875,-5.7891 0,-2.4218 0.8047,-4.25 0.8047,-1.8281 2.4531,-2.7421 1.6484,-0.9141 3.5859,-0.9141 2.4532,0 4.0078,1.2344 1.5547,1.2344 1.9922,3.5156 l -2.4687,0.3906 Q 77.901,18.25 77.0026,17.4844 q -0.8985,-0.7656 -2.1797,-0.7656 -1.9219,0 -3.125,1.3828 -1.2031,1.3828 -1.2031,4.3672 0,3.0312 1.164,4.4062 1.1641,1.375 3.0235,1.375 1.5,0 2.5078,-0.9219 1.0078,-0.9219 1.2734,-2.8437 z m 3.9063,-2 q 0,-4.1875 2.3125,-6.1875 1.9375,-1.6719 4.7343,-1.6719 3.0938,0 5.0625,2.0312 1.9688,2.0313 1.9688,5.6094 0,2.9063 -0.8672,4.5703 -0.8672,1.6641 -2.5313,2.586 -1.664,0.9219 -3.6328,0.9219 -3.1562,0 -5.1015,-2.0235 -1.9453,-2.0234 -1.9453,-5.8359 z m 2.6093,0 q 0,2.8906 1.2657,4.3281 1.2656,1.4375 3.1718,1.4375 1.8907,0 3.1563,-1.4453 1.2656,-1.4453 1.2656,-4.4141 0,-2.7812 -1.2734,-4.2187 -1.2735,-1.4375 -3.1485,-1.4375 -1.9062,0 -3.1718,1.4297 -1.2657,1.4297 -1.2657,4.3203 z M 99.5938,30 V 14.9688 h 2.2813 v 2.2656 q 0.8906,-1.5938 1.6328,-2.1016 0.7422,-0.5078 1.6328,-0.5078 1.2813,0 2.6094,0.8125 l -0.875,2.375 q -0.9375,-0.5625 -1.8594,-0.5625 -0.8437,0 -1.5078,0.5078 -0.6641,0.5078 -0.9453,1.3984 -0.4219,1.3594 -0.4219,2.9688 V 30 Z m 20.0738,-4.8438 2.6407,0.3282 q -0.625,2.3125 -2.3125,3.5859 -1.6875,1.2735 -4.2969,1.2735 -3.3125,0 -5.2422,-2.0313 -1.9297,-2.0313 -1.9297,-5.7031 0,-3.7969 1.9531,-5.8906 1.9532,-2.0938 5.0625,-2.0938 3.0313,0 4.9375,2.0547 1.9063,2.0547 1.9063,5.7734 0,0.2188 -0.0156,0.6719 h -11.2032 q 0.1407,2.4844 1.3985,3.8047 1.2578,1.3203 3.1328,1.3203 1.4062,0 2.3984,-0.7422 0.9922,-0.7422 1.5703,-2.3516 z m -8.3593,-4.125 h 8.3906 q -0.1719,-1.8906 -0.9688,-2.8437 -1.2187,-1.4687 -3.1562,-1.4687 -1.75,0 -2.9453,1.1718 -1.1953,1.1719 -1.3203,3.1406 z m 13.349,4.4844 2.5157,-0.4062 q 0.2187,1.5156 1.1875,2.3281 0.9687,0.8125 2.7187,0.8125 1.75,0 2.6016,-0.7188 0.8515,-0.7187 0.8515,-1.6874 0,-0.8594 -0.75,-1.3594 -0.5312,-0.3282 -2.6093,-0.8594 -2.7969,-0.7031 -3.8828,-1.2188 -1.086,-0.5156 -1.6485,-1.4296 -0.5625,-0.9141 -0.5625,-2.0235 0,-1 0.461,-1.8593 0.4609,-0.8594 1.2578,-1.4219 0.5937,-0.4375 1.6172,-0.7422 1.0234,-0.3047 2.2109,-0.3047 1.7656,0 3.1016,0.5078 1.3359,0.5078 1.9765,1.3828 0.6406,0.875 0.875,2.3282 l -2.4844,0.3437 q -0.1718,-1.1719 -0.9843,-1.8203 -0.8125,-0.6484 -2.3125,-0.6484 -1.75,0 -2.5,0.5781 -0.75,0.5781 -0.75,1.3593 0,0.5 0.3125,0.8907 0.3125,0.4062 0.9687,0.6875 0.3906,0.1406 2.2656,0.6406 2.7032,0.7344 3.7657,1.1875 1.0625,0.4531 1.6718,1.3359 0.6094,0.8828 0.6094,2.1797 0,1.2813 -0.7422,2.4063 -0.7422,1.125 -2.1406,1.7422 -1.3984,0.6172 -3.1641,0.6172 -2.9375,0 -4.4765,-1.2188 -1.5391,-1.2188 -1.961,-3.6094 z"
         id="path63" />
    </g>
    <g
       style="color-interpolation:linearRGB;fill:#262626;stroke:#262626;stroke-width:0.6667;stroke-linejoin:round;color-rendering:optimizeQuality;image-rendering:optimizeQuality;text-rendering:geometricPrecision"
       id="g75">
      <line
         y2="31"
         style="fill:none"
         x1="131"
         x2="131"
         y1="340"
         id="line64" />
      <line
         y2="31"
         style="fill:none"
         x1="507"
         x2="507"
         y1="340"
         id="line65" />
      <line
         y2="340"
         style="fill:none"
         x1="131"
         x2="134.75999"
         y1="340"
         id="line66" />
      <line
         y2="262.75"
         style="fill:none"
         x1="131"
         x2="134.75999"
         y1="262.75"
         id="line67" />
      <line
         y2="185.5"
         style="fill:none"
         x1="131"
         x2="134.75999"
         y1="185.5"
         id="line68" />
      <line
         y2="108.25"
         style="fill:none"
         x1="131"
         x2="134.75999"
         y1="108.25"
         id="line69" />
      <line
         y2="31"
         style="fill:none"
         x1="131"
         x2="134.75999"
         y1="31"
         id="line70" />
      <line
         y2="340"
         style="fill:none"
         x1="507"
         x2="503.23999"
         y1="340"
         id="line71" />
      <line
         y2="262.75"
         style="fill:none"
         x1="507"
         x2="503.23999"
         y1="262.75"
         id="line72" />
      <line
         y2="185.5"
         style="fill:none"
         x1="507"
         x2="503.23999"
         y1="185.5"
         id="line73" />
      <line
         y2="108.25"
         style="fill:none"
         x1="507"
         x2="503.23999"
         y1="108.25"
         id="line74" />
      <line
         y2="31"
         style="fill:none"
         x1="507"
         x2="503.23999"
         y1="31"
         id="line75" />
    </g>
    <g
       transform="translate(123,340)"
       style="font-size:26.6667px;color-interpolation:linearRGB;fill:#262626;stroke:#262626;color-rendering:optimizeQuality;image-rendering:optimizeQuality;text-rendering:geometricPrecision"
       id="g76">
      <path
         style="stroke:none"
         d="m -13.875,0.9688 q 0,-3.4219 0.7031,-5.5157 0.7031,-2.0937 2.0938,-3.2265 1.3906,-1.1328 3.5,-1.1328 1.5625,0 2.7343,0.625 1.1719,0.625 1.9376,1.8046 0.7656,1.1797 1.1953,2.875 0.4297,1.6954 0.4297,4.5704 0,3.4062 -0.6954,5.4921 -0.6953,2.086 -2.0859,3.2266 -1.3906,1.1406 -3.5156,1.1406 -2.7969,0 -4.3907,-2 -1.9062,-2.4219 -1.9062,-7.8593 z m 2.4375,0 q 0,4.7656 1.1094,6.3359 1.1093,1.5703 2.75,1.5703 1.6406,0 2.75,-1.5781 1.1093,-1.5781 1.1093,-6.3281 0,-4.7657 -1.1093,-6.336 -1.1094,-1.5703 -2.7813,-1.5703 -1.625,0 -2.6094,1.375 -1.2187,1.7656 -1.2187,6.5313 z"
         id="path75" />
    </g>
    <g
       transform="translate(123,262.75)"
       style="font-size:26.6667px;color-interpolation:linearRGB;fill:#262626;stroke:#262626;color-rendering:optimizeQuality;image-rendering:optimizeQuality;text-rendering:geometricPrecision"
       id="g77">
      <path
         style="stroke:none"
         d="m -28.875,5.4375 2.4844,-0.2187 q 0.2812,1.8281 1.289,2.7421 1.0078,0.9141 2.4297,0.9141 1.7188,0 2.9063,-1.2891 1.1875,-1.289 1.1875,-3.4297 0,-2.0312 -1.1407,-3.2031 -1.1406,-1.1719 -2.9843,-1.1719 -1.1563,0 -2.0781,0.5235 -0.9219,0.5234 -1.4532,1.3515 l -2.2187,-0.2968 1.875,-9.9219 h 9.6093 v 2.2656 h -7.7187 l -1.0469,5.1875 q 1.75,-1.2031 3.6563,-1.2031 2.5312,0 4.2734,1.75 1.7422,1.75 1.7422,4.5156 0,2.625 -1.5313,4.5313 -1.8593,2.3437 -5.0781,2.3437 -2.6406,0 -4.3047,-1.4765 -1.664,-1.4766 -1.8984,-3.9141 z m 14.8249,-4.4687 q 0,-3.4219 0.7032,-5.5157 0.7031,-2.0937 2.0937,-3.2265 1.3906,-1.1328 3.5,-1.1328 1.5625,0 2.7344,0.625 1.1719,0.625 1.9375,1.8046 0.7656,1.1797 1.1953,2.875 0.4297,1.6954 0.4297,4.5704 0,3.4062 -0.6953,5.4921 -0.6953,2.086 -2.086,3.2266 -1.3906,1.1406 -3.5156,1.1406 -2.7969,0 -4.3906,-2 -1.9063,-2.4219 -1.9063,-7.8593 z m 2.4375,0 q 0,4.7656 1.1094,6.3359 1.1094,1.5703 2.75,1.5703 1.6406,0 2.75,-1.5781 1.1094,-1.5781 1.1094,-6.3281 0,-4.7657 -1.1094,-6.336 -1.1094,-1.5703 -2.7812,-1.5703 -1.625,0 -2.6094,1.375 -1.2188,1.7656 -1.2188,6.5313 z"
         id="path76" />
    </g>
    <g
       transform="translate(123,185.5)"
       style="font-size:26.6667px;color-interpolation:linearRGB;fill:#262626;stroke:#262626;color-rendering:optimizeQuality;image-rendering:optimizeQuality;text-rendering:geometricPrecision"
       id="g78">
      <path
         style="stroke:none"
         d="m -34.9375,10.5 h -2.375 V -4.625 q -0.8594,0.8281 -2.25,1.6406 -1.3906,0.8125 -2.5,1.2188 v -2.2969 q 2,-0.9219 3.4844,-2.2578 1.4843,-1.3359 2.1093,-2.5859 h 1.5313 z m 5.8874,-9.5312 q 0,-3.4219 0.7032,-5.5157 0.7031,-2.0937 2.0937,-3.2265 1.3906,-1.1328 3.5,-1.1328 1.5625,0 2.7344,0.625 1.1719,0.625 1.9375,1.8046 0.7656,1.1797 1.1953,2.875 0.4297,1.6954 0.4297,4.5704 0,3.4062 -0.6953,5.4921 -0.6953,2.086 -2.086,3.2266 -1.3906,1.1406 -3.5156,1.1406 -2.7969,0 -4.3906,-2 -1.9063,-2.4219 -1.9063,-7.8593 z m 2.4375,0 q 0,4.7656 1.1094,6.3359 1.1094,1.5703 2.75,1.5703 1.6406,0 2.75,-1.5781 1.1094,-1.5781 1.1094,-6.3281 0,-4.7657 -1.1094,-6.336 -1.1094,-1.5703 -2.7812,-1.5703 -1.625,0 -2.6094,1.375 -1.2188,1.7656 -1.2188,6.5313 z m 12.3875,0 q 0,-3.4219 0.7031,-5.5157 0.7031,-2.0937 2.0937,-3.2265 1.3907,-1.1328 3.5,-1.1328 1.5625,0 2.7344,0.625 1.1719,0.625 1.9375,1.8046 0.7656,1.1797 1.1953,2.875 0.4297,1.6954 0.4297,4.5704 0,3.4062 -0.6953,5.4921 -0.6953,2.086 -2.0859,3.2266 -1.3907,1.1406 -3.5157,1.1406 -2.7968,0 -4.3906,-2 -1.9062,-2.4219 -1.9062,-7.8593 z m 2.4375,0 q 0,4.7656 1.1093,6.3359 1.1094,1.5703 2.75,1.5703 1.6407,0 2.75,-1.5781 1.1094,-1.5781 1.1094,-6.3281 0,-4.7657 -1.1094,-6.336 -1.1093,-1.5703 -2.7812,-1.5703 -1.625,0 -2.6094,1.375 -1.2187,1.7656 -1.2187,6.5313 z"
         id="path77" />
    </g>
    <g
       transform="translate(123,108.25)"
       style="font-size:26.6667px;color-interpolation:linearRGB;fill:#262626;stroke:#262626;color-rendering:optimizeQuality;image-rendering:optimizeQuality;text-rendering:geometricPrecision"
       id="g79">
      <path
         style="stroke:none"
         d="m -34.9375,10.5 h -2.375 V -4.625 q -0.8594,0.8281 -2.25,1.6406 -1.3906,0.8125 -2.5,1.2188 v -2.2969 q 2,-0.9219 3.4844,-2.2578 1.4843,-1.3359 2.1093,-2.5859 h 1.5313 z m 5.8874,-5.0625 2.4844,-0.2187 q 0.2813,1.8281 1.2891,2.7421 1.0078,0.9141 2.4297,0.9141 1.7187,0 2.9062,-1.2891 1.1875,-1.289 1.1875,-3.4297 0,-2.0312 -1.1406,-3.2031 -1.1406,-1.1719 -2.9844,-1.1719 -1.1562,0 -2.0781,0.5235 -0.9219,0.5234 -1.4531,1.3515 l -2.2188,-0.2968 1.875,-9.9219 h 9.6094 v 2.2656 h -7.7188 l -1.0468,5.1875 q 1.75,-1.2031 3.6562,-1.2031 2.5313,0 4.2734,1.75 1.7422,1.75 1.7422,4.5156 0,2.625 -1.5312,4.5313 -1.8594,2.3437 -5.0781,2.3437 -2.6407,0 -4.3047,-1.4765 -1.6641,-1.4766 -1.8985,-3.9141 z m 14.825,-4.4687 q 0,-3.4219 0.7031,-5.5157 0.7031,-2.0937 2.0937,-3.2265 1.3907,-1.1328 3.5,-1.1328 1.5625,0 2.7344,0.625 1.1719,0.625 1.9375,1.8046 0.7656,1.1797 1.1953,2.875 0.4297,1.6954 0.4297,4.5704 0,3.4062 -0.6953,5.4921 -0.6953,2.086 -2.0859,3.2266 -1.3907,1.1406 -3.5157,1.1406 -2.7968,0 -4.3906,-2 -1.9062,-2.4219 -1.9062,-7.8593 z m 2.4375,0 q 0,4.7656 1.1093,6.3359 1.1094,1.5703 2.75,1.5703 1.6407,0 2.75,-1.5781 1.1094,-1.5781 1.1094,-6.3281 0,-4.7657 -1.1094,-6.336 -1.1093,-1.5703 -2.7812,-1.5703 -1.625,0 -2.6094,1.375 -1.2187,1.7656 -1.2187,6.5313 z"
         id="path78" />
    </g>
    <g
       transform="translate(123,31)"
       style="font-size:26.6667px;color-interpolation:linearRGB;fill:#262626;stroke:#262626;color-rendering:optimizeQuality;image-rendering:optimizeQuality;text-rendering:geometricPrecision"
       id="g80">
      <path
         style="stroke:none"
         d="M -31.4062,8.2188 V 10.5 h -12.7813 q -0.0156,-0.8594 0.2813,-1.6406 0.4843,-1.3125 1.5624,-2.5782 1.0782,-1.2656 3.1094,-2.9218 3.1406,-2.5938 4.25,-4.1016 1.1094,-1.5078 1.1094,-2.8516 0,-1.4062 -1.0078,-2.375 -1.0078,-0.9687 -2.6328,-0.9687 -1.7032,0 -2.7344,1.0234 -1.0312,1.0235 -1.0469,2.8516 l -2.4375,-0.25 q 0.25,-2.7344 1.8828,-4.1641 1.6328,-1.4296 4.3985,-1.4296 2.7812,0 4.3984,1.539 1.6172,1.5391 1.6172,3.8203 0,1.1719 -0.4766,2.2891 -0.4765,1.1172 -1.5703,2.3594 -1.0937,1.2422 -3.6562,3.3984 -2.1406,1.7969 -2.7422,2.4375 -0.6016,0.6406 -1.0078,1.2813 z m 2.3561,-7.25 q 0,-3.4219 0.7032,-5.5157 0.7031,-2.0937 2.0937,-3.2265 1.3906,-1.1328 3.5,-1.1328 1.5625,0 2.7344,0.625 1.1719,0.625 1.9375,1.8046 0.7656,1.1797 1.1953,2.875 0.4297,1.6954 0.4297,4.5704 0,3.4062 -0.6953,5.4921 -0.6953,2.086 -2.086,3.2266 -1.3906,1.1406 -3.5156,1.1406 -2.7969,0 -4.3906,-2 -1.9063,-2.4219 -1.9063,-7.8593 z m 2.4375,0 q 0,4.7656 1.1094,6.3359 1.1094,1.5703 2.75,1.5703 1.6406,0 2.75,-1.5781 1.1094,-1.5781 1.1094,-6.3281 0,-4.7657 -1.1094,-6.336 -1.1094,-1.5703 -2.7812,-1.5703 -1.625,0 -2.6094,1.375 -1.2188,1.7656 -1.2188,6.5313 z m 12.3875,0 q 0,-3.4219 0.7031,-5.5157 0.7031,-2.0937 2.0937,-3.2265 1.3907,-1.1328 3.5,-1.1328 1.5625,0 2.7344,0.625 1.1719,0.625 1.9375,1.8046 0.7656,1.1797 1.1953,2.875 0.4297,1.6954 0.4297,4.5704 0,3.4062 -0.6953,5.4921 -0.6953,2.086 -2.0859,3.2266 -1.3907,1.1406 -3.5157,1.1406 -2.7968,0 -4.3906,-2 -1.9062,-2.4219 -1.9062,-7.8593 z m 2.4375,0 q 0,4.7656 1.1093,6.3359 1.1094,1.5703 2.75,1.5703 1.6407,0 2.75,-1.5781 1.1094,-1.5781 1.1094,-6.3281 0,-4.7657 -1.1094,-6.336 -1.1093,-1.5703 -2.7812,-1.5703 -1.625,0 -2.6094,1.375 -1.2187,1.7656 -1.2187,6.5313 z"
         id="path79" />
    </g>
    <g
       transform="rotate(-90,129.7499,55.7499)"
       style="font-size:29.3333px;color-interpolation:linearRGB;fill:#262626;stroke:#262626;color-rendering:optimizeQuality;image-rendering:optimizeQuality;text-rendering:geometricPrecision"
       id="g81">
      <path
         style="stroke:none"
         d="m -66.2969,-44 v -20.7656 h 2.8281 l 10.9063,16.3125 v -16.3125 h 2.625 V -44 H -52.75 L -63.6562,-60.3125 V -44 Z m 30.7311,0 v -2.2031 q -1.75,2.5469 -4.7657,2.5469 -1.3281,0 -2.4843,-0.5157 -1.1563,-0.5156 -1.7188,-1.2812 -0.5625,-0.7657 -0.7812,-1.8907 -0.1563,-0.75 -0.1563,-2.375 v -9.3124 h 2.5469 v 8.3281 q 0,2 0.1562,2.7031 0.2344,1 1.0157,1.5703 0.7812,0.5703 1.9218,0.5703 1.1563,0 2.1563,-0.5859 1,-0.5859 1.4219,-1.6016 0.4218,-1.0156 0.4218,-2.9375 v -8.0468 h 2.5469 V -44 Z m 6.4428,0 v -15.0312 h 2.2813 v 2.1093 q 0.7187,-1.1093 1.8906,-1.7812 1.1719,-0.6719 2.6719,-0.6719 1.6718,0 2.7422,0.6953 1.0703,0.6953 1.5078,1.9297 1.7812,-2.625 4.6406,-2.625 2.2344,0 3.4375,1.2344 1.2031,1.2344 1.2031,3.8125 V -44 h -2.5312 v -9.4688 q 0,-1.5312 -0.2422,-2.2031 -0.2422,-0.6719 -0.8985,-1.0859 -0.6562,-0.4141 -1.5312,-0.4141 -1.5938,0 -2.6406,1.0547 -1.0469,1.0547 -1.0469,3.3828 V -44 h -2.5469 v -9.7656 q 0,-1.7032 -0.625,-2.5547 -0.625,-0.8516 -2.0312,-0.8516 -1.0782,0 -1.9922,0.5703 -0.9141,0.5704 -1.3281,1.6563 -0.4141,1.0859 -0.4141,3.1484 V -44 Z m 26.7769,0 h -2.375 v -20.7656 h 2.5625 v 7.4062 q 1.6094,-2.0156 4.1094,-2.0156 1.3906,0 2.6328,0.5547 1.2422,0.5547 2.0391,1.5703 0.7969,1.0156 1.25,2.4453 0.4531,1.4297 0.4531,3.0547 0,3.875 -1.9141,5.9844 -1.914,2.1094 -4.5859,2.1094 -2.6562,0 -4.1719,-2.2344 z m -0.0312,-7.625 q 0,2.7031 0.7344,3.9062 1.2031,1.9688 3.2656,1.9688 1.6562,0 2.875,-1.4531 1.2187,-1.4531 1.2187,-4.3281 0,-2.9532 -1.164,-4.3516 -1.1641,-1.3984 -2.8203,-1.3984 -1.6719,0 -2.8907,1.4531 -1.2187,1.4531 -1.2187,4.2031 z m 24.2709,2.7812 2.6407,0.3282 q -0.625,2.3125 -2.3125,3.5859 -1.6875,1.2735 -4.2969,1.2735 -3.3125,0 -5.2422,-2.0313 -1.9297,-2.0313 -1.9297,-5.7031 0,-3.7969 1.9531,-5.8906 1.9532,-2.0938 5.0625,-2.0938 3.0313,0 4.9375,2.0547 1.9063,2.0547 1.9063,5.7734 0,0.2188 -0.0156,0.6719 H 13.3936 q 0.1407,2.4844 1.3985,3.8047 1.2578,1.3203 3.1328,1.3203 1.4062,0 2.3984,-0.7422 0.9922,-0.7422 1.5703,-2.3516 z m -8.3593,-4.125 h 8.3906 q -0.1719,-1.8906 -0.9688,-2.8437 -1.2187,-1.4687 -3.1562,-1.4687 -1.75,0 -2.9453,1.1718 -1.1953,1.1719 -1.3203,3.1406 z M 27.8834,-44 v -15.0312 h 2.2812 v 2.2656 q 0.8906,-1.5938 1.6328,-2.1016 0.7422,-0.5078 1.6328,-0.5078 1.2813,0 2.6094,0.8125 l -0.875,2.375 q -0.9375,-0.5625 -1.8594,-0.5625 -0.8437,0 -1.5078,0.5078 -0.664,0.5078 -0.9453,1.3984 -0.4219,1.3594 -0.4219,2.9688 V -44 Z m 16.9833,-7.5156 q 0,-4.1875 2.3125,-6.1875 1.9375,-1.6719 4.7344,-1.6719 3.0938,0 5.0625,2.0312 1.9688,2.0313 1.9688,5.6094 0,2.9063 -0.8672,4.5703 -0.8672,1.6641 -2.5313,2.586 -1.664,0.9219 -3.6328,0.9219 -3.1562,0 -5.1016,-2.0235 -1.9453,-2.0234 -1.9453,-5.8359 z m 2.6094,0 q 0,2.8906 1.2656,4.3281 1.2657,1.4375 3.1719,1.4375 1.8906,0 3.1563,-1.4453 1.2656,-1.4453 1.2656,-4.4141 0,-2.7812 -1.2735,-4.2187 -1.2734,-1.4375 -3.1484,-1.4375 -1.9062,0 -3.1719,1.4297 -1.2656,1.4297 -1.2656,4.3203 z M 62.7158,-44 v -13.0625 h -2.25 v -1.9687 h 2.25 v -1.6094 q 0,-1.5156 0.2813,-2.25 0.3593,-0.9844 1.289,-1.6016 0.9297,-0.6172 2.6016,-0.6172 1.0781,0 2.375,0.25 l -0.375,2.2188 q -0.7969,-0.1406 -1.5156,-0.1406 -1.1563,0 -1.6328,0.5 -0.4766,0.5 -0.4766,1.8593 v 1.3907 h 2.9219 v 1.9687 H 65.2627 V -44 Z"
         id="path80" />
      <path
         style="stroke:none"
         d="m -151.6406,-7 v -20.7656 h 2.5468 V -7 Z m 16.856,-4.8438 2.6406,0.3282 q -0.625,2.3125 -2.3125,3.5859 -1.6875,1.2735 -4.2968,1.2735 -3.3125,0 -5.2422,-2.0313 -1.9297,-2.0313 -1.9297,-5.7031 0,-3.7969 1.9531,-5.8906 1.9531,-2.0938 5.0625,-2.0938 3.0313,0 4.9375,2.0547 1.9063,2.0547 1.9063,5.7734 0,0.2188 -0.0157,0.6719 h -11.2031 q 0.1406,2.4844 1.3985,3.8047 1.2578,1.3203 3.1328,1.3203 1.4062,0 2.3984,-0.7422 0.9922,-0.7422 1.5703,-2.3516 z m -8.3594,-4.125 h 8.3907 q -0.1719,-1.8906 -0.9688,-2.8437 -1.2187,-1.4687 -3.1562,-1.4687 -1.75,0 -2.9453,1.1718 -1.1954,1.1719 -1.3204,3.1406 z m 24.1773,7.1094 q -1.4063,1.2032 -2.7188,1.7032 -1.3125,0.5 -2.8125,0.5 -2.4844,0 -3.8125,-1.211 -1.3281,-1.2109 -1.3281,-3.1016 0,-1.0937 0.5,-2.0078 0.5,-0.914 1.3203,-1.4687 0.8203,-0.5547 1.8359,-0.8359 0.75,-0.2032 2.2657,-0.3907 3.0781,-0.3593 4.5468,-0.875 0.0157,-0.5156 0.0157,-0.6562 0,-1.5625 -0.7344,-2.2031 -0.9688,-0.8594 -2.8906,-0.8594 -1.7969,0 -2.6563,0.625 -0.8594,0.625 -1.2656,2.2344 l -2.5,-0.3438 q 0.3437,-1.5938 1.125,-2.5781 0.7812,-0.9844 2.25,-1.5157 1.4687,-0.5312 3.4062,-0.5312 1.9375,0 3.1407,0.4531 1.2031,0.4531 1.7656,1.1407 0.5625,0.6874 0.7969,1.7343 0.125,0.6407 0.125,2.3438 v 3.4062 q 0,3.5469 0.164,4.4922 0.1641,0.9453 0.6328,1.8047 h -2.6562 q -0.3906,-0.7969 -0.5156,-1.8594 z m -0.2032,-5.6875 q -1.3906,0.5625 -4.1718,0.9688 -1.5625,0.2187 -2.2188,0.5 -0.6562,0.2812 -1.0078,0.8281 -0.3516,0.5469 -0.3516,1.2188 0,1.0156 0.7735,1.6953 0.7734,0.6797 2.2578,0.6797 1.4687,0 2.6172,-0.6485 1.1484,-0.6484 1.6953,-1.7578 0.4062,-0.8594 0.4062,-2.5469 z m 10.8804,7.5469 -5.7188,-15.0312 h 2.6875 l 3.2188,9 q 0.5312,1.4531 0.9687,3.0312 0.3438,-1.1875 0.9532,-2.8594 l 3.3437,-9.1718 h 2.6094 L -105.9145,-7 Z m 20.7656,-4.8438 2.6406,0.3282 q -0.625,2.3125 -2.3125,3.5859 -1.6875,1.2735 -4.2968,1.2735 -3.3125,0 -5.2422,-2.0313 -1.9297,-2.0313 -1.9297,-5.7031 0,-3.7969 1.9531,-5.8906 1.9531,-2.0938 5.0625,-2.0938 3.0313,0 4.9375,2.0547 1.9063,2.0547 1.9063,5.7734 0,0.2188 -0.0157,0.6719 h -11.2031 q 0.1406,2.4844 1.3984,3.8047 1.2579,1.3203 3.1329,1.3203 1.4062,0 2.3984,-0.7422 0.9922,-0.7422 1.5703,-2.3516 z m -8.3594,-4.125 h 8.3907 q -0.1719,-1.8906 -0.9688,-2.8437 -1.2187,-1.4687 -3.1562,-1.4687 -1.75,0 -2.9454,1.1718 -1.1953,1.1719 -1.3203,3.1406 z m 13.3804,2.7344 v -2.5625 h 7.8281 v 2.5625 z m 9.8081,-1.2812 q 0,-4.1875 2.3125,-6.1875 1.9375,-1.6719 4.7344,-1.6719 3.0938,0 5.0625,2.0312 1.9688,2.0313 1.9688,5.6094 0,2.9063 -0.8672,4.5703 -0.8672,1.6641 -2.5313,2.586 -1.664,0.9219 -3.6328,0.9219 -3.1562,0 -5.1016,-2.0235 -1.9453,-2.0234 -1.9453,-5.8359 z m 2.6094,0 q 0,2.8906 1.2656,4.3281 1.2657,1.4375 3.1719,1.4375 1.8906,0 3.1563,-1.4453 1.2656,-1.4453 1.2656,-4.4141 0,-2.7812 -1.2735,-4.2187 -1.2734,-1.4375 -3.1484,-1.4375 -1.9062,0 -3.1719,1.4297 -1.2656,1.4297 -1.2656,4.3203 z M -55.455,-7 v -15.0312 h 2.2968 v 2.125 q 1.6563,-2.4688 4.7813,-2.4688 1.3594,0 2.5,0.4844 1.1406,0.4844 1.7109,1.2812 0.5703,0.7969 0.7891,1.8906 0.1406,0.7032 0.1406,2.4688 V -7 h -2.5469 v -9.1406 q 0,-1.5625 -0.2968,-2.336 -0.2969,-0.7734 -1.0547,-1.2343 -0.7578,-0.461 -1.7735,-0.461 -1.625,0 -2.8125,1.0313 -1.1875,1.0312 -1.1875,3.9218 V -7 Z m 26.599,-4.8438 2.6407,0.3282 q -0.625,2.3125 -2.3125,3.5859 -1.6875,1.2735 -4.2969,1.2735 -3.3125,0 -5.2422,-2.0313 -1.9297,-2.0313 -1.9297,-5.7031 0,-3.7969 1.9531,-5.8906 1.9532,-2.0938 5.0625,-2.0938 3.0313,0 4.9375,2.0547 1.9063,2.0547 1.9063,5.7734 0,0.2188 -0.0156,0.6719 H -37.356 q 0.1407,2.4844 1.3985,3.8047 1.2578,1.3203 3.1328,1.3203 1.4062,0 2.3984,-0.7422 0.9922,-0.7422 1.5703,-2.3516 z m -8.3593,-4.125 h 8.3906 q -0.1719,-1.8906 -0.9688,-2.8437 -1.2187,-1.4687 -3.1562,-1.4687 -1.75,0 -2.9453,1.1718 -1.1953,1.1719 -1.3203,3.1406 z m 13.3803,2.7344 v -2.5625 h 7.8281 v 2.5625 z m 9.8082,-1.2812 q 0,-4.1875 2.3125,-6.1875 1.9375,-1.6719 4.7344,-1.6719 3.0937,0 5.0625,2.0312 1.9687,2.0313 1.9687,5.6094 0,2.9063 -0.8672,4.5703 -0.8672,1.6641 -2.5312,2.586 -1.6641,0.9219 -3.6328,0.9219 -3.1563,0 -5.1016,-2.0235 -1.9453,-2.0234 -1.9453,-5.8359 z m 2.6094,0 q 0,2.8906 1.2656,4.3281 1.2656,1.4375 3.1719,1.4375 1.8906,0 3.1562,-1.4453 1.2656,-1.4453 1.2656,-4.4141 0,-2.7812 -1.2734,-4.2187 -1.2734,-1.4375 -3.1484,-1.4375 -1.9063,0 -3.1719,1.4297 -1.2656,1.4297 -1.2656,4.3203 z M 13.0723,-7 v -2.2031 q -1.75,2.5469 -4.7657,2.5469 -1.3281,0 -2.4843,-0.5157 Q 4.666,-7.6875 4.1035,-8.4531 3.541,-9.2188 3.3223,-10.3438 3.166,-11.0938 3.166,-12.7188 v -9.3124 h 2.5469 v 8.3281 q 0,2 0.1562,2.7031 0.2344,1 1.0157,1.5703 0.7812,0.5703 1.9218,0.5703 1.1563,0 2.1563,-0.5859 1,-0.5859 1.4219,-1.6016 0.4218,-1.0156 0.4218,-2.9375 v -8.0468 h 2.5469 V -7 Z m 12.0209,-2.2812 0.3594,2.25 q -1.0781,0.2343 -1.9219,0.2343 -1.3906,0 -2.1562,-0.4453 -0.7656,-0.4453 -1.0781,-1.1562 -0.3125,-0.711 -0.3125,-3.0078 v -8.6563 h -1.8594 v -1.9687 h 1.8594 v -3.7344 l 2.5312,-1.5313 v 5.2657 h 2.5781 v 1.9687 h -2.5781 v 8.7969 q 0,1.0937 0.1406,1.4062 0.1407,0.3125 0.4453,0.4922 0.3047,0.1797 0.8672,0.1797 0.4219,0 1.125,-0.0937 z m 10.7254,-15.5469 v -2.9375 h 2.5469 v 2.9375 z m 0,17.8281 v -15.0312 h 2.5469 V -7 Z m 12.0748,-2.2812 0.3594,2.25 q -1.0781,0.2343 -1.9219,0.2343 -1.3906,0 -2.1562,-0.4453 -0.7656,-0.4453 -1.0781,-1.1562 -0.3125,-0.711 -0.3125,-3.0078 v -8.6563 h -1.8594 v -1.9687 h 1.8594 v -3.7344 l 2.5312,-1.5313 v 5.2657 h 2.5781 v 1.9687 h -2.5781 v 8.7969 q 0,1.0937 0.1406,1.4062 0.1407,0.3125 0.4453,0.4922 0.3047,0.1797 0.8672,0.1797 0.4219,0 1.125,-0.0937 z m 12.8627,-2.5626 2.6407,0.3282 q -0.625,2.3125 -2.3125,3.5859 -1.6875,1.2735 -4.2969,1.2735 -3.3125,0 -5.2422,-2.0313 -1.9297,-2.0313 -1.9297,-5.7031 0,-3.7969 1.9531,-5.8906 1.9532,-2.0938 5.0625,-2.0938 3.0313,0 4.9375,2.0547 1.9063,2.0547 1.9063,5.7734 0,0.2188 -0.0156,0.6719 H 52.2561 q 0.1407,2.4844 1.3985,3.8047 1.2578,1.3203 3.1328,1.3203 1.4062,0 2.3984,-0.7422 0.9922,-0.7422 1.5703,-2.3516 z m -8.3593,-4.125 h 8.3906 q -0.1719,-1.8906 -0.9688,-2.8437 -1.2187,-1.4687 -3.1562,-1.4687 -1.75,0 -2.9453,1.1718 -1.1953,1.1719 -1.3203,3.1406 z M 66.7458,-7 v -15.0312 h 2.2813 v 2.2656 q 0.8906,-1.5938 1.6328,-2.1016 0.7422,-0.5078 1.6328,-0.5078 1.2813,0 2.6094,0.8125 l -0.875,2.375 q -0.9375,-0.5625 -1.8594,-0.5625 -0.8437,0 -1.5078,0.5078 -0.6641,0.5078 -0.9453,1.3984 -0.4219,1.3594 -0.4219,2.9688 V -7 Z m 19.5895,-1.8594 q -1.4063,1.2032 -2.7188,1.7032 -1.3125,0.5 -2.8125,0.5 -2.4844,0 -3.8125,-1.211 -1.3281,-1.2109 -1.3281,-3.1016 0,-1.0937 0.5,-2.0078 0.5,-0.914 1.3203,-1.4687 0.8203,-0.5547 1.8359,-0.8359 0.75,-0.2032 2.2657,-0.3907 3.0781,-0.3593 4.5468,-0.875 0.0157,-0.5156 0.0157,-0.6562 0,-1.5625 -0.7344,-2.2031 -0.9688,-0.8594 -2.8906,-0.8594 -1.7969,0 -2.6563,0.625 -0.8594,0.625 -1.2656,2.2344 l -2.5,-0.3438 q 0.3437,-1.5938 1.125,-2.5781 0.7812,-0.9844 2.25,-1.5157 1.4687,-0.5312 3.4062,-0.5312 1.9375,0 3.1407,0.4531 1.2031,0.4531 1.7656,1.1407 0.5625,0.6874 0.7969,1.7343 0.125,0.6407 0.125,2.3438 v 3.4062 q 0,3.5469 0.164,4.4922 0.1641,0.9453 0.6328,1.8047 h -2.6562 q -0.3906,-0.7969 -0.5156,-1.8594 z m -0.2032,-5.6875 q -1.3906,0.5625 -4.1718,0.9688 -1.5625,0.2187 -2.2188,0.5 -0.6562,0.2812 -1.0078,0.8281 -0.3516,0.5469 -0.3516,1.2188 0,1.0156 0.7735,1.6953 0.7734,0.6797 2.2578,0.6797 1.4687,0 2.6172,-0.6485 1.1484,-0.6484 1.6953,-1.7578 0.4062,-0.8594 0.4062,-2.5469 z m 12.271,5.2657 0.3594,2.25 q -1.0781,0.2343 -1.9219,0.2343 -1.3906,0 -2.1562,-0.4453 -0.7657,-0.4453 -1.0782,-1.1562 -0.3125,-0.711 -0.3125,-3.0078 v -8.6563 h -1.8593 v -1.9687 h 1.8593 v -3.7344 l 2.5313,-1.5313 v 5.2657 h 2.5781 v 1.9687 H 95.825 v 8.7969 q 0,1.0937 0.1406,1.4062 0.1406,0.3125 0.4453,0.4922 0.3047,0.1797 0.8672,0.1797 0.4219,0 1.125,-0.0937 z m 2.5815,-15.5469 v -2.9375 h 2.5468 v 2.9375 z m 0,17.8281 v -15.0312 h 2.5468 V -7 Z m 5.5591,-7.5156 q 0,-4.1875 2.3125,-6.1875 1.9375,-1.6719 4.7344,-1.6719 3.0938,0 5.0625,2.0312 1.9688,2.0313 1.9688,5.6094 0,2.9063 -0.8672,4.5703 -0.8672,1.6641 -2.5313,2.586 -1.664,0.9219 -3.6328,0.9219 -3.1562,0 -5.1016,-2.0235 -1.9453,-2.0234 -1.9453,-5.8359 z m 2.6094,0 q 0,2.8906 1.2656,4.3281 1.2657,1.4375 3.1719,1.4375 1.8906,0 3.1563,-1.4453 1.2656,-1.4453 1.2656,-4.4141 0,-2.7812 -1.2735,-4.2187 -1.2734,-1.4375 -3.1484,-1.4375 -1.9062,0 -3.1719,1.4297 -1.2656,1.4297 -1.2656,4.3203 z M 123.7834,-7 v -15.0312 h 2.2969 v 2.125 q 1.6563,-2.4688 4.7813,-2.4688 1.3593,0 2.5,0.4844 1.1406,0.4844 1.7109,1.2812 0.5703,0.7969 0.7891,1.8906 0.1406,0.7032 0.1406,2.4688 V -7 h -2.5469 v -9.1406 q 0,-1.5625 -0.2969,-2.336 -0.2968,-0.7734 -1.0546,-1.2343 -0.7579,-0.461 -1.7735,-0.461 -1.625,0 -2.8125,1.0313 -1.1875,1.0312 -1.1875,3.9218 V -7 Z m 15.2866,-4.4844 2.5157,-0.4062 q 0.2187,1.5156 1.1875,2.3281 0.9687,0.8125 2.7187,0.8125 1.75,0 2.6016,-0.7188 0.8515,-0.7187 0.8515,-1.6874 0,-0.8594 -0.75,-1.3594 -0.5312,-0.3282 -2.6093,-0.8594 -2.7969,-0.7031 -3.8828,-1.2188 -1.086,-0.5156 -1.6485,-1.4296 -0.5625,-0.9141 -0.5625,-2.0235 0,-1 0.461,-1.8593 0.4609,-0.8594 1.2578,-1.4219 0.5937,-0.4375 1.6172,-0.7422 1.0234,-0.3047 2.2109,-0.3047 1.7656,0 3.1016,0.5078 1.3359,0.5078 1.9765,1.3828 0.6406,0.875 0.875,2.3282 l -2.4844,0.3437 q -0.1718,-1.1719 -0.9843,-1.8203 -0.8125,-0.6484 -2.3125,-0.6484 -1.75,0 -2.5,0.5781 -0.75,0.5781 -0.75,1.3593 0,0.5 0.3125,0.8907 0.3125,0.4062 0.9687,0.6875 0.3906,0.1406 2.2656,0.6406 2.7032,0.7344 3.7657,1.1875 1.0625,0.4531 1.6718,1.3359 0.6094,0.8828 0.6094,2.1797 0,1.2813 -0.7422,2.4063 -0.7422,1.125 -2.1406,1.7422 -1.3984,0.6172 -3.1641,0.6172 -2.9375,0 -4.4765,-1.2188 -1.5391,-1.2188 -1.961,-3.6094 z"
         id="path81" />
    </g>
  </g>
</svg>
